<svg width="31" height="31" viewBox="0 0 31 31" fill="none" xmlns="http://www.w3.org/2000/svg">
<rect width="31" height="31" rx="15" fill="#F4B5A4"/>
<path d="M17.9532 9.90216C18.0431 9.10395 18.4239 8.36679 19.0228 7.83148C19.6217 7.29617 20.3968 7.00018 21.2 7C21.6295 6.99944 22.055 7.08359 22.452 7.24757C22.849 7.41156 23.2097 7.65221 23.5136 7.95574C23.8176 8.25926 24.0587 8.61972 24.2232 9.0165C24.3877 9.41328 24.4724 9.83858 24.4724 10.2681C24.4724 10.6976 24.3877 11.1229 24.2232 11.5197C24.0587 11.9165 23.8176 12.277 23.5136 12.5805C23.2097 12.884 22.849 13.1247 22.452 13.2886C22.055 13.4526 21.6295 13.5368 21.2 13.5362C20.7449 13.5368 20.2947 13.442 19.8784 13.2581C19.4621 13.0741 19.089 12.805 18.783 12.4681M13.1149 25.383L6 18.2681L13.8979 10.366L21.0511 9.64687C21.143 9.63675 21.2359 9.6474 21.3231 9.67804C21.4104 9.70867 21.4895 9.75848 21.5549 9.82384C21.6203 9.8892 21.6701 9.96842 21.7008 10.0556C21.7314 10.1428 21.742 10.2358 21.7319 10.3277L21.0128 17.4809L13.1149 25.383Z" stroke="#4B4544" stroke-width="1.5" stroke-miterlimit="10"/>
<path d="M18.7145 14.4128C19.5864 14.4128 20.2932 13.706 20.2932 12.8341C20.2932 11.9622 19.5864 11.2554 18.7145 11.2554C17.8426 11.2554 17.1357 11.9622 17.1357 12.8341C17.1357 13.706 17.8426 14.4128 18.7145 14.4128Z" fill="#4B4544"/>
</svg>
