<svg width="31" height="31" viewBox="0 0 31 31" fill="none" xmlns="http://www.w3.org/2000/svg">
<path d="M28.4603 9.47567C29.4911 11.4489 30.0294 13.6313 30.0313 15.8453C30.0313 19.5994 28.5003 23.1997 25.7752 25.8542C23.05 28.5087 19.3539 30 15.5 30C11.6461 30 7.94999 28.5087 5.22485 25.8542C2.49971 23.1997 0.96875 19.5994 0.96875 15.8453C0.96875 12.0912 2.49971 8.49092 5.22485 5.83639C7.94999 3.18186 11.6461 1.69057 15.5 1.69057C17.7581 1.6877 19.9855 2.19998 22.0037 3.18637M27.4549 1.55667C26.8971 1.11675 26.183 0.910021 25.4691 0.981718C24.7551 1.05342 24.0994 1.3977 23.6454 1.93923L12.0243 15.9601L10.2177 21.6985C10.1914 21.7824 10.1915 21.872 10.2179 21.9559C10.2443 22.0398 10.2959 22.1141 10.366 22.1692C10.4361 22.2243 10.5215 22.2577 10.6113 22.2652C10.701 22.2727 10.791 22.2538 10.8697 22.2111L16.2423 19.2922L27.8634 5.27515C28.3136 4.7286 28.5234 4.03062 28.4469 3.33381C28.3704 2.637 28.0137 1.99806 27.4549 1.55667Z" stroke="#F4B5A4" stroke-width="1.91" stroke-linecap="round" stroke-linejoin="round"/>
</svg>
