<svg width="31" height="31" viewBox="0 0 31 31" fill="none" xmlns="http://www.w3.org/2000/svg">
<rect width="31" height="31" rx="15" fill="#F4B5A4"/>
<path d="M6.02286 14.9461C6.21701 12.5101 7.32179 10.2366 9.11711 8.57867C10.9124 6.92073 13.2665 6.00004 15.7102 6C18.1499 6.00035 20.5003 6.91796 22.2949 8.57076C24.0894 10.2236 25.1969 12.4907 25.3976 14.9221M24.749 19.2116C23.8372 21.5221 22.8273 22.8148 19.9451 24.6338M24.749 19.2116C24.481 19.1299 24.2562 18.9455 24.1237 18.6986C23.9912 18.4516 23.9619 18.1623 24.0421 17.8939C24.2234 17.2941 24.3148 16.6708 24.3132 16.0442C24.3132 15.9056 24.3406 15.7683 24.3937 15.6403C24.4469 15.5122 24.5248 15.396 24.623 15.2981C24.7212 15.2002 24.8377 15.1227 24.9659 15.07C25.0941 15.0172 25.2315 14.9903 25.3701 14.9907C25.5086 14.9903 25.6458 15.0172 25.7738 15.07C25.9018 15.1228 26.0181 15.2004 26.1161 15.2983C26.214 15.3962 26.2916 15.5125 26.3444 15.6405C26.3971 15.7686 26.4241 15.9057 26.4236 16.0442C26.4302 16.8767 26.3146 17.7057 26.0804 18.5047C26.0155 18.7218 25.8823 18.9122 25.7005 19.0476C25.5188 19.183 25.2982 19.2561 25.0716 19.2562C24.9625 19.2562 24.854 19.2411 24.749 19.2116ZM15.8441 17.4786V16.7923C15.8443 16.4945 15.9243 16.2021 16.0758 15.9456C16.2273 15.6891 16.4324 15.4871 16.7054 15.3339C16.9784 15.1807 17.2056 14.9575 17.3637 14.6873C17.5217 14.4171 17.6048 14.1096 17.6045 13.7966C17.5974 13.3322 17.4095 12.8889 17.0808 12.5608C16.7521 12.2327 16.3084 12.0458 15.8441 12.0396C15.3781 12.0396 14.9312 12.2247 14.6017 12.5542C14.2722 12.8837 14.0871 13.3306 14.0871 13.7966V14.1843M6.35229 19.2562C6.12567 19.2561 5.90511 19.183 5.72337 19.0476C5.54162 18.9122 5.40839 18.7218 5.34343 18.5047C5.10926 17.7057 4.99364 16.8767 5.00027 16.0442C5.00027 15.9056 5.02762 15.7683 5.08078 15.6403C5.13394 15.5122 5.21185 15.396 5.31004 15.2981C5.40823 15.2002 5.52478 15.1227 5.65299 15.07C5.7812 15.0172 5.91855 14.9903 6.05718 14.9907C6.19566 14.9903 6.33285 15.0172 6.46087 15.07C6.58889 15.1228 6.70523 15.2004 6.80315 15.2983C6.90107 15.3962 6.97862 15.5125 7.03141 15.6405C7.08419 15.7686 7.11116 15.9057 7.1107 16.0442C7.11079 16.6707 7.20208 17.2937 7.38177 17.8939C7.42194 18.0268 7.43552 18.1663 7.42173 18.3045C7.40794 18.4427 7.36708 18.5768 7.30143 18.6992C7.23578 18.8216 7.14662 18.9298 7.03911 19.0177C6.93161 19.1057 6.80786 19.1716 6.67489 19.2116C6.57001 19.2417 6.46139 19.2567 6.35229 19.2562ZM20.4698 20.1038C21.1152 19.4594 21.6168 18.6856 21.9418 17.8334C22.2667 16.9812 22.4075 16.0699 22.355 15.1594C22.3025 14.2489 22.0578 13.3598 21.6371 12.5506C21.2164 11.7414 20.6291 11.0304 19.9139 10.4645C18.7768 9.56703 17.3718 9.0764 15.9232 9.0708C14.4745 9.0652 13.0658 9.54497 11.9217 10.4336C10.6947 11.3928 9.85493 12.7627 9.55675 14.2914C9.25857 15.8201 9.52197 17.4051 10.2986 18.7552L9.13191 22.1628C9.12519 22.182 9.12396 22.2028 9.12839 22.2228C9.13282 22.2427 9.14274 22.261 9.157 22.2756C9.17126 22.2902 9.1893 22.3006 9.20911 22.3055C9.22893 22.3104 9.2497 22.3097 9.26914 22.3034L12.6802 21.1333C13.9109 21.8428 15.3413 22.1265 16.7497 21.9404C18.158 21.7543 19.4657 21.1087 20.4698 20.1038ZM20.034 25.0521C20.034 25.6188 19.5746 26.0782 19.008 26.0782C18.4413 26.0782 17.9819 25.6188 17.9819 25.0521C17.9819 24.4855 18.4413 24.0261 19.008 24.0261C19.5746 24.0261 20.034 24.4855 20.034 25.0521Z" stroke="#4B4544" stroke-width="1.3" stroke-miterlimit="10"/>
<circle cx="15.7098" cy="18.638" r="0.686317" fill="#4B4544"/>
</svg>
