<svg width="31" height="31" viewBox="0 0 31 31" fill="none" xmlns="http://www.w3.org/2000/svg">
<rect x="0.955" y="0.955" width="29.09" height="29.09" rx="14.045" stroke="#F4B5A4" stroke-width="1.91"/>
<path d="M21.5244 10.6473V20.5498C21.5244 21.4644 21.1622 22.3416 20.5174 22.9885C19.8726 23.6355 18.998 23.9993 18.0857 24H12.917C12.4652 24 12.0178 23.9107 11.6004 23.7373C11.1831 23.5639 10.8039 23.3097 10.4845 22.9893C10.1652 22.6689 9.91196 22.2885 9.73932 21.87C9.56667 21.4514 9.47799 21.0028 9.47834 20.5498V10.6473M13.1634 13.636V20.4901M17.8366 13.636V20.4901M12.7762 8.34263V7.74815C12.7776 7.28495 12.9618 6.84114 13.2885 6.5136C13.6152 6.18607 14.0578 6.00143 14.5199 6H16.4829C16.9449 6.00143 17.3875 6.18607 17.7142 6.5136C18.0409 6.84114 18.2251 7.28495 18.2265 7.74815V8.34263M8.6769 8.34264H22.3231C22.6969 8.34264 23 8.64647 23 9.02127V9.96864C23 10.3434 22.6969 10.6473 22.3231 10.6473H8.6769C8.30306 10.6473 8 10.3434 8 9.96864V9.02127C8 8.64647 8.30306 8.34264 8.6769 8.34264Z" stroke="#F4B5A4" stroke-width="1.91" stroke-linecap="round" stroke-linejoin="round"/>
</svg>
