<svg width="31" height="31" viewBox="0 0 31 31" fill="none" xmlns="http://www.w3.org/2000/svg">
<circle cx="15.5" cy="15.5" r="15.5" fill="#F4B5A4"/>
<path d="M24.3779 18.1353C23.9304 19.2669 23.2551 20.2948 22.3936 21.1553C20.9744 22.5748 19.1159 23.4734 17.1202 23.705C15.1246 23.9366 13.1092 23.4876 11.4015 22.4311C11.291 22.3784 11.1692 22.3539 11.0469 22.3597C10.9246 22.3655 10.8057 22.4015 10.7007 22.4644C9.15238 23.1239 7 24 7 24C7 24 8.06117 21.3618 8.50833 20.2659C8.56973 20.1616 8.60431 20.0437 8.60897 19.9228C8.61363 19.802 8.58823 19.6818 8.53503 19.5731C7.41988 17.7811 6.97944 15.6516 7.29244 13.5653C7.60543 11.4789 8.65146 9.57166 10.2436 8.18433C11.8696 6.77562 13.9503 6 16.1034 6C18.2564 6 20.3371 6.77562 21.9631 8.18433C22.8798 8.98607 23.6218 9.96706 24.1433 11.0666C24.6649 12.1661 24.9548 13.3608 24.9951 14.5767C25.0355 15.7926 24.8254 17.0038 24.3779 18.1353Z" stroke="#4B4544" stroke-width="1.3" stroke-linecap="round" stroke-linejoin="round"/>
</svg>
