<svg width="31" height="31" viewBox="0 0 31 31" fill="none" xmlns="http://www.w3.org/2000/svg">
<circle cx="15.5" cy="15.5" r="15.5" fill="#F4B5A4"/>
<path d="M9.2447 23.8295C7.80178 22.7768 6.65319 21.3472 5.91563 19.6858C5.17806 18.0244 4.87772 16.1903 5.0451 14.3697C5.29912 11.6357 6.58994 9.11806 8.63393 7.36995C10.6779 5.62183 13.3079 4.78624 15.946 5.04675C17.2533 5.17533 18.5234 5.56958 19.6838 6.20699C20.8441 6.8444 21.872 7.71248 22.7086 8.76165C23.5452 9.81082 24.1742 11.0205 24.5596 12.3217C24.9451 13.6229 25.0794 14.99 24.955 16.345C24.7003 19.0786 23.4093 21.5958 21.3655 23.3437C19.3217 25.0917 16.6921 25.9276 14.0542 25.6679C13.4405 25.6045 12.8337 25.4836 12.2411 25.3066M13.3317 21.726C16.3226 24.1412 19.5468 24.9016 21.3683 23.3401C23.7519 21.3007 22.8299 16.0711 19.3106 11.6573L18.6725 10.9726M16.1765 8.60403C13.329 6.48598 10.3466 5.88582 8.62069 7.36292C6.23982 9.4023 7.16176 14.6319 10.6783 19.0457M19.2966 9.70821C21.7225 9.39647 23.558 9.83058 24.092 11.0426C25.0168 13.1373 21.6943 16.7645 16.6712 19.1447C11.648 21.525 6.83286 21.7668 5.90525 19.6604C4.97764 17.554 8.30303 13.9385 13.3262 11.5582C14.1504 11.1661 14.995 10.8218 15.856 10.5269M19.0436 9.9879C19.0436 10.7924 18.4144 11.4446 17.6381 11.4446C16.8619 11.4446 16.2327 10.7924 16.2327 9.9879C16.2327 9.18338 16.8619 8.53119 17.6381 8.53119C18.4144 8.53119 19.0436 9.18338 19.0436 9.9879ZM12.2018 24.5433C12.2018 25.3478 11.5725 26 10.7963 26C10.0201 26 9.39084 25.3478 9.39084 24.5433C9.39084 23.7388 10.0201 23.0866 10.7963 23.0866C11.5725 23.0866 12.2018 23.7388 12.2018 24.5433Z" stroke="#4B4544" stroke-width="1.3" stroke-linecap="round" stroke-linejoin="round"/>
</svg>
