<svg width="31" height="31" viewBox="0 0 31 31" fill="none" xmlns="http://www.w3.org/2000/svg">
<circle cx="15.5" cy="15.5" r="15.5" fill="#F4B5A4"/>
<path d="M16.6896 24.997V19.6725H19.4419C19.4553 19.6725 19.4681 19.6671 19.4776 19.6576C19.487 19.6481 19.4923 19.6353 19.4923 19.6218V16.221C19.4923 16.2076 19.487 16.1947 19.4776 16.1852C19.4681 16.1757 19.4553 16.1704 19.4419 16.1704H16.6925V14.6129C16.6933 14.3367 16.8029 14.0721 16.9974 13.8768C17.1919 13.6815 17.4555 13.5714 17.7306 13.5706H19.4894V10.4081C19.4856 10.3222 19.4496 10.2409 19.3885 10.1806C19.3274 10.1204 19.2458 10.0856 19.1601 10.0835H16.5502C15.6298 10.0835 14.7472 10.4505 14.0964 11.104C13.4457 11.7574 13.0801 12.6436 13.0801 13.5677C13.0801 13.5677 13.0445 14.0739 13.0178 16.1674H10.3485C10.3352 16.1674 10.3221 16.17 10.3099 16.1751C10.2977 16.1802 10.2865 16.1877 10.2772 16.1971C10.2678 16.2065 10.2604 16.2176 10.2553 16.2299C10.2502 16.2422 10.2476 16.2554 10.2476 16.2687V19.5682C10.2476 19.5815 10.2502 19.5947 10.2553 19.607C10.2604 19.6193 10.2678 19.6304 10.2772 19.6398C10.2865 19.6492 10.2977 19.6567 10.3099 19.6618C10.3221 19.6669 10.3352 19.6695 10.3485 19.6695H12.997V24.732M13.0119 24.7409C10.846 24.1525 8.95777 22.8125 7.68237 20.959C6.40696 19.1054 5.82684 16.8581 6.04497 14.6159C6.25704 12.4442 7.20359 10.4111 8.72702 8.85491C10.2504 7.29874 12.2588 6.31349 14.4177 6.06323C15.7481 5.90858 17.096 6.03839 18.3729 6.44414C19.6497 6.84988 20.8266 7.52237 21.8261 8.41739C22.8256 9.31241 23.6252 10.4097 24.1722 11.6371C24.7192 12.8646 25.0013 14.1943 25 15.5391C25.0015 17.8612 24.1585 20.104 22.6293 21.8461C21.1002 23.5882 18.9901 24.7097 16.6955 25" stroke="#4B4544" stroke-width="1.3" stroke-linecap="round" stroke-linejoin="round"/>
</svg>
