<svg width="24" height="15" viewBox="0 0 24 15" fill="none" xmlns="http://www.w3.org/2000/svg">
<path d="M12 11.25C14.0711 11.25 15.75 9.57107 15.75 7.5C15.75 5.42893 14.0711 3.75 12 3.75C9.92893 3.75 8.25 5.42893 8.25 7.5C8.25 9.57107 9.92893 11.25 12 11.25Z" stroke="#CC7861" stroke-width="1.5"/>
<path d="M23.1301 7.935C23.3101 7.665 23.3101 7.335 23.1301 7.065C22.0801 5.565 18.2101 0.75 12.0001 0.75C5.79011 0.75 1.92011 5.565 0.870107 7.065C0.690107 7.335 0.690107 7.665 0.870107 7.935C1.92011 9.435 5.79011 14.25 12.0001 14.25C18.2101 14.25 22.0801 9.435 23.1301 7.935Z" stroke="#CC7861" stroke-width="1.5" stroke-linecap="round"/>
</svg>
