<svg width="26" height="18" viewBox="0 0 26 18" fill="none" xmlns="http://www.w3.org/2000/svg">
<path opacity="0.45" d="M20.1624 0.75L6.78908 16.75M8.22606 14.5948C4.76266 12.85 2.37618 9.76724 2.37618 9.76724C2.37618 9.76724 7.02194 3.77414 12.7518 3.77414C14.1546 3.79588 15.5344 4.11518 16.79 4.70861M18.7145 5.7776C20.3852 6.89246 21.8714 8.2371 23.1238 9.76724C23.0212 9.9153 22.9055 10.0549 22.7781 10.1845C22.4616 10.55 22.1306 10.9052 21.785 11.2466C20.2024 12.8259 18.3361 14.2569 16.1715 15.0603C14.6261 15.652 12.9462 15.8574 11.293 15.6569C11.005 15.6305 10.7235 15.5594 10.4599 15.4465M20.4171 3.29827C22.0204 4.33999 23.4765 5.57182 24.75 6.96379M0.75 6.96379C0.75 6.96379 6.12335 0.756895 12.7555 0.756895C14.8449 0.801867 16.8898 1.33741 18.7072 2.31552M14.8 7.18104L14.5672 6.98105C14.0201 6.66228 13.3903 6.49393 12.7482 6.49483C11.8277 6.49483 10.9449 6.84142 10.294 7.45835C9.64315 8.07528 9.2775 8.91203 9.2775 9.7845C9.2768 10.2648 9.38718 10.7394 9.60089 11.1749C9.81459 11.6104 10.1264 11.9962 10.5144 12.3052M16.0587 8.77414C16.167 9.09519 16.2222 9.43019 16.2224 9.76724C16.2224 10.6397 15.8568 11.4765 15.2059 12.0934C14.555 12.7103 13.6723 13.0569 12.7518 13.0569" stroke="#CC7861" stroke-width="1.5" stroke-linecap="round" stroke-linejoin="round"/>
</svg>
