<svg width="33" height="33" viewBox="0 0 33 33" fill="none" xmlns="http://www.w3.org/2000/svg">
<circle cx="16.5" cy="16.5" r="16" stroke="#4B4544"/>
<path d="M17.8148 26.9967C17.8148 25.5649 17.8148 22.7969 17.8148 21.1117H20.8568C20.8716 21.1117 20.8858 21.1058 20.8963 21.0953C20.9067 21.0848 20.9126 21.0706 20.9126 21.0557V17.2969C20.9126 17.2821 20.9067 17.2678 20.8963 17.2573C20.8858 17.2468 20.8716 17.241 20.8568 17.241H17.8181C17.8181 16.0955 17.8181 16.2371 17.8181 15.5195C17.8189 15.2143 17.9401 14.9218 18.1551 14.7059C18.37 14.4901 18.6614 14.3684 18.9654 14.3675H20.9093V10.8721C20.9052 10.7771 20.8653 10.6873 20.7978 10.6207C20.7302 10.5541 20.64 10.5157 20.5454 10.5133H17.6607C16.6435 10.5133 15.668 10.919 14.9487 11.6412C14.2294 12.3634 13.8253 13.3429 13.8253 14.3643C13.8253 14.3643 13.786 14.9238 13.7565 17.2377H10.8062C10.7916 17.2377 10.7771 17.2406 10.7636 17.2462C10.75 17.2518 10.7378 17.26 10.7274 17.2704C10.7171 17.2808 10.7088 17.2932 10.7032 17.3068C10.6976 17.3203 10.6948 17.3349 10.6948 17.3496V20.9965C10.6948 21.0112 10.6976 21.0257 10.7032 21.0393C10.7088 21.0529 10.7171 21.0652 10.7274 21.0756C10.7378 21.086 10.75 21.0942 10.7636 21.0999C10.7771 21.1055 10.7916 21.1084 10.8062 21.1084H13.7336V26.7038M13.7499 26.7136C11.3561 26.0632 9.26912 24.5823 7.85946 22.5336C6.4498 20.485 5.80861 18.0011 6.0497 15.5228C6.28409 13.1226 7.33029 10.8754 9.01407 9.15542C10.6979 7.43545 12.9176 6.34649 15.3038 6.06988C16.7742 5.89896 18.264 6.04244 19.6753 6.49089C21.0865 6.93935 22.3873 7.68262 23.492 8.67186C24.5968 9.66109 25.4805 10.8739 26.0851 12.2305C26.6897 13.5872 27.0015 15.0569 27 16.5432C27.0017 19.1097 26.0699 21.5886 24.3798 23.5141C22.6897 25.4396 20.3575 26.6792 17.8213 27" stroke="#4B4544" stroke-linecap="round" stroke-linejoin="round"/>
</svg>
