<svg width="35" height="35" viewBox="0 0 35 35" fill="none" xmlns="http://www.w3.org/2000/svg">
<rect width="35" height="35" rx="17.5" fill="#F4B5A4"/>
<path d="M24.954 23.9041L24.9613 23.1541H24.954V23.9041ZM25.7662 22.131L25.1541 22.5644L25.1641 22.5785L25.1747 22.5921L25.7662 22.131ZM23.8922 17.6139L24.631 17.4843L24.6293 17.4756L23.8922 17.6139ZM22.2847 9.84325L22.8764 9.38237L22.8749 9.38045L22.2847 9.84325ZM17.5003 7.46728L17.502 6.71727L17.4978 6.71728L17.5003 7.46728ZM12.7159 9.84325L12.1262 9.37989L12.1242 9.38237L12.7159 9.84325ZM11.1126 17.6139L10.3754 17.4758L10.3739 17.4843L11.1126 17.6139ZM9.23864 22.131L9.82606 22.5973L9.83885 22.5812L9.85073 22.5644L9.23864 22.131ZM10.0508 23.9041V23.1541H10.0437L10.0366 23.1542L10.0508 23.9041ZM16.7545 7.46729C16.7545 7.8815 17.0903 8.21729 17.5045 8.21729C17.9188 8.21729 18.2545 7.8815 18.2545 7.46729H17.5045H16.7545ZM18.2545 6C18.2545 5.58579 17.9188 5.25 17.5045 5.25C17.0903 5.25 16.7545 5.58579 16.7545 6H17.5045H18.2545ZM17.5003 28L17.5019 27.25H17.5003L17.5003 28ZM24.954 23.9041L24.9467 24.6541C25.2938 24.6574 25.632 24.5569 25.9214 24.3681L25.5115 23.74L25.1016 23.1119C25.0566 23.1413 25.008 23.1546 24.9613 23.1541L24.954 23.9041ZM25.5115 23.74L25.9214 24.3681C26.2103 24.1795 26.4371 23.9119 26.5798 23.6004L25.8979 23.2881L25.2161 22.9757C25.1883 23.0363 25.147 23.0822 25.1016 23.1119L25.5115 23.74ZM25.8979 23.2881L26.5798 23.6004C26.7224 23.2891 26.7765 22.9441 26.7379 22.6046L25.9927 22.6894L25.2475 22.7743C25.2555 22.8446 25.2439 22.9149 25.2161 22.9757L25.8979 23.2881ZM25.9927 22.6894L26.7379 22.6046C26.6992 22.265 26.5687 21.9405 26.3577 21.6698L25.7662 22.131L25.1747 22.5921C25.2129 22.641 25.2395 22.704 25.2475 22.7743L25.9927 22.6894ZM25.7662 22.131L26.3783 21.6976C25.4975 20.4538 24.899 19.0126 24.6309 17.4843L23.8922 17.6139L23.1535 17.7435C23.4594 19.4872 24.143 21.1366 25.1541 22.5644L25.7662 22.131ZM23.8922 17.6139L24.6293 17.4756C24.514 16.8613 24.4647 16.2268 24.4305 15.5615C24.3971 14.9126 24.3775 14.2046 24.3178 13.525C24.1963 12.1426 23.8988 10.6949 22.8764 9.38237L22.2847 9.84325L21.693 10.3041C22.4558 11.2833 22.7124 12.3912 22.8236 13.6563C22.8802 14.3004 22.8965 14.9392 22.9325 15.6385C22.9676 16.3214 23.0208 17.0367 23.1551 17.7523L23.8922 17.6139ZM22.2847 9.84325L22.8749 9.38045C22.2263 8.55334 21.409 7.88386 20.4798 7.42243L20.1462 8.09416L19.8127 8.76589C20.5377 9.12596 21.1809 9.6511 21.6945 10.3061L22.2847 9.84325ZM20.1462 8.09416L20.4798 7.42243C19.5505 6.96092 18.5335 6.71964 17.502 6.71728L17.5003 7.46728L17.4986 8.21728C18.2977 8.2191 19.0878 8.40589 19.8127 8.76589L20.1462 8.09416ZM17.5003 7.46728L17.4978 6.71728C16.4667 6.72068 15.4503 6.9624 14.5214 7.42373L14.8549 8.09546L15.1885 8.76719C15.9135 8.40714 16.7036 8.2199 17.5028 8.21728L17.5003 7.46728ZM14.8549 8.09546L14.5214 7.42373C13.5926 7.88498 12.7753 8.55372 12.1262 9.37989L12.7159 9.84325L13.3057 10.3066C13.8199 9.65213 14.4634 9.12731 15.1885 8.76719L14.8549 8.09546ZM12.7159 9.84325L12.1242 9.38237C11.1017 10.6951 10.8053 12.1419 10.6849 13.5239C10.6257 14.2031 10.6066 14.9112 10.5737 15.5601C10.5399 16.2255 10.4908 16.8605 10.3755 17.4758L11.1126 17.6139L11.8498 17.7521C11.9841 17.0353 12.037 16.3194 12.0717 15.6362C12.1073 14.9364 12.1231 14.298 12.1792 13.6541C12.2894 12.3897 12.545 11.2831 13.3076 10.3041L12.7159 9.84325ZM11.1126 17.6139L10.3739 17.4843C10.1058 19.0126 9.50729 20.4538 8.62656 21.6976L9.23864 22.131L9.85073 22.5644C10.8618 21.1366 11.5454 19.4872 11.8514 17.7435L11.1126 17.6139ZM9.23864 22.131L8.65123 21.6647C8.43658 21.9351 8.30331 22.2606 8.263 22.6018L9.00782 22.6898L9.75264 22.7778C9.76091 22.7078 9.78785 22.6454 9.82606 22.5973L9.23864 22.131ZM9.00782 22.6898L8.263 22.6018C8.2227 22.9429 8.27644 23.2901 8.41978 23.6031L9.10165 23.2907L9.78352 22.9784C9.75576 22.9178 9.74437 22.8478 9.75264 22.7778L9.00782 22.6898ZM9.10165 23.2907L8.41978 23.6031C8.56321 23.9162 8.79188 24.1849 9.08333 24.3732L9.49038 23.7433L9.89744 23.1134C9.85235 23.0842 9.81118 23.0388 9.78352 22.9784L9.10165 23.2907ZM9.49038 23.7433L9.08333 24.3732C9.37518 24.5618 9.71607 24.6606 10.0651 24.654L10.0508 23.9041L10.0366 23.1542C9.99029 23.1551 9.94213 23.1423 9.89744 23.1134L9.49038 23.7433ZM10.0508 23.9041V24.6541H24.954V23.9041V23.1541H10.0508V23.9041ZM17.5045 7.46729H18.2545V6H17.5045H16.7545V7.46729H17.5045ZM19.6408 25.757L18.8908 25.7584C18.8912 25.9591 18.8537 26.1572 18.7813 26.341L19.479 26.616L20.1768 26.8911C20.3191 26.5301 20.3916 26.1443 20.3908 25.7556L19.6408 25.757ZM19.479 26.616L18.7813 26.341C18.7088 26.5247 18.6034 26.6894 18.4725 26.8265L19.0151 27.3443L19.5577 27.8621C19.8246 27.5824 20.0344 27.2522 20.1768 26.8911L19.479 26.616ZM19.0151 27.3443L18.4725 26.8265C18.3418 26.9636 18.1884 27.0702 18.0222 27.1421L18.3201 27.8304L18.618 28.5187C18.9717 28.3656 19.2907 28.1419 19.5577 27.8621L19.0151 27.3443ZM18.3201 27.8304L18.0222 27.1421C17.8561 27.2141 17.6794 27.2504 17.5019 27.25L17.5003 28L17.4988 28.75C17.8838 28.7508 18.2643 28.6719 18.618 28.5187L18.3201 27.8304ZM17.5003 28L17.5003 27.25C17.3231 27.25 17.1466 27.2134 16.9808 27.1413L16.6818 27.8292L16.3828 28.517C16.7359 28.6705 17.1158 28.75 17.5003 28.75L17.5003 28ZM16.6818 27.8292L16.9808 27.1413C16.8149 27.0692 16.6618 26.9625 16.5313 26.8255L15.9882 27.3428L15.4451 27.86C15.7115 28.1397 16.0298 28.3636 16.3828 28.517L16.6818 27.8292ZM15.9882 27.3428L16.5313 26.8255C16.4008 26.6885 16.2956 26.5239 16.2233 26.3403L15.5255 26.615L14.8276 26.8897C14.9695 27.2504 15.1788 27.5804 15.4451 27.86L15.9882 27.3428ZM15.5255 26.615L16.2233 26.3403C16.1511 26.1567 16.1137 25.9589 16.1141 25.7584L15.3641 25.757L14.6141 25.7556C14.6133 26.1438 14.6856 26.5291 14.8276 26.8897L15.5255 26.615Z" fill="#4B4544"/>
</svg>
