<svg width="35" height="35" viewBox="0 0 35 35" fill="none" xmlns="http://www.w3.org/2000/svg">
<rect width="35" height="35" rx="17.5" fill="#F4B5A4"/>
<path d="M10.8165 20.0251V23.7273C10.8165 24.8605 11.2547 25.9473 12.0348 26.7485C12.8148 27.5498 13.8727 28 14.9758 28H20.8469C21.3928 28 21.9333 27.8894 22.4376 27.6746C22.9419 27.4598 23.4 27.145 23.7857 26.7482C24.1715 26.3513 24.4773 25.8803 24.6856 25.3619C24.894 24.8435 25.0008 24.2881 25 23.7273V10.2727C25.0004 9.71204 24.8933 9.15676 24.6848 8.63859C24.4763 8.12043 24.1705 7.64951 23.7848 7.25275C23.3992 6.85599 22.9412 6.54115 22.4371 6.3262C21.933 6.11126 21.3927 6.00041 20.8469 6H14.9758C13.8729 6.00083 12.8155 6.45126 12.0356 7.25237C11.2558 8.05348 10.8174 9.13979 10.8165 10.2727V13.9749M8 17H18.9641M18.9641 17L15.4182 14.2351M18.9641 17L15.4182 19.7649M22.0644 10.2445V23.7555" stroke="#4B4544" stroke-width="1.5" stroke-linecap="round" stroke-linejoin="round"/>
</svg>
