<svg width="35" height="35" viewBox="0 0 35 35" fill="none" xmlns="http://www.w3.org/2000/svg">
<rect width="35" height="35" rx="17.5" fill="#F4B5A4"/>
<path d="M8.02298 16.9472C8.21716 14.5109 9.32207 12.2371 11.1176 10.579C12.9131 8.92084 15.2674 8.00004 17.7115 8C20.1515 8.00035 22.5021 8.91807 24.2969 10.5711C26.0917 12.2241 27.1993 14.4915 27.4 16.9232M26.7513 21.2132C25.8395 23.524 24.8294 24.8168 21.9469 26.636M26.7513 21.2132C26.4833 21.1315 26.2584 20.947 26.126 20.7001C25.9935 20.4531 25.9642 20.1638 26.0444 19.8953C26.2257 19.2954 26.3171 18.672 26.3155 18.0454C26.3155 17.9068 26.3429 17.7695 26.396 17.6414C26.4492 17.5134 26.5271 17.3971 26.6253 17.2992C26.7235 17.2013 26.8401 17.1238 26.9683 17.071C27.0965 17.0183 27.2339 16.9914 27.3725 16.9918C27.511 16.9914 27.6482 17.0183 27.7763 17.0711C27.9043 17.1239 28.0206 17.2015 28.1186 17.2994C28.2165 17.3973 28.2941 17.5136 28.3469 17.6417C28.3997 17.7697 28.4266 17.9069 28.4261 18.0454C28.4328 18.878 28.3171 19.7071 28.0829 20.5062C28.018 20.7233 27.8847 20.9137 27.703 21.0491C27.5212 21.1845 27.3006 21.2577 27.074 21.2578C26.9649 21.2577 26.8563 21.2427 26.7513 21.2132ZM17.8453 19.48V18.7936C17.8456 18.4957 17.9256 18.2033 18.0771 17.9468C18.2286 17.6903 18.4337 17.4882 18.7068 17.335C18.9798 17.1818 19.2071 16.9586 19.3651 16.6883C19.5232 16.4181 19.6063 16.1106 19.606 15.7975C19.5988 15.3331 19.411 14.8897 19.0822 14.5616C18.7535 14.2335 18.3098 14.0465 17.8453 14.0403C17.3793 14.0403 16.9324 14.2254 16.6028 14.555C16.2733 14.8845 16.0882 15.3314 16.0882 15.7975V16.1853M8.35245 21.2578C8.1258 21.2577 7.90522 21.1845 7.72345 21.0491C7.54168 20.9137 7.40844 20.7233 7.34347 20.5062C7.10927 19.7071 6.99364 18.878 7.00027 18.0454C7.00027 17.9068 7.02763 17.7695 7.08079 17.6414C7.13395 17.5134 7.21188 17.3971 7.31008 17.2992C7.40828 17.2013 7.52484 17.1238 7.65307 17.071C7.7813 17.0183 7.91866 16.9914 8.05731 16.9918C8.1958 16.9914 8.33301 17.0183 8.46104 17.0711C8.58908 17.1239 8.70544 17.2015 8.80336 17.2994C8.90129 17.3973 8.97886 17.5136 9.03165 17.6417C9.08444 17.7697 9.11141 17.9069 9.11095 18.0454C9.11104 18.6719 9.20235 19.2951 9.38205 19.8953C9.42223 20.0282 9.43581 20.1678 9.42202 20.306C9.40823 20.4442 9.36736 20.5783 9.3017 20.7007C9.23604 20.8231 9.14687 20.9314 9.03936 21.0193C8.93184 21.1072 8.80807 21.1731 8.67508 21.2132C8.5702 21.2432 8.46156 21.2583 8.35245 21.2578ZM22.4717 22.1055C23.1171 21.461 23.6188 20.6871 23.9438 19.8348C24.2687 18.9825 24.4096 18.0711 24.357 17.1605C24.3045 16.2499 24.0598 15.3607 23.6391 14.5514C23.2183 13.7421 22.6309 13.031 21.9157 12.465C20.7784 11.5675 19.3732 11.0768 17.9245 11.0712C16.4757 11.0656 15.0668 11.5454 13.9226 12.4341C12.6953 13.3935 11.8555 14.7635 11.5573 16.2924C11.2591 17.8213 11.5225 19.4064 12.2992 20.7567L11.1324 24.1647C11.1257 24.184 11.1244 24.2047 11.1289 24.2247C11.1333 24.2446 11.1432 24.2629 11.1575 24.2775C11.1718 24.2921 11.1898 24.3025 11.2096 24.3074C11.2294 24.3123 11.2502 24.3116 11.2696 24.3054L14.6811 23.1351C15.912 23.8447 17.3425 24.1284 18.7511 23.9423C20.1596 23.7561 21.4674 23.1105 22.4717 22.1055ZM22.0358 27.0544C22.0358 27.6211 21.5764 28.0806 21.0096 28.0806C20.4429 28.0806 19.9835 27.6211 19.9835 27.0544C19.9835 26.4877 20.4429 26.0282 21.0096 26.0282C21.5764 26.0282 22.0358 26.4877 22.0358 27.0544Z" stroke="#4B4544" stroke-width="1.3" stroke-miterlimit="10"/>
<circle cx="17.7118" cy="20.6376" r="0.686399" fill="#4B4544"/>
</svg>
