<svg width="35" height="35" viewBox="0 0 35 35" fill="none" xmlns="http://www.w3.org/2000/svg">
<rect width="35" height="35" rx="17.5" fill="#F4B5A4"/>
<path d="M24.8916 19.1745L27.7121 20.8323C27.776 20.868 27.8324 20.916 27.8781 20.9739C27.9237 21.0317 27.9577 21.0982 27.978 21.1694C27.9983 21.2406 28.0047 21.3152 27.9966 21.3889C27.9885 21.4626 27.9663 21.534 27.931 21.599L25.7835 25.3831C25.7101 25.5117 25.5897 25.6055 25.4486 25.6442C25.3075 25.6828 25.157 25.6632 25.0301 25.5895L22.2129 23.9513C21.6086 24.4465 20.9317 24.8423 20.207 25.1242V28.4365C20.2074 28.5103 20.1935 28.5835 20.166 28.6519C20.1386 28.7202 20.0981 28.7824 20.0469 28.8347C19.9957 28.8871 19.9349 28.9287 19.8679 28.957C19.8009 28.9854 19.729 29 19.6565 29H15.3646C15.2919 29 15.2199 28.9854 15.1527 28.9571C15.0855 28.9288 15.0244 28.8873 14.973 28.8349C14.9216 28.7826 14.8808 28.7205 14.853 28.6521C14.8252 28.5838 14.8108 28.5105 14.8108 28.4365V25.1242C14.0864 24.8415 13.4097 24.4458 12.805 23.9513L9.99097 25.5895C9.86404 25.6632 9.7136 25.6828 9.57247 25.6442C9.43134 25.6055 9.31095 25.5117 9.23755 25.3831L7.09003 21.599C7.01758 21.4698 6.99825 21.3167 7.03625 21.1731C7.07424 21.0295 7.16649 20.907 7.29287 20.8323L10.1133 19.1745C10.0505 18.7857 10.0171 18.3925 10.0135 17.9984C10.0173 17.6054 10.0506 17.2133 10.1133 16.8255L7.29287 15.1677C7.22839 15.1326 7.17137 15.085 7.12509 15.0274C7.07881 14.9698 7.04419 14.9034 7.02324 14.8322C7.00228 14.7609 6.9954 14.6861 7.003 14.6121C7.01059 14.5381 7.03252 14.4664 7.06749 14.4011L9.21501 10.617C9.28841 10.4884 9.4088 10.3945 9.54993 10.3559C9.69106 10.3172 9.8415 10.3369 9.96843 10.4106L12.7824 12.0487C13.3879 11.5544 14.0644 11.1577 14.7883 10.8725V7.56027C14.7892 7.41138 14.8479 7.26886 14.9516 7.16389C15.0554 7.05892 15.1958 7 15.3421 7H19.6403C19.7864 7 19.9264 7.05903 20.0297 7.16409C20.1329 7.26916 20.1909 7.41168 20.1909 7.56027V10.8725C20.9152 11.157 21.5918 11.5537 22.1968 12.0487L25.014 10.4106C25.1409 10.3369 25.2914 10.3172 25.4325 10.3559C25.5736 10.3945 25.694 10.4884 25.7674 10.617L27.9149 14.4011C27.9874 14.5302 28.0067 14.6833 27.9687 14.8269C27.9307 14.9705 27.8385 15.093 27.7121 15.1677L24.8916 16.8255C24.9532 17.2134 24.9856 17.6055 24.9883 17.9984C24.9857 18.3924 24.9534 18.7856 24.8916 19.1745Z" stroke="#4B4544" stroke-width="1.5" stroke-linecap="round" stroke-linejoin="round"/>
</svg>
