<svg width="35" height="35" viewBox="0 0 35 35" fill="none" xmlns="http://www.w3.org/2000/svg">
<rect width="35" height="35" rx="17.5" fill="#F4B5A4"/>
<path d="M5.75966 24.2842L5.84288 24.7009C6.04738 25.72 6.64814 26.6162 7.51317 27.1925C8.3782 27.7688 9.43677 27.9782 10.4562 27.7746L27.856 24.2999C28.8754 24.0964 29.7723 23.4965 30.3496 22.6321C30.9269 21.7678 31.1374 20.7096 30.9348 19.6902L29.0415 10.2091C28.9407 9.70413 28.7413 9.22396 28.4549 8.79601C28.1684 8.36807 27.8004 8.00075 27.372 7.71499C26.9435 7.42924 26.463 7.23063 25.9578 7.13057C25.4525 7.03051 24.9326 7.03091 24.4276 7.13177L7.02776 10.6065C6.52269 10.7073 6.04241 10.9066 5.61437 11.1931C5.18633 11.4795 4.81891 11.8475 4.53308 12.2759C4.24724 12.7042 4.04856 13.1847 3.94844 13.6899C3.84833 14.195 3.84871 14.7149 3.94955 15.2199L5.75024 24.237M4.01615 15.5156L29.09 10.5085M8.46456 19.4626L10.5453 19.0471M9.18324 23.0615L14.2147 22.0568M20.7686 20.748L22.8312 20.3361M25.4194 19.8192L27.482 19.4073" stroke="#4B4544" stroke-width="1.5" stroke-linecap="round" stroke-linejoin="round"/>
</svg>
