<svg width="35" height="35" viewBox="0 0 35 35" fill="none" xmlns="http://www.w3.org/2000/svg">
<rect width="35" height="35" rx="17.5" fill="#F4B5A4"/>
<path d="M21.5556 11.4747H25.5387C25.7306 11.4747 25.9206 11.5121 26.0979 11.585C26.2752 11.6578 26.4363 11.7646 26.572 11.8992C26.7077 12.0337 26.8153 12.1935 26.8888 12.3694C26.9622 12.5452 27 12.7337 27 12.924V23.5506C27 23.7409 26.9622 23.9294 26.8888 24.1053C26.8153 24.2811 26.7077 24.4409 26.572 24.5755C26.4363 24.71 26.2752 24.8168 26.0979 24.8896C25.9206 24.9625 25.7306 25 25.5387 25H9.46123C9.07367 25 8.70199 24.8473 8.42795 24.5755C8.1539 24.3036 8 23.935 8 23.5506V12.924C8 12.5396 8.1539 12.171 8.42795 11.8992C8.70199 11.6273 9.07367 11.4747 9.46123 11.4747H13.6532C13.6162 11.3878 13.6161 9.91505 13.6161 9.91505C13.6157 9.79476 13.6392 9.67555 13.6854 9.56434C13.7316 9.45312 13.7996 9.35208 13.8854 9.26703C13.9711 9.18197 14.073 9.11457 14.1851 9.06874C14.2973 9.02291 14.4174 8.99956 14.5387 9.00001H20.6734C20.9181 9.00001 21.1527 9.0964 21.3257 9.26801C21.4988 9.43961 21.5959 9.67237 21.5959 9.91505C21.5959 9.91505 21.5791 11.3878 21.5556 11.4747Z" stroke="#4B4544" stroke-width="1.5" stroke-linecap="round" stroke-linejoin="round"/>
</svg>
