<svg width="35" height="37" viewBox="0 0 35 37" fill="none" xmlns="http://www.w3.org/2000/svg">
<path d="M21.871 7.12372C21.8601 6.90463 21.8601 6.68509 21.871 6.466C22.0227 5.0314 22.6648 3.70652 23.6747 2.74441C24.6847 1.78231 25.9917 1.25032 27.3463 1.25C28.0706 1.249 28.788 1.40023 29.4575 1.69496C30.1269 1.98969 30.7353 2.42221 31.2478 2.96773C31.7603 3.51325 32.1669 4.1611 32.4443 4.87422C32.7217 5.58735 32.8645 6.35174 32.8645 7.12372C32.8645 7.89571 32.7217 8.66009 32.4443 9.37322C32.1669 10.0863 31.7603 10.7342 31.2478 11.2797C30.7353 11.8252 30.1269 12.2578 29.4575 12.5525C28.788 12.8472 28.0706 12.9984 27.3463 12.9974C26.5788 12.9984 25.8196 12.8281 25.1176 12.4975C24.4156 12.1669 23.7863 11.6832 23.2703 11.0777M13.712 34.2895L1.71387 21.502L15.0324 7.29964L27.0951 6.00717C27.2501 5.98899 27.4068 6.00812 27.5539 6.06319C27.701 6.11826 27.8345 6.20778 27.9447 6.32525C28.0549 6.44272 28.139 6.58508 28.1907 6.74182C28.2424 6.89856 28.2603 7.06571 28.2433 7.23084L27.0305 20.0871L13.712 34.2895Z" stroke="#4B4544" stroke-width="2.5" stroke-miterlimit="10"/>
<path d="M23.787 14.5799C25.2772 14.5799 26.4852 13.3095 26.4852 11.7424C26.4852 10.1754 25.2772 8.90503 23.787 8.90503C22.2969 8.90503 21.0889 10.1754 21.0889 11.7424C21.0889 13.3095 22.2969 14.5799 23.787 14.5799Z" fill="#4B4544"/>
</svg>
