<svg width="29" height="45" viewBox="0 0 29 45" fill="none" xmlns="http://www.w3.org/2000/svg">
<path d="M15.7213 31.637L14.4028 20.3931C14.2993 20.849 14.2796 21.2676 14.2289 21.7315L13.6784 26.5698L12.223 37.5905C12.1979 37.7784 12.1976 37.9695 12.1708 38.1573L11.4842 42.9753C11.3154 43.9769 11.5117 44.3797 10.2639 44.3818L5.30978 44.374C3.63203 44.2981 2.26768 43.4906 0.948478 42.546C0.0505869 41.9031 -0.064819 42.0121 0.0253685 40.9301L0.158025 38.5895C0.164072 38.4861 0.190884 38.3895 0.198665 38.2893L0.342009 35.1966C0.35204 35.035 0.385978 34.8801 0.396806 34.7191L0.533119 31.927C0.54165 31.7758 0.5739 31.6311 0.583228 31.4795L0.878212 26.1647L0.987009 22.9064L1.08793 20.3749L1.19434 19.0323C1.21159 18.7441 1.20156 18.4511 1.20221 18.1623L1.20573 2.53171C1.20512 1.80643 0.888947 0.174769 1.77976 0.00424218L26.8825 0C27.003 0.00270937 27.1008 0.0128906 27.208 0.0718265L27.2438 0.0928734C27.3343 0.145369 27.4576 0.25912 27.5014 0.355884L27.5114 0.383522C27.6847 0.770161 27.5711 1.85939 27.5711 2.32587L27.5778 19.3063C27.5826 19.5595 27.6414 19.7991 27.6556 20.0476L27.6862 21.4708C27.7055 21.9266 27.7307 22.3848 27.7498 22.846L27.7956 23.8964C27.8063 24.0763 27.8367 24.2559 27.843 24.4357L27.973 27.6662C27.9852 27.8544 28.0257 28.0381 28.0361 28.2273L28.0652 29.6282L28.2522 32.9651C28.2591 33.0866 28.2918 33.2068 28.2975 33.3242L28.3619 35.0359C28.4065 35.7475 28.4855 36.4574 28.5122 37.1722L28.5405 38.3991C28.5782 38.9246 28.5737 39.6807 28.6514 40.1354L28.6569 40.167C28.6955 40.3991 28.6894 40.6376 28.7063 40.8718C28.7552 41.5513 28.8657 41.7487 28.2729 42.2038L27.8693 42.5196C25.9173 43.9758 24.7211 44.3826 22.3855 44.3839L18.8035 44.3846C17.7246 44.3844 17.5533 44.5195 17.3504 43.2687L16.5648 37.9912L15.7213 31.637ZM3.88107 1.31162L3.02804 1.31521C2.86876 1.31593 2.70085 1.30541 2.54279 1.3242L2.54326 3.69697L6.18517 3.69857L7.2451 3.71465C7.54801 2.85837 7.46546 2.2259 7.45524 1.32941L3.88107 1.31162ZM8.81007 1.31542L8.82413 2.10607C8.8247 2.36628 8.83065 2.62959 8.77885 2.88575L8.65501 3.69918L18.7401 3.69843C19.0998 3.69969 19.4988 3.66585 19.8551 3.70269L20.1091 3.71165C19.9882 2.90283 19.9769 2.13269 19.9777 1.313L8.81007 1.31542ZM24.1674 1.31162L21.2937 1.32662C21.2895 2.1099 21.2074 2.97482 21.4897 3.71662L23.4515 3.69857L26.2235 3.71113L26.2152 1.33223L24.1674 1.31162ZM2.55151 5.03872L2.54016 6.8991C2.54021 7.2133 2.51312 7.55596 2.54992 7.86688C3.72174 7.88994 4.69449 7.85858 5.61652 6.9839L5.65388 6.94733C6.12024 6.39641 6.3722 5.74607 6.56781 5.05391C6.12877 5.00422 5.65159 5.03868 5.20848 5.03854L2.55151 5.03872ZM8.01231 5.03802C7.79026 5.63483 7.61143 6.25733 7.33332 6.83554C6.77204 8.00254 5.53777 8.94299 4.24421 9.14647C3.68954 9.23376 3.10266 9.18327 2.54138 9.2076L1.34218 41.1928C3.58927 42.7761 4.10813 43.0331 7.02892 43.0289C7.34312 43.0288 10.1042 43.0512 10.1577 43.0085L11.1658 35.5981L13.1462 19.3437L13.5652 15.0339C13.6282 14.3106 13.6771 13.6183 13.6241 12.8874C13.6096 12.6877 13.5406 12.5107 13.536 12.3071L13.5252 5.6083C13.5248 5.50902 13.5468 5.1028 13.4961 5.04205L8.01231 5.03802ZM14.85 5.03887C14.8094 5.54737 14.8181 6.0583 14.8177 6.56919L14.8185 10.4362C14.8187 10.7856 14.8054 11.1413 14.8391 11.4892C15.2254 11.3901 15.4823 11.2009 15.7554 10.9153C16.1451 10.3834 16.2655 10.0711 16.2709 9.43602L16.2721 5.04407L14.85 5.03887ZM17.6188 5.03858L17.5985 9.22176C17.5944 10.7693 16.9955 12.1898 15.4007 12.7155L14.9996 12.814L15.5709 19.0281L17.4713 34.8952L18.594 42.6648C18.6048 42.7955 18.6012 42.905 18.6517 43.03L23.0203 43.0295C23.5851 43.0295 24.0757 42.971 24.6221 42.7996C25.664 42.4392 26.5088 41.8675 27.3865 41.2075C27.3789 40.9697 27.3357 40.7414 27.3314 40.4992L27.2235 37.9839L26.9663 33.636C26.9285 32.8515 26.882 32.0711 26.8505 31.2867L26.7847 30.4854L26.5986 26.9986L26.5715 25.5452L26.4014 22.5976L26.2588 19.6077L26.2467 9.89207C26.246 9.67213 26.2676 9.42416 26.235 9.20891C25.5911 9.13082 25.0473 9.23891 24.3909 9.08713C22.5682 8.66568 21.5824 7.46727 21.0547 5.75465L20.9302 5.30915C20.9102 5.22426 20.8995 5.11232 20.8484 5.04079L17.6188 5.03858ZM22.2332 5.03774C22.3465 5.37876 22.4386 5.73852 22.5866 6.07265C23.3037 7.6911 24.6787 7.88966 26.2095 7.87147L26.2124 5.05255C25.7862 5.00155 25.3155 5.03854 24.8847 5.03826L22.2332 5.03774Z" fill="#DCBEB6"/>
</svg>
