<svg width="38" height="51" viewBox="0 0 38 51" fill="none" xmlns="http://www.w3.org/2000/svg">
<path d="M3.92361 48.2774C3.13223 47.3054 2.05323 46.6655 0.79092 46.5074C-0.699451 46.3207 0.313859 44.6182 0.639616 43.8809L8.458 27.1338C9.23014 25.356 9.60284 24.6977 9.60333 22.7836C9.60375 21.1041 9.3953 19.3686 8.54834 17.8782C8.18332 17.236 7.67924 16.6965 7.23784 16.1069C6.10814 14.598 5.49707 12.6754 5.84098 10.8072C5.89845 10.495 6.0192 10.1589 6.02537 9.84483L6.02623 2.80923C6.02677 1.72794 6.20294 1.0935 7.24166 0.430706C9.04414 -0.719441 11.2658 0.568696 11.2705 2.69983L11.2736 5.95435L12.243 5.98093C14.9395 6.24539 16.8435 7.58205 18.5012 9.56586L18.9983 8.9726C20.4765 7.31426 22.4599 6.22287 24.6991 5.96964C25.0266 5.93262 25.367 5.95999 25.6974 5.93858L25.7105 3.19701C25.7109 2.83837 25.6635 2.41336 25.7354 2.06651C25.9664 0.951326 26.9733 0.115845 28.1266 0.0344811C29.4059 -0.0681664 30.7674 0.90657 30.9456 2.18241C30.9717 2.36907 30.9559 2.57409 30.9559 2.7629L30.9568 8.97381C30.9569 9.47532 30.9439 10.0006 31.0823 10.4885C31.652 12.4966 30.8246 14.7536 29.5605 16.3318C28.5965 17.5353 27.9372 18.4415 27.6179 20.009C27.3314 21.4147 27.1728 23.6371 27.6399 24.9175L29.1429 28.5135L37.1032 45.4163C37.3187 45.8088 37.0655 46.2698 36.6851 46.4493L36.6535 46.4635C36.4309 46.5673 36.1124 46.5111 35.8655 46.5711C34.7251 46.8479 33.7822 47.3787 33.0528 48.2991C32.0794 49.5274 31.8644 50.3062 29.9446 50.5993C29.0718 50.7325 28.2499 50.2465 27.4246 50.0458C26.4051 49.7981 25.1004 49.6691 24.0714 49.9351C23.1228 50.1802 22.5783 50.6158 21.487 50.6011C20.9114 50.5934 20.3833 50.3675 19.8334 50.2355C18.0703 49.8123 16.832 50.7112 15.2331 50.6175C14.5452 50.5772 13.9645 50.2641 13.3295 50.0512C12.1049 49.6407 10.5265 49.7931 9.28568 50.1325C8.73434 50.2832 8.22193 50.5421 7.64588 50.5984L7.60361 50.6023C6.48197 50.7215 5.2182 50.0566 4.56068 49.2027C4.33224 48.906 4.14549 48.5794 3.92361 48.2774ZM8.54366 1.58694C7.60797 1.72528 7.55259 2.2659 7.55071 3.06294L7.5491 6.30709C7.5491 6.719 7.53717 7.13475 7.56999 7.54545L8.25024 7.01895C8.54495 6.83364 8.84026 6.63568 9.15898 6.49187C9.35266 6.40449 9.58598 6.3574 9.76263 6.25367L9.75973 3.75052C9.75796 2.77868 9.97678 1.58428 8.54366 1.58694ZM28.1838 1.58723C26.9718 1.77065 27.2131 2.93304 27.2129 3.82699L27.2123 6.25087C27.3647 6.368 27.6242 6.40881 27.8071 6.48654C28.222 6.66268 28.6425 6.91506 28.9858 7.20436C29.1473 7.32418 29.2954 7.4452 29.438 7.58642L29.4322 3.00035C29.4313 2.19384 29.1512 1.53405 28.2023 1.58536L28.1838 1.58723ZM11.3378 7.52172L10.628 7.63499C9.06434 7.97434 7.68149 9.35445 7.38404 10.9127L7.33108 11.1881C7.10287 12.407 7.63138 13.9741 8.33027 14.9629C8.74776 15.5535 9.26006 16.0681 9.64828 16.6802C10.3412 17.7728 10.7512 19.0263 10.9556 20.2924L26.0185 20.2985C26.1429 19.2408 26.5257 18.2718 26.9687 17.3102C27.5424 16.2679 28.1514 15.6969 28.7667 14.7782C30.247 12.5679 29.9802 9.37085 27.4793 8.04511L27.0067 7.82705C24.0499 6.71077 21.2458 8.54113 19.5191 10.7984C18.6925 11.8791 18.46 12.3668 17.5749 10.9919L17.161 10.4029C15.7961 8.64565 13.6548 7.35851 11.3378 7.52172ZM11.1115 21.9414C11.1038 22.5194 11.17 23.087 11.1135 23.6617L25.8789 23.6671L25.849 21.9479L11.1115 21.9414ZM25.9395 25.3217L10.8798 25.3289C10.7451 25.5125 10.6821 25.8571 10.5879 26.0778L9.14539 29.3971L3.34235 41.6996L4.58162 41.9553C5.2058 42.1115 5.86918 42.3812 6.43857 42.6786C8.18681 43.5919 8.76023 44.7741 11.0411 44.7625C11.7303 44.759 11.8989 44.6592 12.5053 44.3164C14.2965 43.4349 15.2196 43.9014 16.8397 44.4801C20.0633 45.6315 21.424 42.7691 24.474 44.3331C25.3663 44.7907 25.7155 44.9512 26.8213 44.7133C28.298 44.3957 28.9093 43.6814 30.1304 42.9303C30.9347 42.4356 32.6824 41.7016 33.6753 41.7055L28.1357 30.0553L26.1653 25.4212C26.1185 25.294 26.07 25.3129 25.9395 25.3217ZM34.3372 43.173C32.9131 43.3464 31.7087 43.7395 30.5113 44.5323L29.6151 45.1802C28.3659 46.0365 26.9321 46.4235 25.4132 46.2857C25.2403 46.2699 25.0292 46.1786 24.8626 46.1952L24.8591 48.1912C24.8566 48.2282 24.8571 48.2151 24.8662 48.2569L25.7776 48.2676C25.9549 48.2704 26.1754 48.2565 26.3413 48.321C26.8896 48.358 27.4502 48.4538 27.9807 48.5959C29.0017 48.8695 29.9425 49.4177 30.9142 48.5641C31.2861 48.2374 31.51 47.7837 31.7977 47.3894C32.6789 46.1817 33.8884 45.5455 35.2856 45.1021L34.7796 44.0558C34.6599 43.7768 34.5744 43.4181 34.4016 43.1712L34.3372 43.173ZM2.64421 43.1834L1.77399 45.1145C3.80604 45.793 4.66584 46.5249 5.77454 48.2132C6.54637 49.3885 7.74144 48.9912 8.78526 48.6713C9.3634 48.4941 10.0146 48.363 10.6182 48.3311L12.0862 48.2737L12.1026 46.24C10.5158 46.425 8.69309 46.1973 7.40145 45.2032C6.3001 44.3556 5.24855 43.6637 3.84272 43.368C3.44435 43.2842 3.04141 43.2571 2.64421 43.1834ZM22.4237 45.3852C21.7886 45.4337 21.3449 45.6769 20.7595 45.8888C19.4638 46.3575 17.9671 46.393 16.6379 46.0307C15.7739 45.7952 14.9981 45.2082 14.0562 45.4435L14.0124 45.4538C13.4675 45.59 13.5459 47.8807 13.6417 48.4545C13.7664 48.6031 14.1472 48.7282 14.3341 48.8053C15.4671 49.2224 15.8249 49.0252 16.9837 48.792C18.0962 48.5681 19.247 48.5526 20.3623 48.7742C21.4986 49 22.1708 49.3215 23.2909 48.4673C23.4069 47.949 23.3999 45.7149 23.0824 45.5138C22.9006 45.3986 22.6355 45.3778 22.4237 45.3852Z" fill="#CC7861"/>
</svg>
