<svg width="58" height="43" viewBox="0 0 58 43" fill="none" xmlns="http://www.w3.org/2000/svg">
<path d="M13.7792 33.0497V41.25H43.8704V32.4923M43.8703 14.4006V8.28822C43.8703 6.42156 43.1151 4.63135 41.7706 3.31142C40.4261 1.99148 38.6026 1.25 36.7012 1.25H7.40865C5.77593 1.25747 4.2124 1.89812 3.05878 3.03245C1.90516 4.16677 1.25506 5.70274 1.25 7.30566V13.0874H9.41995M13.7792 33.8433V7.30566C13.7741 5.70111 13.1226 4.1637 11.9669 3.0291C10.8112 1.89451 9.2452 1.25498 7.61081 1.25M19.7262 10.669H28.2233M19.7262 19.0865H31.5914M19.7262 28.9779H37.1631M51.4919 13.5881C50.2299 13.109 48.8593 12.9747 47.5258 13.1992C46.1922 13.4238 44.9457 13.9989 43.9185 14.8635C42.8914 13.9989 41.6447 13.4238 40.3112 13.1992C38.9777 12.9747 37.6071 13.109 36.3452 13.5881C35.4294 13.9371 34.5926 14.4599 33.8827 15.1264C33.1728 15.793 32.6036 16.5903 32.2077 17.4729C31.8118 18.3555 31.5971 19.3062 31.5755 20.2703C31.554 21.2345 31.7261 22.1934 32.0822 23.0922C33.5449 26.7956 43.9089 32.7663 43.9089 32.7663C44.3323 32.5301 54.273 26.805 55.7357 23.1017C56.0937 22.2035 56.268 21.2448 56.2485 20.2805C56.229 19.3161 56.0161 18.365 55.6219 17.4815C55.2278 16.5979 54.6602 15.7993 53.9515 15.1313C53.2429 14.4632 52.4071 13.9389 51.4919 13.5881Z" stroke="#4B4544" stroke-width="2.5" stroke-miterlimit="10"/>
</svg>
