<svg width="35" height="40" viewBox="0 0 35 40" fill="none" xmlns="http://www.w3.org/2000/svg">
<path d="M11.444 2.99044C13.3026 1.48681 15.4392 0 17.9514 0C20.1172 0.0336275 22.4343 0.75902 23.866 2.44039C23.8879 3.3123 23.9026 4.18902 23.8074 5.05853C25.0684 5.28912 26.3611 5.82956 27.1465 6.87201C28.1733 8.13784 29.2757 9.39407 29.8562 10.9385C31.2026 14.2941 31.6392 17.9138 31.9855 21.4807C32.0538 22.1893 32.5513 22.7418 32.766 23.4047C33.5245 25.6842 34.7148 27.9108 34.6587 30.3704C34.6855 31.8764 33.8245 33.2119 33.7489 34.7011C33.6831 35.256 33.7465 35.8373 33.5635 36.3729C32.9953 37.0575 32.1587 37.4778 31.3343 37.7949C30.1172 38.9622 28.3196 38.9934 26.7294 39.0631C21.6831 39.0703 16.6318 38.7628 11.5855 39.0439C9.9733 39.0823 8.34403 39.1279 6.74647 38.8661C5.76355 38.65 4.93184 38.0639 4.08062 37.5643C3.28794 37.0935 2.59525 36.4185 2.25379 35.5562C1.36354 33.2551 1.1294 30.7811 0.673301 28.3768C0.473301 28.211 0.263545 28.0573 0.0440329 27.9132C-0.160845 26.9044 0.390374 25.9748 0.848911 25.1149C1.08062 24.9684 1.30745 24.8147 1.53184 24.6561C1.17818 24.3799 0.905008 24.0292 0.724521 23.6233C1.0733 23.1093 1.52696 22.6385 1.63915 22.0044C1.66842 22.564 1.70013 23.1213 1.73672 23.6809C1.83915 23.2798 1.94159 22.8787 2.03915 22.4776C2.32696 22.3959 2.90501 22.2326 3.19525 22.1533C2.74891 22.516 2.55623 23.018 2.57818 23.5728C3.34159 23.5656 4.10013 23.4335 4.86598 23.4792C4.96354 20.813 5.00257 18.1348 5.43428 15.4975C5.59037 14.6183 5.69281 13.7008 6.1733 12.9226C6.24159 13.1579 6.37818 13.6263 6.44647 13.8617C6.42452 13.5711 6.38306 12.9922 6.36111 12.7016L6.54403 12.728C7.24647 10.5999 8.99281 8.95691 10.9611 7.92167C12.5294 7.21069 14.2953 7.08579 16.0001 7.12662C14.6343 7.34039 13.2172 7.35961 11.9245 7.89525C10.7172 8.28196 9.80013 9.16348 8.88062 9.97775C8.95623 10.0906 9.03428 10.2035 9.11476 10.3164C9.93671 9.10343 11.444 8.60382 12.7855 8.16186C15.2148 7.37642 17.7977 7.57819 20.3074 7.39083C19.4977 7.29476 18.6782 7.28755 17.8757 7.13863C19.8416 7.06177 21.7928 7.40525 23.6977 7.85441C24.0123 7.89044 24.3318 7.90966 24.6513 7.90726C24.6855 8.07539 24.7587 8.41647 24.7928 8.58461C24.7928 8.44049 24.7928 8.15466 24.7928 8.01054C26.0855 8.65426 27.4172 9.4373 28.1392 10.7272C28.7928 11.7504 29.1782 12.9033 29.7221 13.9794C30.244 15.0531 30.6513 16.1988 30.7099 17.3998C30.8587 19.3526 31.2879 21.3246 31.0123 23.2822C31.3879 23.1885 31.7635 23.0997 32.144 23.0156C31.8928 22.6145 31.6392 22.2013 31.5684 21.7257C31.0099 19.1821 31.0733 16.4799 29.9611 14.0755C30.0513 13.5975 29.8026 12.9562 30.3123 12.6535C30.1611 12.7544 29.8611 12.9562 29.7099 13.0571C29.9782 12.1539 29.3879 11.3012 29.0855 10.475C28.0196 8.40686 26.4026 6.29074 23.9953 5.72147C22.8148 5.89201 21.7953 5.11377 20.6221 5.1498C18.105 5.05853 15.5806 5.0177 13.0635 5.08255C11.5367 5.55574 9.91232 6.02172 8.70501 7.105C6.69281 9.35804 5.61476 12.2812 5.12452 15.2068C4.61964 17.6808 4.5294 20.2077 4.35867 22.7177C4.29769 22.8595 4.18062 23.1405 4.12208 23.2822C3.70745 23.2558 3.29525 23.3254 2.88062 23.287C3.0855 22.8114 3.38306 22.4151 3.90989 22.283C4.05867 18.2693 4.33915 14.1403 5.9294 10.3909C6.62696 8.98333 7.50745 7.64784 8.5294 6.44686C9.23428 5.68304 10.266 5.37559 11.2172 5.03931C11.2879 4.35476 11.3611 3.6726 11.444 2.99044ZM14.0587 1.90235C12.8123 2.40436 12.0879 3.62216 11.8879 4.88799C12.1806 4.86637 12.4757 4.84476 12.7684 4.82074C12.8026 4.17701 12.5953 3.28828 13.2855 2.90877C15.1879 2.03927 17.2538 1.10971 19.405 1.51804C20.8465 1.63814 22.0538 2.47402 23.3684 2.96882C22.7245 2.16897 21.7245 1.77985 20.8074 1.37392C18.627 0.441961 16.166 1.06887 14.0587 1.90235ZM13.9172 3.39877C13.4196 3.63176 13.6977 4.2875 13.566 4.70064C13.7562 4.80392 13.9489 4.90721 14.1416 5.00809L14.0831 4.76789C16.5513 4.21544 19.1026 4.41961 21.6001 4.64779C21.4245 3.95843 21.4489 3.00966 20.6489 2.70221C18.4831 1.69338 15.8879 2.17858 13.9172 3.39877ZM21.9367 3.01686C21.9148 3.59574 21.9099 4.17701 21.905 4.75828C22.3245 4.93363 22.7465 5.10657 23.166 5.28431C23.2221 5.13059 23.3367 4.82314 23.3928 4.66701C23.2538 3.86956 22.8123 3.13216 21.9367 3.01686ZM13.4001 8.43088C11.7367 8.90887 9.91232 9.45412 8.81964 10.8689C8.72208 10.7896 8.5294 10.6263 8.43184 10.547C7.32452 12.5502 6.2294 14.6351 5.99281 16.9434C5.76598 19.1148 5.75135 21.303 5.5294 23.4744C5.90745 23.5296 6.66598 23.6377 7.04403 23.6929C6.6855 23.7434 5.97086 23.8467 5.61233 23.8971C5.38062 26.3711 4.87574 28.8211 4.85379 31.3144C4.86111 33.2431 4.65623 35.2512 5.32452 37.1055C5.47574 37.6363 5.94647 37.9702 6.41476 38.2224C6.52696 37.8045 6.35379 37.5138 5.89281 37.3529L6.42208 37.5931L6.73428 38.4482L7.02696 37.5859C6.99281 37.7588 6.9294 38.1047 6.89769 38.2776L7.1733 38.2176C7.46598 38.2849 8.04891 38.4146 8.34159 38.4794C8.45867 38.0999 8.1294 37.8237 7.75379 37.8405C7.35867 37.5066 6.97574 37.1151 6.87086 36.5939C6.49281 34.9413 6.74159 33.2407 6.69525 31.5666C6.63916 29.4889 6.59769 27.4064 6.66598 25.3263C6.73672 24.0749 7.35867 22.8955 8.30501 22.0668C9.50745 20.9595 11.2562 20.9427 12.8026 20.9163C16.6196 20.9187 20.4416 20.8178 24.2538 20.9931C26.2001 21.0412 28.0465 22.2301 28.7148 24.058C29.1879 23.9476 29.7513 23.9476 30.027 23.4744C30.1026 23.496 30.2513 23.5344 30.327 23.5536C30.3099 23.0108 30.2977 22.4679 30.2977 21.9251L29.9806 22.319C29.9709 22.1461 29.9538 21.8002 29.944 21.6273L30.5757 21.4879L29.9782 21.3294C30.0538 20.6569 29.8757 19.9219 30.2245 19.3046L29.8416 19.4943C29.7953 17.7049 29.8587 15.8529 29.2026 14.15C28.6343 12.6295 27.9562 11.0586 26.6904 9.97054C25.5733 9.07221 24.1733 8.62784 22.8074 8.23873C19.6879 7.89284 16.4904 7.79676 13.4001 8.43088ZM10.8953 21.524C9.14891 21.5168 8.06598 23.018 7.34891 24.3871C7.15379 25.1701 7.38306 25.9724 7.35623 26.7651C7.29525 29.6498 7.19037 32.537 7.29525 35.4193C7.30257 36.3032 7.53428 37.4009 8.53915 37.6627C10.4879 38.1527 12.527 37.8477 14.5123 37.7852C18.3392 37.6291 22.1733 37.7084 26.0026 37.706C26.927 37.7732 27.8465 37.0623 27.9099 36.1351C28.1806 33.4185 27.7221 30.6827 27.9904 27.9636C28.0148 26.8491 28.0318 25.7322 28.005 24.6153C27.8831 23.0684 26.5196 21.8554 25.005 21.6345C22.2538 21.2982 19.4757 21.4759 16.7123 21.4183C14.7733 21.4543 12.827 21.327 10.8953 21.524ZM30.905 24.0484C31.766 27.6994 31.8367 31.4609 31.744 35.1911C31.7294 36.0534 31.5367 36.8965 31.266 37.7132C31.8294 37.1583 32.4977 36.6827 32.9367 36.0198C33.2245 35.3617 33.1148 34.6243 33.2587 33.9373C33.4465 33.0894 33.7855 32.2799 33.9489 31.4249C34.227 30.1999 33.944 28.9364 33.627 27.7475C33.1953 26.3159 32.7318 24.8939 32.2099 23.4912C31.7782 23.6881 31.344 23.8731 30.905 24.0484ZM2.0733 24.5649C1.84891 26.0084 1.73184 27.476 1.51233 28.922C1.64891 31.2495 2.00745 33.613 2.96111 35.7652C3.29525 36.553 4.03672 37.0334 4.75867 37.4394C4.34403 36.2408 4.03672 34.9894 4.14159 33.7139C4.04647 30.4521 4.41233 27.207 4.83428 23.9788C4.65623 23.9836 4.30013 23.9908 4.12208 23.9956C4.12696 24.6826 4.11476 25.3719 4.06598 26.0565C4.02452 27.3391 3.8855 28.6122 3.65135 29.8732C3.50745 27.9612 3.72208 26.0613 3.74403 24.1541C3.17818 24.243 2.57818 24.267 2.0733 24.5649ZM28.627 24.5384C28.6684 25.6073 28.866 26.6666 28.8733 27.7402C28.8879 28.0141 28.7879 28.2423 28.5709 28.4272C28.6026 30.834 28.6757 33.2407 28.5562 35.6451C28.5123 36.3032 28.4611 37.0743 27.8733 37.5042C27.1733 38.1383 26.166 38.16 25.2684 38.184C21.9318 38.1888 18.5928 38.0206 15.2562 38.1936C13.2953 38.2512 11.3294 38.4626 9.36598 38.2897C9.0172 38.1864 8.69525 38.3785 8.40013 38.5275C9.94891 38.5827 11.5026 38.6259 13.0513 38.5034C17.6855 38.3209 22.3245 38.5154 26.9611 38.4482C28.0513 38.4122 29.1587 38.2656 30.1806 37.8789C30.9611 37.4322 31.0538 36.4377 31.1562 35.6451C31.2831 33.4857 31.2806 31.3144 31.1416 29.155C30.9245 27.4856 30.6928 25.8163 30.3977 24.1565C29.8172 24.3078 29.1392 24.2238 28.627 24.5384Z" fill="#DCBEB6"/>
<path d="M22.0371 3.65332C22.6493 3.747 23.1103 4.22258 23.0005 4.8543C22.2981 4.83028 22.1152 4.20817 22.0371 3.65332Z" fill="#DCBEB6"/>
<path d="M10.4171 7.07122C12.8122 5.74774 15.6293 5.28657 18.3488 5.62284C20.1829 5.68289 21.9707 6.22093 23.8073 6.16328C25.1171 6.60765 26.3268 7.35706 27.3098 8.31784C27.0585 8.41152 26.8073 8.50279 26.5537 8.59407L26.8342 8.42593C25.6 7.54441 24.2537 6.71573 22.7293 6.44912C22.8732 6.61725 23.1634 6.95593 23.3073 7.12647C22.8878 6.77098 22.3854 6.52598 21.8293 6.48755C18.7439 6.13206 15.5439 5.89667 12.5317 6.80701C10.7683 7.30902 9.10244 8.28181 7.98293 9.7326C7.13415 10.7534 6.66586 12.0121 6.00488 13.1434C6.55122 10.6381 8.16342 8.36588 10.4171 7.07122Z" fill="#DCBEB6"/>
<path d="M27.0713 8.71649C27.1957 8.60119 27.3225 8.4859 27.4493 8.37061C28.4884 9.57639 29.1518 11.0224 29.7079 12.49C29.6201 12.6725 29.5323 12.8551 29.442 13.0376C28.9957 11.4739 28.3469 9.80938 27.0713 8.71649Z" fill="#DCBEB6"/>
<path d="M29.6924 13.127C30.3803 13.2062 29.3046 13.8596 29.6924 13.127Z" fill="#DCBEB6"/>
<path d="M23.0583 24.2358C24.4705 24.1805 25.8729 23.8851 27.2924 23.9764C27.6241 24.5408 27.9631 25.6217 27.0997 25.8715C24.8851 26.472 22.5753 26.6017 20.2949 26.7794C16.8241 27.0052 13.3583 26.5945 9.90705 26.2846C10.0705 26.1381 10.2314 25.9916 10.3924 25.8451C15.9314 26.5921 21.5875 26.4648 27.0778 25.4127C26.1388 25.3094 25.207 25.4392 24.2851 25.5953C19.9192 26.0132 15.5046 26.0973 11.1388 25.6385C10.029 25.5184 8.91925 25.444 7.80461 25.4416C7.77534 25.0044 7.75095 24.5648 7.72656 24.1277C8.3412 24.3751 9.00217 24.4015 9.65583 24.3583C14.1217 24.5168 18.5949 24.4856 23.0583 24.2358ZM8.31925 24.7522C8.40949 24.8146 8.59242 24.9371 8.68266 24.9972C12.5753 25.1942 16.468 25.6145 20.3729 25.4223C22.6436 25.3863 24.9071 25.1942 27.1558 24.8867C27.0436 24.8218 26.8217 24.6945 26.7119 24.6297C24.9314 24.6681 23.1534 24.8963 21.368 24.8963C18.0363 24.9107 14.7022 25.0308 11.3705 24.8939C10.3534 24.8555 9.33876 24.5985 8.31925 24.7522Z" fill="#DCBEB6"/>
<path d="M7.84854 25.4824C8.63146 25.4992 9.39 25.7154 10.1632 25.8091C9.97293 25.9412 9.78025 26.0733 9.59 26.203C8.97781 26.1478 8.35829 26.2366 7.75098 26.1261C7.77537 25.9652 7.82415 25.6434 7.84854 25.4824Z" fill="#DCBEB6"/>
<path d="M8.13697 26.4166C8.26136 26.3589 8.5077 26.2436 8.62965 26.1836C8.70039 27.0483 8.88087 27.9779 8.53209 28.8041C8.36624 29.2029 7.46868 29.7073 7.49063 28.9579C7.61258 28.8882 7.85892 28.7465 7.98087 28.6768C8.05648 28.5495 8.2077 28.2973 8.28331 28.1724C8.10283 28.3165 7.74429 28.6024 7.56624 28.7465C7.82722 27.9899 8.10526 27.226 8.13697 26.4166Z" fill="#DCBEB6"/>
</svg>
