<svg width="46" height="45" viewBox="0 0 46 45" fill="none" xmlns="http://www.w3.org/2000/svg">
<path d="M7.10671 9.52526H43.0162C43.1624 9.52487 43.3068 9.55715 43.4389 9.61978C43.571 9.6824 43.6875 9.77378 43.7798 9.88721C43.8721 10.0006 43.9379 10.1332 43.9724 10.2754C44.0068 10.4175 44.0091 10.5655 43.979 10.7087L40.467 27.4885C40.4224 27.7019 40.308 27.8944 40.142 28.0356C39.976 28.1768 39.7677 28.2587 39.55 28.2683H11.7925L5.37357 2.58023C5.27769 2.20027 5.05788 1.8632 4.74896 1.62226C4.44004 1.38132 4.05967 1.25032 3.66798 1.25H0M11.8659 28.2683V32.617C11.8647 32.9631 11.9319 33.3061 12.0638 33.6261C12.1956 33.9461 12.3894 34.2368 12.634 34.4815C12.8787 34.7262 13.1693 34.9202 13.4891 35.0521C13.809 35.184 14.1517 35.2512 14.4977 35.25H40.8429" stroke="#4B4544" stroke-width="2.5" stroke-miterlimit="10"/>
<path d="M16.0962 44.1925C17.8062 44.1925 19.1925 42.8622 19.1925 41.2213C19.1925 39.5803 17.8062 38.25 16.0962 38.25C14.3862 38.25 13 39.5803 13 41.2213C13 42.8622 14.3862 44.1925 16.0962 44.1925Z" fill="#4B4544"/>
<path d="M38.2813 44.1925C39.9913 44.1925 41.3775 42.8622 41.3775 41.2213C41.3775 39.5803 39.9913 38.25 38.2813 38.25C36.5713 38.25 35.1851 39.5803 35.1851 41.2213C35.1851 42.8622 36.5713 44.1925 38.2813 44.1925Z" fill="#4B4544"/>
</svg>
