<svg width="37" height="32" viewBox="0 0 37 32" fill="none" xmlns="http://www.w3.org/2000/svg">
<path d="M15.9399 0.39557C17.1743 -0.0316933 18.5003 -0.0236062 19.793 0.0195245C21.0413 0.0788291 22.2771 0.352439 23.42 0.844398C23.8319 1.03983 24.3424 1.01557 24.6933 1.33097C24.9485 1.56953 25.0442 1.91458 25.2009 2.2138C25.5893 1.76227 26.0123 1.26357 26.6323 1.1234C27.4673 0.983225 28.2565 0.640875 29.1067 0.577527C30.6047 0.423874 32.1026 0.666484 33.5632 0.969747C34.0306 1.08836 34.566 1.16923 34.8392 1.60592C35.5799 1.64366 36.4329 1.72453 36.9793 2.26367C37.0764 2.77045 36.8032 3.25028 36.7422 3.74628C36.4301 5.59147 36.2831 7.45821 36.0625 9.31418C35.8573 10.4194 35.8115 11.5435 35.7061 12.6595C35.6728 13.1447 35.4273 13.5774 35.2442 14.0195C35.0167 14.5694 35.0819 15.1921 35.2789 15.7393C35.7491 17.1532 36.3718 18.5495 36.4675 20.0497C36.5535 20.7438 36.3649 21.4258 36.2442 22.1024C36.3996 22.3531 36.7186 22.5539 36.6895 22.8788C36.6298 23.6888 36.584 24.5002 36.591 25.3116C36.5813 25.7011 36.6118 26.119 36.4051 26.4707C36.2262 26.8158 35.8573 26.9991 35.5577 27.2296C34.9502 27.6824 34.2469 27.9857 33.5687 28.32C33.301 28.4386 33.0139 28.6057 32.7115 28.5033C32.1401 28.3496 31.5839 28.1421 30.9958 28.0585C30.9625 28.0154 30.8946 27.9291 30.8613 27.886C30.2815 28.7553 29.7087 29.6732 28.8598 30.3242C28.0734 30.8633 27.1829 31.2798 26.2356 31.4645C23.5018 32.0548 20.6682 32.1074 17.8873 31.8621C16.9441 31.8055 16.0106 31.6559 15.0924 31.4416C14.1673 31.2299 13.2089 31.0291 12.4003 30.5196C11.9301 30.2218 12.0091 29.6072 11.8982 29.1368C9.09921 29.4872 6.24615 29.4333 3.4666 28.944C2.44161 28.7567 1.3861 28.5922 0.448484 28.1232C0.290365 28.0181 0.054575 27.9304 0.0323829 27.7188C-0.0189361 27.2336 -0.00367909 26.7403 0.039318 26.2551C0.0129649 25.9249 0.383295 25.8629 0.607989 25.7281C0.510899 25.0057 0.591345 24.2401 1.04212 23.6349C1.75365 22.5108 3.14759 22.093 4.41115 21.88C4.98814 21.7992 5.65945 21.8302 6.1019 21.3948C6.54852 20.9568 6.88417 20.4271 7.26282 19.9365C7.65812 19.4216 7.77879 18.7706 8.10612 18.222C8.32111 17.8635 8.69698 17.6438 9.02848 17.3998C8.98132 16.8041 9.41684 16.3876 9.84958 16.0439C9.9328 15.587 9.89397 15.0977 10.12 14.6759C10.274 14.4306 10.5278 14.2688 10.7137 14.0518C10.8884 13.5396 10.9287 12.9938 11.0799 12.4762C11.195 12.3967 11.3156 12.3266 11.4419 12.2659C11.6444 11.7928 11.98 11.282 11.7845 10.7564C11.6998 10.4005 11.5403 10.0407 11.6097 9.67001C11.6998 9.45975 11.8732 9.30205 12.0258 9.13492C11.9287 8.59174 11.9218 8.02161 11.636 7.52965C11.3475 7.02152 11.8025 6.52282 12.0813 6.11847C11.8635 5.16555 11.5057 4.18702 11.7276 3.20311C11.9897 2.44697 12.6499 1.82427 13.4419 1.60458C14.3532 1.36197 15.0314 0.648962 15.9399 0.39557ZM15.6278 1.22853C17.019 1.29053 18.4906 1.47114 19.6945 2.2084C20.7653 1.84584 21.8804 1.58436 23.0122 1.50618C22.0649 1.2784 21.1592 0.859224 20.1689 0.820137C18.6487 0.767572 17.0925 0.782398 15.6278 1.22853ZM27.7849 1.65984C28.4548 1.7151 29.1331 1.70297 29.7988 1.80945C30.4438 1.91053 30.993 2.27984 31.6103 2.46719C32.5021 2.42136 33.3856 2.25154 34.2816 2.2138C33.4813 1.97658 32.731 1.57627 31.889 1.48462C30.5284 1.29862 29.1053 1.23392 27.7849 1.65984ZM13.5626 7.24795C13.8386 7.90974 14.6805 7.68869 15.2478 7.69543C15.3352 8.02835 15.6625 8.0297 15.951 8.05531C15.7568 7.96904 15.5626 7.88143 15.3699 7.79248C16.0772 7.75878 16.865 7.73048 17.442 7.27761C17.2451 7.08217 17.0994 7.38813 16.9469 7.47978C16.2922 7.47978 15.6473 7.593 14.9954 7.62939C15.5224 7.27761 16.1812 7.23447 16.7721 7.02691C15.8692 7.07678 15.0897 7.63882 14.1826 7.59569C14.2297 7.49595 14.3268 7.29782 14.3754 7.19808C15.3407 7.10239 16.2395 6.68456 17.2159 6.68321C17.1272 5.67908 17.5363 4.7329 17.9746 3.84872C18.2507 3.27319 18.8179 2.92006 19.3242 2.5548C18.1882 1.99949 16.8914 1.9968 15.6611 1.82293C15.2506 1.78788 14.8053 1.71914 14.4156 1.88493C13.8885 3.62228 13.6514 5.44455 13.5626 7.24795ZM25.8805 2.35128C25.4256 3.13976 25.3632 4.08863 25.4755 4.97146C25.6115 5.90416 25.7419 6.85708 26.1469 7.72239C26.538 7.73722 26.9305 7.69948 27.3189 7.75204C27.5935 7.83291 27.8154 8.01891 28.054 8.16852C28.1317 6.77486 27.961 5.27877 28.6559 4.00102C29.0679 3.22467 30.0318 3.06832 30.8002 2.80145C29.7558 2.08171 28.4229 2.27849 27.2218 2.13832C26.7807 2.12349 26.2287 2.0278 25.8805 2.35128ZM20.137 2.80145C19.6723 2.9861 19.1841 3.16671 18.8276 3.52524C19.4546 3.36619 20.0635 3.14515 20.664 2.91063C21.0149 2.88637 21.4005 2.94567 21.6752 2.67745L21.6821 2.90119C21.8985 2.76102 22.1245 2.64645 22.3132 2.90254C22.5628 2.69632 22.8624 2.56558 23.1884 2.52919C23.033 2.66936 22.868 2.8001 22.7015 2.9295C23.0455 2.87154 23.395 2.82976 23.7418 2.89041C23.9235 2.68419 24.083 2.45775 24.1926 2.20706C23.8403 2.41328 23.6225 2.84997 23.162 2.84593C23.3437 2.63971 23.5282 2.43619 23.7154 2.23536C22.5046 2.19088 21.2618 2.34858 20.137 2.80145ZM35.1263 2.75832C35.4203 2.89445 36.0043 3.0225 36.1457 2.68419C35.8059 2.60197 35.4564 2.67745 35.1263 2.75832ZM12.8108 3.87298C12.8524 4.56442 12.7873 5.26529 12.926 5.94999C12.9676 4.82455 12.969 3.69506 13.1368 2.57906C12.729 2.89041 12.8011 3.42685 12.8108 3.87298ZM12.2214 3.59937C12.2463 4.62911 12.4141 5.67773 12.876 6.61447C12.6111 5.36503 12.3781 4.08459 12.5404 2.80549C12.4017 3.05484 12.2047 3.2988 12.2214 3.59937ZM31.8003 3.16941C31.7822 3.21389 31.7434 3.3015 31.724 3.34463C32.0139 3.48076 32.3426 3.48885 32.6519 3.56298C32.6561 3.50772 32.6644 3.39854 32.6699 3.34328C32.7629 3.35002 32.9501 3.3635 33.043 3.37024C33.0458 3.43224 33.05 3.55759 33.0513 3.61959C33.2996 3.59533 33.5548 3.57376 33.7837 3.46458C33.559 3.38506 33.3329 3.31632 33.1082 3.24084C33.2885 3.23276 33.4702 3.22602 33.6519 3.22198C33.8503 3.36754 34.0819 3.45111 34.3232 3.50232C34.2899 3.3918 34.222 3.16806 34.1887 3.05754C34.437 3.07102 34.6464 3.17884 34.8239 3.34463C35.0472 3.28398 35.2706 3.22198 35.4966 3.16402L35.4869 3.0818C35.3898 3.09393 35.1943 3.11819 35.0972 3.12897C34.9654 3.04945 34.835 2.96993 34.706 2.89041C33.7324 2.91871 32.7587 2.99958 31.8003 3.16941ZM18.8304 3.63576C18.4559 3.69102 18.4018 4.0792 18.363 4.37707C17.7902 5.22486 17.9233 6.30177 17.7388 7.25739C17.6889 7.47439 17.5363 7.66578 17.3297 7.76282C16.4559 8.18065 15.5349 8.57287 14.5474 8.61331C14.2311 8.59579 14.0175 8.32217 13.7623 8.17122C13.22 7.80595 12.9315 7.08082 12.2144 6.99321C12.2255 6.83956 12.2338 6.68456 12.238 6.52956C12.0508 6.72904 12.0799 6.97434 12.1853 7.20617C12.3087 7.19808 12.5556 7.18191 12.6791 7.17517C12.4752 7.7143 12.3975 8.34913 12.6707 8.87883C12.6264 8.35587 12.5792 7.82752 12.6929 7.30726C13.1215 7.57682 13.1881 8.15235 13.6527 8.38148C14.2339 8.73326 14.9482 8.68339 15.5765 8.48526C16.3685 8.20626 17.2687 8.23726 17.9857 7.76417C18.4102 7.47034 19.0898 7.48921 19.4185 7.91648C19.7791 8.26017 19.7112 8.90174 19.2881 9.17131C18.5891 9.7064 17.6542 9.29531 16.8595 9.27644C16.7041 9.45031 16.5502 9.62418 16.3948 9.7967C16.4864 9.8331 16.6722 9.90588 16.7652 9.94227C16.5932 10.1997 16.4642 10.534 16.1563 10.6661C15.8733 10.7321 15.5779 10.7227 15.2922 10.7658C15.6694 10.9235 16.1174 10.9558 16.4489 11.2038C16.5571 11.7982 16.3602 12.3967 16.2298 12.9735C16.9663 12.4304 17.8984 12.2888 18.7472 11.9869C18.4226 12.4331 17.8359 12.3967 17.3505 12.5355C17.7444 12.8792 18.2188 13.2175 18.3741 13.7351C18.3575 14.3146 17.8692 14.75 17.4087 15.0586C17.4004 15.002 17.3824 14.8915 17.3741 14.8349C17.7666 14.6071 18.0093 14.1704 18.0995 13.7445C18.0884 13.2485 17.6612 12.9062 17.3394 12.5705C16.9899 12.6851 16.6639 12.8576 16.3782 13.0868C17.0134 12.925 17.7541 13.2121 17.9497 13.851C17.9622 14.2001 17.6584 14.4467 17.4725 14.7149C17.1452 14.7325 16.7666 14.7796 16.5668 14.4629C16.2464 14.2001 16.3324 13.7944 16.3796 13.4399C16.2159 13.6771 16.1299 13.9615 16.2603 14.2338C16.3685 14.7527 16.9705 14.8268 17.3602 15.0654C17.0273 15.1193 16.7014 15.0411 16.374 14.9939C16.3921 15.1719 16.4101 15.3484 16.4309 15.525C15.7762 15.4145 15.1119 15.4697 14.453 15.4239C13.9967 15.9725 13.2436 16.0196 12.582 16.1194C12.9481 16.3094 13.3462 16.118 13.7249 16.0803C14.0508 16.0965 14.356 16.2313 14.6833 16.2407C14.987 16.2205 15.2894 16.1612 15.5959 16.1868C15.9357 16.3526 16.3241 16.6841 16.0717 17.0871C15.8248 17.5953 15.0286 17.3122 15.0314 16.7852C15.2367 16.7785 15.7 17.102 15.6445 16.6963C15.4558 16.4793 14.9246 16.6262 14.9967 16.9429C14.9746 17.4834 15.8151 17.947 16.2173 17.4942C16.4892 17.1909 16.6237 16.6235 16.141 16.4375C16.1063 16.3701 16.0384 16.234 16.0037 16.1666C16.2048 16.2811 16.5016 16.3256 16.6251 16.5493C16.6875 17.0966 16.4156 17.6047 16.0578 18.0077C15.5932 17.9444 15.0522 17.8487 14.7873 17.4254C14.5557 17.1667 14.582 16.8176 14.5945 16.5008C13.9704 16.7529 13.5016 17.296 13.1187 17.8217C13.7498 17.9322 14.3976 17.9511 14.994 18.2058C14.8234 18.2638 14.6486 18.3015 14.4697 18.3244C14.9759 18.1748 14.9607 18.652 15.0037 18.9781C15.0592 19.2666 14.6361 19.2518 14.46 19.2949C14.521 19.1304 14.5834 18.9674 14.6472 18.8056C14.5806 18.7301 14.5141 18.6547 14.4475 18.5805C14.3768 18.8312 14.2922 19.1116 14.4503 19.3515C14.7304 19.5725 15.0578 19.3043 15.1507 19.0361C15.295 18.7342 14.8969 18.4727 15.0605 18.1708C15.2714 18.3581 15.46 18.5724 15.6112 18.8097C15.4683 19.4418 14.8983 19.9391 14.2103 19.8879C14.1077 20.082 13.9926 20.2923 13.7373 20.3044C13.4808 19.9917 13.2547 19.6548 12.9592 19.3731C12.9731 19.7801 13.1298 20.1575 13.2658 20.5349C12.9232 20.1858 12.7997 19.7114 12.6208 19.276C12.5626 19.6911 12.5251 20.1737 12.8205 20.5187C13.0924 20.8732 13.5293 21.0322 13.9066 21.2506C14.2214 21.4191 14.4378 21.7062 14.7263 21.9083C15.1549 21.9326 15.1895 21.2748 15.6708 21.4339C16.3449 21.1711 17.0107 20.8799 17.6265 20.5012C18.32 20.047 19.1092 19.7707 19.8346 19.3731C20.0746 18.9566 20.2521 18.466 20.6862 18.1977C21.1828 17.8756 21.0455 17.2071 21.2979 16.7407C22.1121 15.2797 22.8208 13.7405 23.1648 12.1042C23.255 11.5085 23.7099 10.9882 23.6156 10.3655C23.531 9.6417 23.4991 8.91253 23.5337 8.18335C23.7251 7.88278 23.8 8.461 23.8569 8.57422C23.7987 8.11731 23.7154 7.66578 23.6419 7.21156C23.6877 7.13878 23.7779 6.99591 23.8236 6.92312C23.6932 6.15082 23.8209 5.3556 23.6475 4.58868C23.5892 4.55363 23.4727 4.48355 23.4158 4.4485C23.1121 4.93238 22.9984 5.49712 22.818 6.02951C22.0178 8.36935 21.1536 10.6903 20.3631 13.0315C20.3034 12.9277 20.2438 12.8239 20.1855 12.7202C20.7098 11.5233 20.8 10.2024 21.2757 8.99205C21.5129 8.36531 21.6072 7.69678 21.8957 7.08891C22.4033 5.78286 22.6447 4.37976 23.3326 3.1438C22.7681 3.15189 22.205 3.17615 21.6419 3.17211C20.6807 3.13571 19.7528 3.41741 18.8304 3.63576ZM29.287 4.20455C28.8557 4.76524 28.7988 5.49577 28.7447 6.17103C28.7156 6.83821 28.6227 7.52695 28.8085 8.182C28.9028 8.22244 29.0928 8.30331 29.1872 8.34374C28.7031 8.771 28.1289 9.12009 27.4742 9.22927C26.9166 9.39101 26.323 9.18074 25.7724 9.37079C26.0331 9.8304 26.5255 9.54736 26.9374 9.56488C26.7155 9.64036 26.4936 9.70775 26.2689 9.76975C26.5838 9.91127 26.9028 10.0487 27.2384 10.1404C27.3535 10.0231 27.4271 9.87488 27.5131 9.7374C27.8626 9.04327 28.8154 9.03653 29.2426 8.399C29.4243 8.31948 29.6047 8.20222 29.8141 8.21839C30.6047 8.13887 31.061 9.2104 30.6116 9.7711C30.2468 10.255 29.5464 10.3965 28.968 10.2819C28.717 10.0824 28.5977 9.77918 28.441 9.51231C27.8445 9.62553 27.8113 10.3534 28.1844 10.7213C28.2773 10.5084 28.3508 10.2887 28.4299 10.0703C28.4437 10.3278 28.5172 10.6054 28.3966 10.8494C28.1636 11.3561 27.9361 11.8697 27.5977 12.3212C28.0096 12.2848 28.4215 12.2417 28.8265 12.1608C28.6767 11.9168 28.4867 11.6958 28.3813 11.4289C28.5117 11.0017 29.0512 11.0192 29.4146 11.0758C29.8931 11.1418 30.0887 11.6257 30.355 11.9532C30.4147 11.685 30.4937 11.4222 30.5603 11.1567C30.5645 11.4074 30.6407 11.6459 30.7725 11.8616C30.846 11.0354 31.1206 10.2415 31.2025 9.41662C31.3315 8.67126 31.3259 7.90165 31.5534 7.17517C31.448 7.13608 31.2358 7.05926 31.129 7.02017C31.2746 6.89078 31.4494 6.86382 31.638 6.91773C31.7254 6.49586 31.8793 6.07399 31.828 5.63729C31.7836 5.24912 31.6976 4.86498 31.6685 4.47411C31.398 4.28811 31.1193 4.0765 30.7739 4.05494C30.3092 3.99833 29.9264 4.32181 29.4951 4.43098C30.0637 3.8312 31.1942 3.63306 31.7268 4.3865C31.7711 3.90128 31.5881 3.46459 31.2288 3.13571C30.4604 3.20984 29.7739 3.6398 29.287 4.20455ZM34.2483 3.72202C33.4647 3.87837 32.6644 4.00237 31.8655 3.88915C31.9736 4.73155 32.2719 5.57529 32.0915 6.42982C31.9945 7.04847 31.6144 7.58626 31.5562 8.21165C31.4549 9.24679 31.2968 10.2765 31.0568 11.2888C30.8488 12.0907 30.803 12.9372 30.4452 13.6987C30.0249 14.5977 30.1775 15.8 29.2579 16.4294C28.8293 16.459 28.3952 16.486 28.0013 16.6747C28.287 16.8243 28.6767 16.9793 28.6601 17.3594C28.7128 18.1546 28.0165 19.0361 27.1719 19.0698C27.0304 18.9957 26.6073 19.1008 26.6503 18.8703C27.0637 18.838 27.5366 18.8757 27.8501 18.5563C28.2038 18.2261 28.563 17.6802 28.312 17.2017C27.6947 16.6747 26.8015 16.8688 26.0831 17.0575C25.6503 17.1289 25.402 17.5171 25.1149 17.7974C25.488 17.9201 25.8681 18.0239 26.2537 18.1061C26.3924 17.699 26.5005 17.1936 26.9333 16.9833C27.3383 16.8998 27.7488 17.1208 28.036 17.3837C28.3633 18.1061 27.3411 18.8757 26.6822 18.4107C26.4645 18.2422 26.4381 18.5684 26.3424 18.6938C26.1344 18.7207 25.7183 18.7719 25.5102 18.7989C25.6919 18.714 26.0553 18.5455 26.237 18.4606C25.8792 18.3972 25.5172 18.3662 25.1565 18.3366L25.1898 18.4565C24.9374 18.563 24.7113 18.7167 24.4991 18.8838C25.1163 19.1426 25.8903 19.1399 26.3771 19.6305C26.4881 19.9041 26.6906 20.388 26.2869 20.5228C25.9374 20.6899 25.556 20.4877 25.4131 20.1588C25.4894 20.1481 25.6434 20.1278 25.721 20.1171C25.6891 19.9675 25.66 19.8192 25.6295 19.6709C25.5352 19.9297 25.1274 20.1952 25.3424 20.4756C25.7086 20.95 26.6046 20.9352 26.8098 20.3192C27.0609 19.5981 26.1912 19.2733 25.7821 18.8501C26.255 19.0725 26.8417 19.2693 27.0706 19.7747C27.1829 20.2869 26.8667 20.8557 26.3521 21.0228C25.7959 21.1212 25.1454 20.8435 24.9096 20.3314C24.9471 20.0214 25.237 19.8273 25.4131 19.5874C25.0886 19.5308 24.764 19.4809 24.4395 19.4351C24.4159 19.5766 24.3978 19.7208 24.3757 19.8623C24.6697 20.2586 24.2772 20.8018 24.6281 21.1913C25.1468 21.7237 25.8833 21.9919 26.4132 22.5135C26.2828 22.5229 26.0206 22.5405 25.8903 22.5499C26.2439 22.8976 26.47 23.3478 26.8584 23.6673C26.7349 23.4098 26.6656 23.1443 26.6476 22.868C27.6934 22.1819 28.7724 21.5377 29.7572 20.7667L29.7392 20.6953C29.7933 20.6697 29.8987 20.6185 29.9514 20.5942C30.5062 20.0712 31.0735 19.524 31.7656 19.1817C31.7198 19.3623 31.6838 19.5644 31.5021 19.6669C30.7933 20.233 30.1067 20.8247 29.4535 21.4514C29.373 21.4743 29.2121 21.5202 29.1317 21.5444C28.9985 21.6522 28.8668 21.7614 28.7378 21.8746L28.5991 21.8261L28.692 22.0189C28.5408 22.0189 28.3896 22.0215 28.2385 22.0256C28.3092 22.558 27.5963 22.6416 27.2246 22.8006C27.3494 22.8235 27.599 22.868 27.7239 22.8909C27.5394 22.9974 27.3549 23.1025 27.1746 23.213C27.2426 23.2346 27.3813 23.2777 27.4492 23.3006C27.3757 23.5028 27.115 23.4732 26.9458 23.5298L26.9388 23.6767C27.7807 23.6726 28.5464 23.2602 29.2565 22.8626C29.1553 22.8572 28.9528 22.8451 28.8515 22.8383L28.7988 22.7022C28.8779 22.7022 29.0346 22.7022 29.1137 22.7022L29.1109 22.6591C29.0179 22.624 28.8321 22.5539 28.7392 22.5189C29.0179 22.465 29.2926 22.3962 29.5658 22.3154C29.4673 22.4003 29.3716 22.4879 29.2787 22.5782C29.5214 22.62 29.7392 22.4677 29.9583 22.3882C30.3009 22.2278 30.6865 22.2992 31.0471 22.3383C31.043 22.3666 31.036 22.4232 31.0319 22.4515C30.5048 22.4016 29.95 22.4609 29.5242 22.7966C29.9417 22.7265 30.3481 22.5998 30.767 22.5351C30.7711 22.5836 30.7794 22.6806 30.7836 22.7292L30.7406 22.7952C29.8335 22.8599 28.9583 23.1497 28.1663 23.5769C27.6587 23.8169 26.9943 24.0999 26.4908 23.7023C25.8223 23.1847 25.2925 22.5229 24.6544 21.9717C24.1315 21.5417 23.9679 20.8745 23.7362 20.2788C23.187 20.1009 22.6308 19.9162 22.0552 19.8569C21.1148 20.5362 20.1328 21.1738 19.284 21.9649C18.5156 22.6523 17.6778 23.2683 16.9996 24.046C17.6501 24.2118 18.3602 24.2441 18.9455 24.5946C17.9372 24.7887 16.9025 24.3937 15.8914 24.6067C14.8664 24.8709 13.8774 25.5286 13.5057 26.5287C13.3531 26.9304 13.2463 27.4978 13.625 27.8159C14.0411 28.0423 14.5307 28.0841 14.9843 28.2108C16.245 28.5585 17.5516 28.7001 18.8582 28.7715C21.6863 29.0047 24.574 28.8106 27.3022 28.0261C28.7017 27.5719 29.2787 26.1405 30.2829 25.2186C30.9306 24.5326 31.7323 24.0244 32.4896 23.4664C32.061 23.1713 31.5784 22.9583 31.0874 22.7925C31.3675 22.6564 31.6865 22.8626 31.9847 22.8343C31.749 22.6672 31.3065 22.7858 31.1942 22.4973C31.7767 22.5364 32.577 22.6995 32.8752 23.2993C33.0513 21.8113 32.853 20.3058 33.0791 18.8231C33.2441 17.4537 33.7823 16.1612 34.387 14.9252C33.1304 16.1329 31.9736 17.4457 30.6227 18.5617C31.3939 17.5629 32.362 16.73 33.136 15.7339C33.9363 14.8902 34.4467 13.8483 34.9779 12.8374C35.1346 12.4735 35.1124 12.0745 35.1263 11.6891C35.1402 10.9208 35.369 10.1781 35.4273 9.41392C35.4731 8.87344 35.4453 8.32891 35.5258 7.79248C35.4966 7.88009 35.4689 7.96904 35.4425 8.05665C35.0556 8.28578 34.6686 8.5257 34.2234 8.63083C34.6728 8.10652 35.1776 7.6213 35.5466 7.03904C35.7366 6.26943 35.6187 5.46073 35.8004 4.68977C35.9016 4.18298 36.1471 3.71798 36.2553 3.21254C35.6076 3.45111 34.946 3.68833 34.2483 3.72202ZM25.0692 7.6523C25.3049 7.92322 25.5893 8.151 25.9055 8.32757C26.3757 8.59444 26.8806 8.92196 27.4548 8.81413C27.0609 8.53918 26.5754 8.45292 26.1427 8.25613C25.764 8.09035 25.4312 7.84774 25.0692 7.6523ZM24.1024 7.74935C24.101 8.12944 24.1121 8.51087 24.1093 8.89096C24.2356 8.9314 24.3632 8.97183 24.4908 9.01227C24.3618 8.59174 24.5157 8.03104 24.1024 7.74935ZM18.0176 8.41922C18.3561 8.337 18.6598 7.99196 19.0218 8.17391C19.1453 8.41383 19.1467 8.78987 18.8485 8.90983C18.603 9.06079 18.3283 8.91118 18.0745 8.87344C18.1092 8.93274 18.1785 9.0527 18.2132 9.11201C18.5239 9.10257 18.9123 9.15244 19.1161 8.86535C19.3519 8.57287 19.1855 8.12135 18.8429 7.99061C18.5156 7.934 18.1452 8.11731 18.0176 8.41922ZM17.0093 8.6497C17.166 8.88153 17.4032 9.0217 17.6778 9.08235C17.743 8.81009 17.786 8.53379 17.8221 8.25613C17.5391 8.36396 17.2659 8.49335 17.0093 8.6497ZM24.9499 8.41113C24.8916 8.66453 24.8389 8.91927 24.7737 9.17131C24.9526 9.17401 25.1316 9.17535 25.3091 9.15918C25.2633 8.88287 25.0997 8.64566 24.9499 8.41113ZM29.0845 8.97453C29.0221 9.15244 29.0249 9.34383 28.9639 9.52175C28.8903 9.46649 28.7433 9.35731 28.6698 9.30205C28.778 9.47727 28.8876 9.65249 28.9763 9.83849C29.3744 10.0824 29.8751 10.0582 30.2898 9.86544C29.9459 9.85736 29.4881 10.0744 29.2288 9.78997C29.2343 9.74414 29.2482 9.65383 29.2551 9.60801C29.5561 9.62688 29.8585 9.61609 30.1553 9.56083C30.1872 9.46244 30.2524 9.26566 30.2857 9.16727C30.2441 9.06618 30.1608 8.86266 30.1206 8.76022C29.7766 8.48796 29.3605 8.73057 29.0845 8.97453ZM13.8899 9.29262C13.4863 9.36675 13.0452 9.62553 13.0508 10.0744C12.9814 10.4908 13.4946 10.5973 13.7748 10.7766C13.6874 10.7038 13.5127 10.5569 13.4253 10.4841C13.5681 10.3331 13.711 10.1822 13.8525 10.0299C13.7637 9.99753 13.5848 9.93149 13.496 9.89914C13.4905 10.0218 13.4821 10.2671 13.4766 10.3884C13.3212 10.1997 13.2172 9.98675 13.1659 9.75223C14.1105 9.71583 15.0619 9.59723 15.951 9.26835C16.123 9.19288 16.2575 9.05809 16.3976 8.93948C15.5432 8.76696 14.711 9.1147 13.8899 9.29262ZM30.4049 8.89366C30.4785 8.97992 30.4785 8.97992 30.4049 8.89366ZM12.3448 10.6741C12.3975 10.1889 12.5015 9.71314 12.6929 9.26027C12.3698 9.63901 12.0494 10.1984 12.3448 10.6741ZM25.1441 9.36675C25.2495 9.97192 25.7308 10.4329 26.3091 10.6404C26.8972 10.8467 27.4576 11.2335 28.1039 11.1944C27.4784 10.6782 26.6406 10.5636 25.9305 10.2024C25.5574 10.0339 25.4769 9.58375 25.1441 9.36675ZM24.1551 9.66731C24.1884 10.135 24.2175 10.6027 24.2633 11.0691C24.7099 10.7146 24.4519 10.0851 24.4908 9.60531C24.3784 9.62553 24.2675 9.64575 24.1551 9.66731ZM13.6916 10.6768C14.5071 11.0731 15.3088 11.5853 16.2353 11.6796C16.1549 11.5462 16.1077 11.3737 15.9441 11.313C15.3116 10.9585 14.6028 10.7415 14.0078 10.3237C14.3268 9.92744 14.9246 10.0892 15.3768 9.99349C15.0508 9.99888 14.7249 9.99618 14.4017 10.0299C14.0258 10.0299 13.9024 10.4504 13.6916 10.6768ZM25.1995 10.6364C25.2411 10.6998 25.3216 10.8238 25.3632 10.8858C26.0317 11.2308 26.7863 11.3804 27.5269 11.5017C27.0595 11.1162 26.4229 11.0556 25.8916 10.7887C25.6794 10.6741 25.4395 10.6378 25.1995 10.6364ZM13.1174 11.2389C13.0508 11.4262 12.9495 11.6931 13.1534 11.836C13.5113 12.2268 14.098 12.0975 14.5612 12.0206C14.3074 11.5125 13.7471 10.968 13.1174 11.2389ZM12.4017 11.3319C12.299 11.6419 12.1978 11.9519 12.0716 12.2552C13.2644 12.5422 14.5044 12.5085 15.7194 12.4102C15.5169 12.6811 15.2256 12.8617 14.9454 13.0477C14.5557 13.138 14.6125 13.6124 14.2797 13.7378C13.7956 13.7297 13.3157 13.5801 12.9149 13.3145C13.3407 13.2337 13.7914 13.3092 14.1992 13.142C13.6916 12.9938 13.159 13.0005 12.6347 12.9843C12.6832 13.1528 12.6347 13.3846 12.8205 13.483C13.3102 13.8227 13.9107 13.9642 14.4267 14.2607C14.5682 13.9251 14.7984 13.6246 14.8733 13.2633C15.1701 13.1461 15.5086 13.0841 15.7346 12.8428C15.9871 12.6083 16.0578 12.2646 16.1341 11.9478C15.8858 11.9694 15.6375 11.9923 15.3893 12.0152C15.4656 12.0624 15.6153 12.1568 15.6916 12.2039C14.6347 12.2902 13.5681 12.1918 12.5209 12.0435C12.5029 11.8036 12.4988 11.5624 12.5196 11.3225C12.4904 11.3251 12.4308 11.3292 12.4017 11.3319ZM24.7335 11.3575C24.194 11.836 24.6128 12.5962 24.6017 13.1973C25.2717 13.2296 25.943 13.1326 26.599 13.0072C26.2939 12.8482 25.9665 12.7363 25.6434 12.6218C25.2619 12.735 24.8777 12.6635 24.5823 12.4007C24.5574 12.1082 24.5698 11.8171 24.6558 11.5354C25.1787 11.4101 25.4922 11.9155 25.9 12.1258C26.3313 12.4358 26.9083 12.4519 27.3993 12.2767C26.986 12.1379 26.5019 12.1595 26.1427 11.8899C25.7349 11.6055 25.2564 11.2995 24.7335 11.3575ZM28.9056 11.898C29.2121 11.9627 29.6366 12.2174 29.7961 11.8158C29.6199 11.7201 29.4479 11.6095 29.2482 11.5678C29.0693 11.5961 29.0124 11.7834 28.9056 11.898ZM24.0275 13.2229C24.0345 12.6972 24.0012 12.1716 24.0109 11.6473C23.5948 12.0503 23.6017 12.8334 24.0275 13.2229ZM26.2412 11.7969C26.3826 11.9425 26.6573 12.0611 26.8584 11.9721C26.8653 11.7538 26.3549 11.6351 26.2412 11.7969ZM27.0789 12.0112C27.1358 12.3266 27.6407 12.0301 27.5644 11.8009C27.3979 11.7888 27.1677 11.8643 27.0789 12.0112ZM30.5117 11.7133C30.4923 12.1136 30.484 12.5652 30.2274 12.9021C29.9819 13.0827 29.6671 13.1366 29.3786 13.2189C28.8792 13.0369 28.3258 12.6096 27.8002 13.0032C27.3952 13.2081 27.8556 13.6219 27.9416 13.8806C27.8404 14.068 27.7183 14.2499 27.4714 14.2365C27.2107 14.0046 27.1289 13.6704 27.0886 13.3442C26.9999 13.4682 26.9083 13.5922 26.8182 13.7176C26.9069 13.9858 26.9569 14.3578 27.323 14.3753C28.0318 14.3322 28.6573 13.855 29.3869 13.9036C29.8391 14.0491 29.8446 14.6152 29.8141 14.9926C29.6685 14.754 29.5589 14.4912 29.3675 14.2823C28.803 14.2028 27.8848 14.4966 28.0387 15.2015C27.9721 15.7555 28.8945 15.9064 29.1483 15.4859C29.4035 15.153 28.9916 14.4899 28.5727 14.7891C28.1996 14.9454 28.3439 15.4104 28.5172 15.6598C28.4354 15.6153 28.2704 15.5277 28.1871 15.4846C27.8362 14.9144 28.5228 14.2324 29.122 14.4683C29.6255 14.7379 29.6574 15.4953 29.2163 15.8363C28.6213 16.2906 27.4922 15.7757 27.778 14.9737C27.4063 15.3471 26.8917 15.5183 26.4007 15.6908C26.0109 15.8202 25.7613 16.1612 25.5227 16.4658C26.0733 16.6423 26.6226 16.3836 27.176 16.3714C27.7807 16.3593 28.3883 16.4523 28.9916 16.3714C29.52 16.1059 29.742 15.5115 29.828 14.9724C30.1192 13.975 30.6199 13.0382 30.7351 11.995C30.6602 11.9007 30.5853 11.8077 30.5117 11.7133ZM30.1178 11.8252C30.0665 12.1123 30.0235 12.4398 29.778 12.6406C29.4715 12.8185 29.158 12.5678 28.8543 12.5085C28.9819 12.6716 29.0984 12.8495 29.2704 12.9735C29.8904 13.204 30.5076 12.3239 30.1178 11.8252ZM12.0785 14.223C12.2879 14.4764 12.6569 14.5707 12.9287 14.7608C13.2283 14.9832 13.6195 14.8309 13.9579 14.8443L13.736 15.0775C12.9745 15.3889 12.2505 14.9144 11.4973 14.8699C11.6388 15.06 11.7831 15.25 11.9578 15.4131C12.3434 15.8283 13.0203 15.7905 13.496 15.5533C13.0272 15.5398 12.5584 15.5183 12.0979 15.4253C12.0563 15.3376 11.9717 15.1597 11.9301 15.0721C12.3906 15.1692 12.8469 15.3457 13.3282 15.2945C13.7318 15.3026 14.0272 14.9993 14.3268 14.7796C13.7831 14.4777 13.2117 14.2324 12.6513 13.9629C12.2227 13.7661 12.2089 13.2566 12.066 12.8779C11.8247 13.2903 11.9842 13.789 12.0785 14.223ZM11.4363 14.3066C11.532 13.8631 11.5556 13.4102 11.5584 12.9587C11.2782 13.3267 11.0604 13.9346 11.4363 14.3066ZM24.4866 13.4709C24.6558 13.7836 24.9943 13.9521 25.3549 13.9494C25.893 13.9561 26.4201 14.0572 26.9222 14.2486C26.7641 14.0127 26.6018 13.7795 26.4506 13.5396C25.7946 13.545 25.1413 13.4655 24.4866 13.4709ZM14.9676 14.6058C15.3171 14.6422 15.6667 14.6664 16.0176 14.692C15.9025 14.3187 15.8317 13.9346 15.7485 13.5531C15.3463 13.7863 15.1008 14.1785 14.9676 14.6058ZM16.915 14.2688C17.1369 14.4575 17.3269 14.1448 17.4226 13.9831C17.2548 13.8321 17.0772 13.6906 16.8969 13.5545C16.7818 13.7782 16.6112 14.1017 16.915 14.2688ZM23.6003 14.2661C23.4048 14.8012 23.2688 15.3889 23.3784 15.955C23.6017 16.3701 24.1496 16.4132 24.574 16.4981C24.2619 16.2407 23.8042 16.0628 23.7307 15.6247C23.5698 15.0317 23.9443 14.4683 23.9485 13.882C23.7987 13.9763 23.6433 14.0855 23.6003 14.2661ZM24.6267 14.0464C25.0386 14.3955 25.6392 14.5397 26.1607 14.3591C25.6461 14.2648 25.1232 14.2162 24.6267 14.0464ZM24.2356 14.0828C24.2175 14.4252 24.2009 14.7689 24.1801 15.1112C24.4034 15.2608 24.6392 15.3902 24.875 15.521C24.7474 15.5654 24.4908 15.6517 24.3618 15.6962C24.5352 15.7824 24.7085 15.8714 24.8791 15.9644C24.9305 15.7986 24.9845 15.6342 25.0414 15.4697C24.9582 15.3929 24.7904 15.2406 24.7071 15.1638C24.9596 15.2083 25.2106 15.2581 25.4631 15.3066C25.3868 15.4778 25.3105 15.649 25.2356 15.8202C25.746 15.4212 26.2953 15.0694 26.8057 14.6691C26.2426 14.7055 25.6697 14.8619 25.1122 14.7096C24.739 14.6327 24.4977 14.3241 24.2356 14.0828ZM10.6416 15.9037C10.8621 15.4522 10.8399 14.9104 11.2172 14.533C10.4571 14.475 10.5514 15.4226 10.6416 15.9037ZM22.8097 15.5304C22.7501 15.521 22.6294 15.5034 22.5698 15.4953C22.5892 15.777 22.5906 16.0628 22.6405 16.3431C22.7113 16.0318 22.6474 15.6517 22.9651 15.4549C23.0081 15.2271 23.0497 15.0007 23.0774 14.7702C22.9623 15.0142 22.8819 15.2716 22.8097 15.5304ZM14.4406 15.2986C14.9759 15.2703 15.5141 15.2824 16.0509 15.2797C16.0911 15.188 16.1715 15.0047 16.2104 14.9131C15.7416 14.9158 15.2714 14.8969 14.8026 14.9104C14.6153 14.9576 14.5612 15.1732 14.4406 15.2986ZM11.9065 16.7043C12.2241 16.8499 12.5487 16.9968 12.8996 17.048C13.1992 17.1168 13.3282 16.8081 13.5071 16.645C13.1964 16.6356 12.8732 16.6787 12.5723 16.5803C12.2227 16.5035 12.2435 16.0749 12.084 15.8269C11.9967 15.8849 11.8219 16.0021 11.7345 16.0601C11.686 15.932 11.5889 15.6746 11.5417 15.5452C11.4585 15.9428 11.4169 16.5574 11.9065 16.7043ZM10.4474 16.3553C10.9758 16.6248 11.4835 16.9685 12.0785 17.0831C11.7262 16.8728 11.3559 16.6868 10.9606 16.5655C10.8829 16.4483 10.8011 16.3323 10.7178 16.2191C10.6388 16.0965 10.3336 16.1787 10.4474 16.3553ZM33.3731 19.6534C33.2858 20.9042 33.4827 22.1698 33.2344 23.4112C33.9265 23.1322 34.6658 22.868 35.1887 22.3208C35.7088 21.8409 35.7921 21.1158 35.7449 20.4567C35.6145 18.9687 35.1152 17.5319 34.5465 16.1531C34.0098 17.2637 33.5326 18.4282 33.3731 19.6534ZM22.0108 16.8162C21.9983 17.1195 21.8055 17.3486 21.5989 17.5575C21.5573 17.7462 21.4574 17.9336 21.4976 18.1317C21.9165 17.9012 21.8596 17.3756 22.0469 17.0022C22.2813 16.8351 22.5462 16.7165 22.7834 16.5561C22.5185 16.6194 22.2632 16.7151 22.0108 16.8162ZM22.9734 16.7097C22.8929 16.8917 22.8083 17.0723 22.7348 17.257C23.0039 17.2812 23.273 17.2987 23.5435 17.3149C23.549 17.2799 23.5615 17.2111 23.567 17.1761C23.3423 17.1006 23.1218 17.0184 22.9054 16.9267C23.2411 16.9119 23.5795 16.9079 23.9166 16.8904C23.8111 17.0656 23.7085 17.2421 23.61 17.42C23.9817 17.412 24.1357 17.0885 24.3382 16.8486C24.3507 16.9995 24.3743 17.3028 24.3867 17.4537C24.8139 17.4497 25.176 17.2192 25.5116 16.9874C25.0206 16.7933 24.4811 16.8984 23.9706 16.8027C23.6405 16.7502 23.3077 16.7259 22.9734 16.7097ZM9.83155 17.2489C9.75943 17.2934 9.61657 17.3837 9.54583 17.4281C9.75527 17.4632 9.9758 17.606 10.188 17.5346C10.4252 17.4618 10.3295 17.1667 10.3822 16.986C10.1339 16.9443 9.90784 16.9793 9.83155 17.2489ZM10.6984 17.4699C11.3143 17.7044 11.9717 17.8096 12.5917 18.0347C12.5057 18.1061 12.4211 18.1775 12.3365 18.249C11.7609 18.0374 11.1548 17.9012 10.5459 17.8123C10.335 17.7584 10.1464 17.8608 9.97857 17.9713C10.98 18.2961 12.0452 18.4309 13.0147 18.8487C13.2311 19.0981 13.3573 19.4256 13.6486 19.6103C13.865 19.7949 14.1534 19.6548 14.4003 19.6318C14.1243 19.4472 13.9745 19.1695 14.0134 18.8407C13.5251 18.8258 13.1035 18.5765 12.6555 18.4215C12.7387 18.3514 12.8233 18.2813 12.9065 18.2112C13.3212 18.3864 13.736 18.6493 14.2089 18.5158C13.9842 18.3298 13.6944 18.3177 13.4142 18.3015C13.1007 18.2827 12.876 18.0441 12.6333 17.881C12.5626 17.8594 12.4197 17.8163 12.3476 17.7947C11.9134 17.5414 11.4224 17.3971 10.9509 17.226C10.8635 17.3041 10.7789 17.385 10.6984 17.4699ZM26.9374 17.9929C27.0761 18.1856 27.348 17.9848 27.5408 17.9902C27.556 17.8244 27.5713 17.6573 27.5838 17.4915C27.4395 17.4093 27.3022 17.3163 27.1483 17.2556C26.8154 17.2853 26.6684 17.792 26.9374 17.9929ZM9.47232 17.8257C9.14776 18.0886 8.88146 18.4134 8.77327 18.8164C9.14915 18.5024 9.45845 18.125 9.7941 17.7718C9.71366 17.7853 9.55276 17.8123 9.47232 17.8257ZM21.9026 18.5873C21.9761 18.594 22.1245 18.6061 22.1981 18.6115C22.3215 18.4767 22.4463 18.3433 22.5739 18.2139C22.8083 18.4538 23.0649 18.718 23.4394 18.6776C23.7598 18.6668 24.2813 18.9754 24.4034 18.5131C24.5795 18.3932 24.7585 18.2773 24.9374 18.1627C24.6614 18.1061 24.3812 18.0737 24.101 18.0454C23.9679 18.2517 23.8153 18.4444 23.6489 18.6264C23.3396 18.3069 22.8902 18.2045 22.5032 18.0064C22.9359 18.0171 23.3604 18.098 23.7931 18.1196C23.5157 17.8298 23.0899 17.8729 22.7251 17.8177C22.3867 18.0023 22.0205 18.2004 21.9026 18.5873ZM9.09367 19.3326C8.45981 19.9176 7.69973 20.3799 7.18793 21.0821C6.88279 21.442 6.7316 21.9043 6.39872 22.2426C5.64697 22.717 4.69826 22.5499 3.86606 22.7682C3.14204 22.961 2.39306 23.24 1.8868 23.8047C1.53035 24.228 1.26265 24.763 1.29872 25.3224C1.375 25.5327 1.60247 25.6189 1.80497 25.6742C4.83141 26.406 7.98823 26.4937 11.0757 26.1392C11.618 26.0529 12.1825 26.0866 12.7082 25.9195C13.0328 25.6135 13.263 25.2267 13.5945 24.9275C14.2089 24.3412 15.0217 24.0312 15.7887 23.6848C16.6528 23.3195 17.313 22.6429 18.0287 22.0674C18.5711 21.6522 18.8762 21.0349 19.3852 20.5888C18.6113 20.6953 18.0315 21.2439 17.3505 21.5646C16.4351 22.0404 15.5085 22.7062 14.4239 22.6604C14.0896 22.2857 13.8483 21.7803 13.2852 21.7008C12.8178 21.4056 12.4488 20.9608 12.2713 20.4459C12.1839 20.0079 12.2241 19.5591 12.2255 19.1156C11.514 18.9741 10.8274 18.7221 10.1103 18.6169C9.71782 18.7692 9.41961 19.0806 9.09367 19.3326ZM21.2785 18.7584C20.8027 19.1358 20.6183 19.7181 20.37 20.2411C20.5794 20.1157 20.7847 19.9823 20.9872 19.8475C21.0857 19.5981 21.1634 19.3313 21.3437 19.1237C21.5157 19.0927 21.6904 19.0711 21.8666 19.0577C21.99 19.1924 22.0913 19.3744 22.2924 19.4094C22.9318 19.5793 23.5698 19.7518 24.2106 19.9189C24.0844 19.4863 23.5795 19.489 23.2397 19.3164C23.0053 19.1884 22.7459 19.1399 22.4796 19.1453C22.033 19.1736 21.6946 18.8514 21.2785 18.7584ZM18.492 20.5713L18.5932 20.5901C19.062 20.4837 19.6141 20.4352 19.8596 19.9701C19.4019 20.1669 18.9317 20.3381 18.492 20.5713ZM16.399 21.5498C16.4115 21.6307 16.4392 21.7911 16.4517 21.8706L16.7347 21.8922C16.7222 21.8275 16.6972 21.6981 16.6847 21.6334C17.3963 21.6226 17.9372 21.0565 18.4185 20.6225C17.7208 20.8611 17.1313 21.3705 16.399 21.5498ZM12.9759 21.132C13.6153 21.4487 14.2949 21.7587 14.6639 22.3962C14.9135 22.3464 15.1646 22.3059 15.417 22.2695C15.3421 22.2439 15.1909 22.19 15.116 22.1644C15.1396 22.0943 15.1854 21.9542 15.2076 21.8841C15.141 21.9259 15.0078 22.0121 14.9413 22.0539C14.8872 22.066 14.7804 22.0889 14.7277 22.0997C14.2519 21.6199 13.6666 21.2358 12.9759 21.132ZM15.865 21.942C15.8026 21.973 15.4212 22.1348 15.6486 22.1873C15.8192 22.1765 15.9829 22.1388 16.1396 22.0728C16.3518 21.8989 15.969 21.8194 15.865 21.942ZM35.2068 23.3721C34.0944 24.0204 32.9265 24.5757 31.8474 25.2752C30.7281 26.0489 30.1054 27.2646 29.2634 28.2795C28.5034 29.1974 27.3397 29.6611 26.1899 29.9239C23.4602 30.5372 20.6266 30.4239 17.8637 30.1139C16.1147 29.8754 14.2894 29.6853 12.7554 28.7607C12.6846 29.1489 12.4835 29.7446 12.9717 29.9468C15.1244 30.8633 17.5086 31.1383 19.8388 31.203C21.3548 31.2313 22.8805 31.2421 24.384 31.0237C25.5491 30.8418 26.7377 30.6477 27.8002 30.1234C28.6435 29.7123 29.2787 28.9872 29.742 28.2027C30.1359 27.5018 30.6186 26.8306 31.2704 26.3333C32.6242 25.1674 34.3191 24.4665 35.7075 23.3465C35.9613 23.1699 36.0071 22.868 36.0653 22.593C35.8018 22.8761 35.5563 23.1861 35.2068 23.3721ZM29.3134 22.748C29.7336 22.5512 29.3037 23.2049 29.3134 22.748ZM33.9141 23.5069C32.595 23.9961 31.4119 24.8021 30.4285 25.7807C29.7142 26.5651 29.14 27.4776 28.2939 28.1407C27.6684 28.6394 26.9083 28.9467 26.1358 29.1583C24.8028 29.5222 23.4242 29.7042 22.0455 29.7972C20.6918 29.812 19.3533 29.5802 18.0079 29.467C16.3172 29.3322 14.589 29.1381 13.0286 28.4507C14.5238 29.3376 16.3255 29.4373 18.0176 29.6678C20.7403 29.9899 23.5351 30.0263 26.2065 29.3497C26.7849 29.1893 27.3633 28.9993 27.8737 28.6812C29.0859 27.9776 29.7323 26.7039 30.6394 25.7025C31.6089 24.6835 32.9099 24.0608 34.1804 23.4691C34.5299 23.3006 34.903 23.1564 35.1915 22.8922C34.7587 23.0836 34.3565 23.3343 33.9141 23.5069ZM35.4037 24.2643C34.3468 25.0043 33.1734 25.5852 32.1678 26.3966C31.8738 26.6177 31.681 26.929 31.5312 27.2552C32.0264 27.363 32.5215 27.4681 33.0181 27.5719C33.2386 27.6393 33.4453 27.5382 33.6325 27.4371C34.4689 26.9748 35.351 26.5422 36.0001 25.8332C36.1444 25.038 36.0431 24.2293 36.1249 23.4287C35.9349 23.7441 35.7199 24.0554 35.4037 24.2643ZM0.739754 26.6109C0.705079 26.8737 0.596893 27.1662 0.768881 27.4075C0.9589 27.5989 1.23907 27.669 1.48735 27.762C2.98115 28.2162 4.5443 28.3995 6.09913 28.5141C7.85646 28.6866 9.63182 28.661 11.3864 28.4763C11.6957 28.444 12.0189 28.4008 12.2865 28.2337C12.5376 28.0693 12.8913 27.8927 12.7873 27.5342C12.5015 27.5045 12.2158 27.5315 11.9315 27.5584C10.0854 27.7539 8.22263 27.7593 6.36959 27.6798C4.46524 27.5086 2.52483 27.328 0.739754 26.6109Z" fill="#DCBEB6"/>
<path d="M20.8264 3.35138C21.0261 3.26781 21.1329 3.47403 21.2259 3.60747C21.8181 5.14669 21.366 6.78026 21.0691 8.32892C20.8666 9.16728 20.6863 10.011 20.5781 10.8655C20.4963 11.6406 20.1939 12.3697 19.9859 13.1164L20.0483 13.1218C20.1454 13.1029 20.2411 13.1097 20.3354 13.142C19.7862 13.9871 19.6613 15.0142 19.137 15.8714C18.8444 16.2906 18.5531 16.7232 18.1481 17.0494C17.9997 17.1734 17.8457 17.3176 17.6335 17.3001C17.2119 17.7867 16.7001 18.2732 16.0191 18.3608C16.1619 18.1358 16.3894 17.9942 16.6266 17.8783C17.5531 17.4416 17.7542 16.3876 18.3936 15.6921C18.5392 15.5142 18.646 15.312 18.7501 15.1112C19.4838 13.5922 20.1371 12.0139 20.3881 10.3439C20.696 8.43406 21.3562 6.52148 21.0317 4.56982C21.0095 4.15603 20.7959 3.76651 20.8264 3.35138ZM19.8624 13.3914C19.3257 14.4589 18.8818 15.5681 18.2618 16.5952C18.2133 16.4847 18.1134 16.265 18.0635 16.1544C17.972 16.4617 17.8735 16.765 17.7653 17.0669C17.8499 17.0292 18.0205 16.9564 18.1065 16.9187C18.1384 16.8526 18.2036 16.7192 18.2355 16.6518C18.8846 16.3054 18.9442 15.5264 19.3007 14.9643C19.5046 14.4252 19.8125 13.8955 19.9262 13.3402C19.911 13.3536 19.8791 13.3779 19.8624 13.3914Z" fill="#DCBEB6"/>
<path d="M18.4615 4.98764C18.614 4.27463 19.7084 3.86894 20.2466 4.42694C20.6058 4.91081 20.6862 5.57394 20.4907 6.13599C20.5489 6.25864 20.6016 6.38399 20.603 6.52282C20.4657 6.50934 20.3381 6.46217 20.2091 6.41769C19.7625 6.66165 19.2035 6.70073 18.7985 6.35838C18.2493 6.12925 18.3117 5.4486 18.4615 4.98764ZM19.0454 4.47276C19.3505 4.49972 19.6557 4.52937 19.9608 4.55903C19.7777 4.65877 19.5697 4.79085 19.3519 4.65472C18.8013 4.89868 18.5877 5.68851 19.0856 6.08342C19.6349 6.48912 20.5004 6.09556 20.4948 5.40142C20.4269 5.43377 20.2923 5.49577 20.2244 5.52812C20.2063 6.02951 19.449 6.2856 19.1161 5.90147C18.6945 5.47825 19.2202 4.63046 19.7985 4.84342C19.8166 5.04829 19.6293 5.15477 19.474 5.24912C19.6654 5.27742 19.8568 5.30842 20.0496 5.34212L19.8194 5.0092C20.0066 4.94855 20.2396 4.95124 20.3006 5.17768C20.345 5.16825 20.4352 5.14803 20.481 5.13859C20.3603 4.93507 20.2743 4.71133 20.1203 4.53072C19.811 4.28946 19.3963 4.41481 19.0454 4.47276Z" fill="#DCBEB6"/>
<path d="M29.2995 5.10892C29.3757 4.60887 29.9222 4.43231 30.3619 4.34739C30.8349 4.26922 31.1816 4.67761 31.3772 5.04018C31.4451 5.32727 31.4521 5.62514 31.5298 5.91223C31.3259 6.26401 31.0554 6.57806 30.6629 6.7398C30.158 7.11584 29.3258 6.56323 29.4839 5.96749C29.7239 6.3651 29.9916 6.88402 30.5769 6.76406C30.1968 6.52145 29.8293 6.24514 29.6407 5.83136C29.6282 5.58605 29.6074 5.34075 29.5977 5.09409C29.4007 5.75588 29.2093 6.4271 29.2065 7.12124C29.2273 7.39215 29.1094 7.63745 28.9721 7.86524C28.8903 6.93523 29.1178 6.01466 29.2995 5.10892ZM29.9624 4.92292C30.1719 5.18979 30.4645 5.48362 30.3258 5.85158C30.3411 5.88258 30.3702 5.94592 30.3841 5.97692C30.4784 5.96884 30.6643 5.95401 30.7572 5.94727C30.7516 5.86775 30.7419 5.71005 30.7378 5.63053L30.5561 5.69792C30.5283 5.54427 30.502 5.38927 30.477 5.23427C30.7433 4.92696 31.201 4.92966 31.2052 5.42431C31.0499 5.40544 30.7378 5.36636 30.581 5.34614C30.8792 5.47014 31.1331 5.64266 31.1899 5.97962C31.2191 5.73297 31.2648 5.48901 31.3203 5.2464C31.0845 5.01322 30.9333 4.51453 30.5159 4.63718C30.3064 4.67761 30.1219 4.78814 29.9624 4.92292Z" fill="#DCBEB6"/>
<path d="M29.226 9.48538C29.1816 9.0352 29.5215 8.7252 29.9806 8.81281C30.0041 9.05946 30.0208 9.30746 30.0027 9.55412C29.7434 9.53255 29.484 9.50425 29.226 9.48538Z" fill="#DCBEB6"/>
<path d="M17.4378 12.1796C16.6694 11.7052 16.9787 10.5299 17.7541 10.2401C18.1854 10.0002 18.7763 10.1767 18.9719 10.6229C19.1494 10.9369 18.9899 11.2806 18.8872 11.5893C18.4864 11.8332 18.055 12.0381 17.5738 12.0597C17.5127 11.9114 17.4462 11.7645 17.374 11.6216C17.3893 11.7605 17.4212 12.0395 17.4378 12.1796ZM17.3851 10.8655C17.6487 10.7765 17.8997 10.6552 18.166 10.5744C18.4157 10.6418 18.5447 10.8776 18.6917 11.0609C18.589 11.0879 18.4864 11.1094 18.3824 11.1243C18.1452 11.4248 17.7804 11.4734 17.4129 11.4788C17.5946 11.592 17.7846 11.8225 18.0259 11.7052C18.3214 11.6176 18.442 11.286 18.7485 11.2092C18.6584 11.0057 18.7375 10.7105 18.5322 10.5636C18.1494 10.2967 17.6833 10.6134 17.3851 10.8655Z" fill="#DCBEB6"/>
<path d="M13.3504 11.3035C13.4378 11.3076 13.6126 11.317 13.6999 11.3224C13.7124 11.4976 13.6972 11.6728 13.6542 11.8467C13.2977 11.8508 13.3046 11.5758 13.3504 11.3035Z" fill="#DCBEB6"/>
<path d="M29.416 13.3685C29.6739 13.3186 29.9305 13.2606 30.1899 13.2148C29.9652 13.3833 29.7294 13.5356 29.4922 13.6852C29.4728 13.6057 29.4354 13.4466 29.416 13.3685Z" fill="#DCBEB6"/>
<path d="M28.6588 15.4374C28.5049 15.2811 28.6741 14.8862 28.914 14.9738C29.0597 15.1342 28.8946 15.5062 28.6588 15.4374Z" fill="#DCBEB6"/>
<path d="M27.2217 17.5279C27.4603 17.5185 27.42 17.8945 27.2023 17.8864C26.9706 17.8918 27.0109 17.5225 27.2217 17.5279Z" fill="#DCBEB6"/>
<path d="M9.26433 22.159C9.81913 21.9811 10.3698 22.2453 10.8802 22.438C11.0952 22.5108 11.2713 22.651 11.4156 22.8194C10.7165 22.5431 9.99806 22.3275 9.26433 22.159Z" fill="#DCBEB6"/>
<path d="M28.33 22.8936C28.3148 22.7157 28.5714 22.6065 28.7226 22.6752C28.9417 22.8976 28.4562 23.1281 28.33 22.8936Z" fill="#DCBEB6"/>
<path d="M27.5575 23.3438C27.6504 23.1268 28.0014 22.899 28.2427 22.9798C28.2302 23.2386 27.7697 23.3168 27.5575 23.3438Z" fill="#DCBEB6"/>
</svg>
