<svg width="34" height="45" viewBox="0 0 34 45" fill="none" xmlns="http://www.w3.org/2000/svg">
<path d="M17.5964 39.9308C17.346 39.1714 16.8826 37.633 16.7972 36.8252L16.7678 36.7995C16.7457 37.0017 16.6507 37.2132 16.6037 37.4161L16.4411 38.1067C16.1825 39.1772 15.8185 40.6112 15.1951 41.5382C12.8759 44.9868 7.6935 44.4829 4.64423 42.3865C4.14169 42.041 3.36637 41.477 3.24394 40.8385C3.18178 40.5142 3.30356 40.1353 3.35156 39.8141L5.64544 24.642C5.84653 23.5824 5.65073 22.3565 5.54269 21.2904L5.29978 18.9141L4.50989 14.8884C4.43995 14.6522 4.34897 14.4004 4.30631 14.1585L4.302 14.1326C4.16264 13.3404 5.18958 12.8761 5.51756 13.6107L5.52947 13.6381C5.85094 14.366 5.97998 15.1784 6.16298 15.9467C6.61383 17.8389 6.80587 19.7925 6.95883 21.7298L7.07344 23.7521C7.07367 23.9454 7.09308 23.9355 7.24326 24.0457L9.97102 26.0639C10.1643 26.21 10.5116 26.421 10.5656 26.6812L10.577 26.7578C10.6581 27.2814 10.1566 27.8288 9.62883 27.5259C9.41742 27.4046 9.20873 27.2287 9.01444 27.081L7.21786 25.7558C7.11895 25.6818 7.01306 25.6253 6.92255 25.5394L4.62872 40.5914C4.88686 40.8663 5.19684 41.0683 5.51311 41.2703C7.5787 42.5895 10.8133 43.3651 12.9944 41.8668C14.4595 40.8604 14.8792 38.8525 15.2209 37.2283L15.939 33.6889C16.0439 33.1109 16.0231 32.7787 16.0236 32.1873L16.0257 18.6681C16.0269 18.1892 16.0799 17.7116 16.241 17.2563C15.8021 15.1975 14.7566 13.194 13.3694 11.6214C13.1328 11.3531 12.8361 11.1203 12.5851 10.8614C11.3525 9.58979 10.5721 8.04831 9.77077 6.48967L8.39072 3.94928C8.27362 3.74753 8.2065 3.60967 8.27114 3.37229L8.25998 3.32588C8.058 3.46018 7.78355 3.54751 7.55883 3.64482L5.8793 4.34513C5.41387 4.53592 4.92281 4.69571 4.50455 4.98052C2.91408 6.06343 2.83214 7.60913 2.55384 9.36076L2.04516 13.649L1.66209 18.6751L1.62253 20.1181C1.61255 20.3177 1.57031 20.5136 1.56112 20.713L1.5323 22.392C1.52409 22.5514 1.48898 22.7082 1.48205 22.8676L1.44066 24.4933C1.43086 25.1934 1.36664 25.8258 1.36261 26.5267L1.36073 34.1593C1.36209 34.5202 1.48716 35.4573 1.44398 35.6645C1.30322 36.3394 0.45375 36.4131 0.146672 35.8328C0.0431249 35.6372 0.0763125 35.3148 0.0741563 35.0951L0.0569065 33.8624C0.0470627 33.668 0.00998459 33.4779 0.00285959 33.2826L0 25.9557L0.175218 20.4856C0.185343 20.2491 0.236484 20.016 0.24825 19.7784L0.280266 18.5977L0.698484 13.3351C0.849562 11.7539 1.00758 10.1758 1.28128 8.61076C1.66237 6.43182 2.04291 4.50868 4.36073 3.4756L10.592 0.839283L11.4254 0.423305C11.7012 0.293672 12.1115 0.279895 12.2012 0.227573C12.3529 0.13913 12.4824 0.0442969 12.6553 0C13.3904 0.0467109 14.1448 0.0153562 14.8822 0.0155906L20.2451 0.0140532C20.8064 0.00881254 20.8302 -0.0302718 21.3479 0.200236L28.95 3.37121C30.3159 3.99488 31.259 4.9674 31.7564 6.41935C32.2481 7.85476 32.3729 9.46398 32.5632 10.9587L33.083 16.8747C33.09 16.9631 33.1132 17.0488 33.1194 17.1371L33.4141 23.395L33.4574 25.164C33.4682 25.3572 33.5006 25.548 33.5044 25.7415L33.5081 34.0961C33.5068 34.5807 33.5449 35.1047 33.4655 35.5831C33.3079 36.5319 32.2123 36.284 32.131 35.7107C32.109 35.5554 32.1413 35.3673 32.1455 35.2095L32.1376 25.9632L32.0336 23.2386C32.0185 22.9442 31.964 22.6501 31.9565 22.3569L31.8563 19.1208C31.839 18.6205 31.7782 18.1169 31.7516 17.6003L31.0364 9.92954C30.7954 8.17135 30.6526 5.90293 28.9248 4.91059C28.4973 4.66506 28.0176 4.4986 27.5633 4.30857L25.3271 3.37501C25.3012 3.85051 25.0583 4.1177 24.8306 4.51965L18.4991 15.643C18.1068 16.3682 17.528 17.1578 17.4871 18.0107L17.4834 32.153C17.484 33.1614 17.6556 33.9149 17.8434 34.9044L18.8007 39.2084C19.352 41.266 20.5406 42.281 22.5686 42.5842C24.6304 42.8925 27.0352 42.4673 28.558 40.9444C28.8925 40.6098 28.9527 40.6541 28.8685 40.2079L26.821 27.0817C26.7505 26.5566 26.7092 26.0043 26.5881 25.489C26.3221 25.6085 26.0684 25.8409 25.8353 26.0152L24.6264 26.8569C24.2436 27.1242 23.821 27.6143 23.312 27.3857C22.5839 27.0586 22.8697 26.4011 23.3918 26.0281L26.1079 24.1498C26.2954 24.0217 26.4345 24.0566 26.4346 23.808L26.5302 21.849L26.9067 18.3256C27.0981 17.0496 27.3367 15.7824 27.6762 14.5362C27.7768 14.167 27.8771 13.3409 28.3241 13.2153L28.354 13.2076C28.4518 13.1813 28.5274 13.1623 28.6281 13.1856L28.7326 13.2119C28.9084 13.2645 29.06 13.4098 29.142 13.5705L29.1799 13.641C29.259 13.785 29.2392 14.0292 29.1929 14.1834C28.6959 15.839 28.387 17.5367 28.1858 19.2514L27.8791 22.6243C27.8373 23.5283 27.7687 23.9721 27.8919 24.8702L30.3 40.4975C30.4143 41.3966 29.1968 42.2976 28.5569 42.7146C27.0784 43.6779 25.6221 44.0415 23.8976 44.0459C20.6926 44.0543 18.692 43.0292 17.5964 39.9308ZM13.873 1.4808L13.803 1.49723C13.768 1.60649 14.0336 2.71626 14.0743 2.85887L14.1677 3.25731C14.2056 3.38804 14.2167 3.52646 14.2589 3.6556L15.1052 7.41817C15.1393 7.54074 15.1487 7.6666 15.1743 7.79045L16.2454 12.8647C16.3791 13.6689 16.5304 13.8085 16.7788 14.5287L16.849 14.6929L17.3069 12.365L19.7016 1.49022L13.873 1.4808ZM12.357 1.55607L12.3346 1.57131C11.756 1.95908 11.0411 2.11113 10.5468 2.43498C10.7684 2.73567 10.8803 3.05416 10.5707 3.3969C10.3855 3.60188 10.0893 3.6241 9.83592 3.67773C10.0559 4.17892 10.3862 4.65343 10.6431 5.14084L11.9932 7.71259C12.2812 8.20918 12.6012 8.68145 12.9375 9.14612C13.2959 9.5964 13.7997 10.2036 14.3236 10.4752C14.2703 10.063 14.151 9.64909 14.0717 9.23888L12.5664 2.39292C12.5063 2.12514 12.4869 1.82636 12.3962 1.56889L12.357 1.55607ZM21.0993 1.55048L18.705 12.3757L19.7599 10.5649C20.0828 9.92326 20.4676 9.31824 20.8279 8.69785L22.8677 5.13273C23.1334 4.65198 23.4783 4.17667 23.6771 3.66615L23.6527 3.66502C23.1642 3.63648 22.7025 3.35377 22.7623 2.80558L22.7767 2.71061C22.7964 2.5953 22.8801 2.5299 22.9219 2.42706L21.0993 1.55048Z" fill="#DCBEB6"/>
</svg>
