<svg width="54" height="41" viewBox="0 0 54 41" fill="none" xmlns="http://www.w3.org/2000/svg">
<path d="M21.9259 2.19554C22.2018 1.27695 22.8479 0.196875 24.3145 0.101574C26.6594 0.000979611 29.1096 -0.147265 31.3893 0.350414C33.0082 0.747499 31.9555 2.65351 33.7487 2.85999C36.0683 3.50592 38.4278 4.10419 40.6058 4.99366C41.5677 5.36163 42.4679 5.87784 43.5823 5.9652C45.7022 7.37617 46.3193 9.49925 47.4446 11.3391C48.3122 12.6865 48.6461 14.2087 49.8259 15.4476C51.6082 17.3059 51.4775 19.6779 52.5193 21.7427C53.0928 22.9763 51.8659 24.3158 52.7952 25.5018C53.6373 26.5739 53.9132 27.8393 53.5575 29.0491C52.9622 31.6751 54.1129 34.4918 52.6318 36.9987C51.5791 37.7558 51.6372 38.8518 51.2161 39.8127C49.1834 39.7915 46.9836 39.5665 45.2049 38.8332C45.0634 38.0364 45.4118 37.2343 45.2049 36.4401C44.9073 35.2198 44.7693 33.9835 44.4535 32.7631C44.174 30.5686 44.3519 28.3528 44.0107 26.1609C43.6368 24.9141 42.7365 23.789 41.9379 22.6666C42.1412 26.0498 42.7583 29.4409 43.7384 32.7446C42.4389 31.4183 42.2465 29.7691 41.8944 28.2125C41.6875 27.2463 41.3717 26.2933 41.241 25.3165C40.9869 25.1894 40.7328 25.065 40.4787 24.9379C40.2791 25.102 39.8761 25.4303 39.6728 25.5944C40.1339 27.8737 40.5477 30.1821 40.3843 32.4931C40.417 32.9061 39.9378 33.4514 39.3207 33.1496C38.2499 32.4587 38.0684 31.3495 37.7526 30.3886C37.3896 28.9511 36.856 27.4687 37.219 26.0048C37.611 24.9273 39.4514 25.4753 40.3226 24.795C40.5731 24.8506 41.0776 24.9591 41.3281 25.0147C41.3354 22.9048 40.8381 20.8215 40.7509 18.7196C40.5876 16.885 41.8726 15.2358 42.3046 13.4701C42.8382 11.4238 43.2774 9.36689 43.782 7.31793C40.2319 5.53899 36.2462 4.26302 32.206 3.21207C31.5635 4.34509 30.8883 5.47281 30.0861 6.55288C29.8756 6.88114 29.4255 7.05056 29.0407 7.2491C29.0951 7.96386 29.1822 8.67596 29.2621 9.39072L28.5034 9.30336C28.8628 8.56743 27.8791 8.55684 27.1749 8.41918C27.2184 11.4079 27.3818 14.4099 27.1277 17.4039C27.095 20.5779 27.1059 23.752 27.1059 26.9286C27.2838 29.7559 27.2874 32.5911 27.2402 35.421C26.9208 36.6122 26.9752 37.822 26.9825 39.0265C26.8228 39.0662 26.4997 39.143 26.34 39.1827C26.3472 38.7565 26.3037 38.3329 26.2274 37.9146C26.3908 37.8352 26.7139 37.6764 26.8736 37.597C26.9099 37.139 26.9716 36.6837 26.9643 36.2257C26.703 33.2185 27.0478 30.2006 26.7683 27.196C26.7429 22.7884 26.703 18.3834 26.7574 13.9757C26.9861 11.67 26.8554 9.35895 26.8554 7.05056C24.7718 6.03138 22.22 4.9116 21.6973 2.97382C17.9983 4.17831 13.7984 4.74747 10.6004 6.65612C9.97609 6.92614 10.3645 7.46088 10.5061 7.83679C11.0506 8.99628 11.7076 10.1319 12.0561 11.3364C12.8002 13.9122 14.0489 16.5382 13.3011 19.1934C13.646 20.0273 13.5915 20.9088 12.92 21.6527C12.9127 22.0021 12.9091 22.3516 12.9055 22.7036C14.0235 23.0557 13.7803 24.2285 14.9056 24.5408C15.8966 24.8267 16.9456 24.9909 17.9257 25.2953C18.1435 27.1881 17.4865 29.0385 17.0836 30.8915C16.8803 31.6539 16.6443 32.4508 15.9909 33.0835C14.8765 33.462 14.0199 32.6493 13.2757 32.186L13.8965 32.0325C14.0344 31.0451 13.8202 30.0365 14.1578 29.0623C14.3066 27.6593 14.499 26.2483 14.3901 24.8426C14.0707 24.1464 13.4863 23.5375 12.9744 22.9101C13.4246 25.9465 12.2339 28.9591 12.6949 31.9928C12.8183 33.012 13.6242 33.8829 14.2812 34.7539C14.6551 35.2701 15.2577 35.7042 16.0418 35.8736C18.0092 36.2998 20.0855 36.3237 22.122 36.3687C23.2291 36.3766 24.2745 36.7313 25.3889 36.6837C24.859 36.7366 24.3253 36.7896 23.7954 36.8452C23.7446 37.7638 23.5703 38.7326 24.162 39.5877C25.476 39.5374 26.7901 39.5056 28.1041 39.5533C27.821 30.5818 27.8319 21.605 28.0243 12.6336C28.0715 11.5006 27.9263 10.3596 28.1876 9.23718C28.5252 9.44631 28.8592 9.65544 29.1931 9.86722C28.7866 18.7937 28.9463 27.7307 28.9318 36.6625C32.0318 36.321 35.3024 36.6069 38.2826 35.8339C40.0721 34.685 41.6258 33.1602 41.5895 31.3283C42.2828 32.697 41.4515 34.1582 40.1447 35.1642C40.181 36.2125 40.2682 37.2846 39.9306 38.3144C39.4732 39.0186 38.2898 39.1536 37.3642 39.3521C34.9793 39.7015 32.5363 39.7624 30.1115 39.8127C27.9626 40.1992 25.741 40.0113 23.5558 39.9689C21.1419 39.7227 18.6844 39.6486 16.314 39.2118C15.4065 39.0186 14.3901 38.7194 14.009 38.0285C13.8493 37.5202 13.9436 36.9961 13.9509 36.4799C14.2994 34.7856 12.1141 33.5838 11.9 31.961C11.6894 30.2006 11.7802 28.4111 12.2956 26.6824C12.2448 25.2529 12.321 23.7705 11.7548 22.3886C10.8981 23.3575 10.7311 24.5223 10.1648 25.5812C9.7474 26.2695 9.84178 27.0345 9.68932 27.7652C9.19927 29.9518 10.0051 32.194 9.21379 34.3568C8.5967 35.8339 8.64752 37.3852 8.86895 38.9021L8.72375 39.1218C6.8289 39.7201 4.71989 39.9133 2.66896 39.8021C2.36404 39.2515 2.21158 38.6665 2.03009 38.0894C1.72154 37.0464 0.476461 36.2442 0.50187 35.1298C0.440161 33.5441 0.117094 31.9663 0.211473 30.378C0.138873 29.4117 -0.137004 28.4429 0.0844238 27.474C0.251402 26.386 1.25327 25.4885 1.48922 24.4138C2.11721 19.1511 4.12095 13.9784 7.2645 9.21865C8.03768 8.21534 8.7056 7.1538 9.67843 6.2458C11.341 5.12602 13.5189 4.55687 15.5626 3.9083C17.6353 3.24119 19.8133 2.77793 21.9259 2.19554ZM24.0894 1.05458C24.0059 2.042 24.986 3.12207 26.4525 3.07177C28.2639 3.20148 30.4273 2.77263 31.1424 1.41725C28.8483 0.991045 26.4416 0.983103 24.0894 1.05458ZM22.7245 3.24119C23.3779 4.53304 25.0513 5.32457 26.4888 6.12668C25.4652 5.22662 24.7029 4.16243 23.4832 3.39209C23.6102 3.20943 23.7337 3.02677 23.8607 2.84411C24.0095 3.06118 24.3145 3.49268 24.4633 3.70975C25.4289 3.74417 25.2655 4.70247 26.0097 5.02808C26.0024 4.57805 25.9697 4.12802 25.9298 3.67799C25.5123 3.59063 25.0876 3.51121 24.6629 3.43974C24.2092 2.98706 23.8934 2.43643 23.2255 2.12671C23.2291 1.89905 23.2364 1.44637 23.24 1.21871C22.7717 1.81433 22.4958 2.5635 22.7245 3.24119ZM30.1587 4.32126C30.1551 4.02477 30.1478 3.43444 30.1406 3.1406C29.6178 3.30737 29.0806 3.45562 28.5579 3.62769C28.881 4.06448 29.1968 4.50657 29.5307 4.94072C29.4182 5.39604 29.2948 5.85136 29.1641 6.30404C30.1805 4.98307 32.1261 3.6674 31.3784 2.01552C30.9246 2.77263 30.5471 3.54827 30.1587 4.32126ZM26.5142 3.72299C26.4452 4.16243 26.3654 4.60187 26.2964 5.04396C26.6122 5.43575 26.8845 5.85136 27.2983 6.19815C27.7048 6.23521 28.1187 6.22198 28.5288 6.16109C28.7212 5.31133 28.3909 4.48804 28.0533 3.68063C27.5379 3.69387 27.026 3.70975 26.5142 3.72299ZM26.9897 7.03203C26.968 7.56942 27.6867 7.72561 28.2203 7.91885C28.2711 7.70707 28.3764 7.28352 28.4272 7.07174C28.0678 7.06115 27.3491 7.03997 26.9897 7.03203ZM4.68359 16.0644C3.90315 17.6236 3.39132 19.2437 2.8432 20.8506C2.4076 22.3463 2.75245 23.9134 2.18981 25.3959C1.91393 26.01 1.44929 26.5739 1.26053 27.2092C1.02096 28.0749 1.36943 28.9485 1.31861 29.8168C0.872127 31.6301 1.50737 33.4541 1.71428 35.2621C1.77962 36.1781 2.94121 37.1575 4.26978 36.6466C4.71989 36.6546 5.17001 36.6678 5.62012 36.6784C5.58383 36.4401 5.51123 35.9636 5.47493 35.7254C5.76532 35.9848 5.92141 36.284 5.94319 36.6228C6.54214 36.4057 7.46778 36.3819 7.68558 35.8207C8.04131 35.0027 8.30993 34.1635 8.48417 33.3138C8.73101 32.2522 8.32808 31.188 8.40068 30.1212C8.36801 29.0199 8.68745 27.9399 8.76368 26.8439C7.7618 27.0133 6.78534 27.2728 5.75443 27.3098C6.56392 26.558 7.93967 26.4283 9.08311 26.0789C9.61309 25.2476 10.016 24.3767 10.2302 23.4713C10.0378 23.376 9.65302 23.1854 9.46063 23.0901C9.20653 23.0822 8.95606 23.0743 8.7056 23.069L9.6022 22.8413C9.58405 22.7592 9.54775 22.5951 9.5296 22.5131C9.73651 22.6375 9.94342 22.7672 10.1467 22.8969C11.3518 21.6898 12.0778 20.2338 12.1976 18.7407C12.1613 17.8089 11.341 17.0095 11.2066 16.0829C11.9943 16.4721 12.3174 17.0995 12.459 17.7613C12.7712 16.8136 12.4953 15.8473 12.2993 14.9049C11.7112 12.4086 11.0651 9.90163 9.80911 7.52971C7.44963 10.1399 6.08839 13.1339 4.68359 16.0644ZM44.2466 7.83149C43.3899 10.0631 43.448 12.4192 42.5623 14.6455C42.2102 15.7282 41.4915 16.7765 41.6149 17.9148C41.7274 18.8149 41.8363 19.7149 41.9198 20.6176C42.4062 22.3569 43.4734 23.9876 44.8419 25.4462C45.6841 26.2033 47.1324 26.1583 48.2868 26.4892C48.9474 26.1715 49.5173 25.7691 50.0981 25.38C49.619 26.0789 48.7696 26.5554 47.8149 26.8757C47.0453 27.5004 46.3411 28.2549 45.1904 28.5196C45.5062 30.1 45.332 31.7228 45.9817 33.2661C45.7893 34.2138 45.7785 35.2489 46.4464 36.1039C48.1053 36.3819 49.8077 36.5143 51.492 36.6863C52.0619 36.4693 52.2035 35.9636 52.356 35.5507C52.6536 34.28 52.4612 32.9855 52.4431 31.7042C52.356 30.1106 52.7008 28.509 52.3959 26.9233C52.1853 26.0524 51.6336 25.2582 51.2198 24.4349C50.4974 24.0564 49.4738 24.3979 48.8131 24.0987C49.1725 23.3999 50.5373 24.3026 51.2597 24.2629C51.5247 23.6275 51.8042 22.934 51.3541 22.3039C50.345 20.7659 50.9875 18.9711 49.9674 17.4357C49.0382 15.9056 47.8076 14.4761 47.1796 12.8533C46.1778 11.1882 45.6187 9.36424 44.2466 7.83149ZM15.3593 25.0226C15.4973 27.5269 14.666 30.0074 14.902 32.5143C14.7531 33.1655 15.9583 32.9776 15.9365 32.4878C16.51 30.1741 16.775 27.8208 17.1707 25.4859C16.579 25.3085 15.9764 25.1523 15.3593 25.0226ZM37.5203 26.3912C37.4695 27.7307 38.0321 29.0252 38.3044 30.3409C38.5693 31.0954 38.5947 32.0722 39.662 32.4825C39.5458 30.0762 39.0558 27.6778 38.4931 25.3059C37.8361 25.4409 37.4731 25.9174 37.5203 26.3912ZM44.7984 25.9756C44.9327 26.6957 45.0379 27.421 45.2085 28.1411C46.3665 28.149 46.9691 27.3601 47.6479 26.8174C46.6823 26.5686 45.695 26.3462 44.7984 25.9756ZM30.8266 37.1708C30.0317 37.2449 28.6922 37.0596 28.8084 37.9464C30.3257 37.8723 31.8503 37.8591 33.364 37.7346C35.1935 37.6155 37.219 37.8432 38.838 37.0622C39.3389 36.8505 39.3643 36.4031 39.5313 36.0457C36.9104 37.184 33.7596 37.0517 30.8266 37.1708ZM14.6224 36.0589C14.6116 36.7525 15.5808 36.9484 16.3104 37.0993C18.5864 37.4514 20.9422 37.5758 23.2581 37.4249C22.9968 37.1417 22.612 36.914 22.1074 36.9669C19.581 36.8981 16.9529 36.8743 14.6224 36.0589ZM3.04648 37.6552C3.10456 38.1503 3.17353 38.6426 3.25339 39.135C4.83968 39.143 6.38242 38.8756 7.89248 38.55C7.80899 38.0497 7.71099 37.5546 7.58031 37.0622C6.09928 37.3667 4.5638 37.4937 3.04648 37.6552ZM46.479 37.0146C46.45 37.4567 46.4173 37.9014 46.3593 38.3435C47.706 38.6479 49.0527 39.0688 50.4938 39.0027C50.3813 38.4335 51.2524 37.2661 49.5936 37.4884C49.5355 37.7188 49.4157 38.182 49.354 38.415C48.9147 38.145 49.3939 37.7638 49.4774 37.454L48.0508 37.2555C48.0762 37.454 48.127 37.8538 48.1525 38.055C48.0181 38.1264 47.7459 38.272 47.6116 38.3435C48.069 38.0126 47.9201 37.544 47.9492 37.1231C47.4519 37.1364 46.9618 37.0993 46.479 37.0146ZM14.6261 37.0146C14.6479 38.0867 16.1688 38.4441 17.3594 38.5976C19.3305 38.8359 21.3306 38.9179 23.3235 39.0106L22.9605 38.6638C21.425 38.3779 19.7915 38.4494 18.2851 38.0761C19.9113 38.0338 21.5266 38.2244 23.1529 38.2456C23.1129 38.1503 23.0258 37.9623 22.9859 37.8696C20.2053 37.6976 17.0073 38.4017 14.6261 37.0146ZM36.9867 38.0523C34.5074 38.3329 31.9882 38.3726 29.4835 38.4229L29.3528 39.053C31.7958 39.09 34.2279 38.8941 36.6455 38.6744C37.9414 38.5209 39.4732 38.1132 39.691 37.0093C38.8525 37.4302 38.0394 37.9517 36.9867 38.0523Z" fill="black"/>
</svg>
