<svg width="48" height="48" viewBox="0 0 48 48" fill="none" xmlns="http://www.w3.org/2000/svg">
<path d="M6.29355 21.6268L6.8088 20.2465C6.95903 19.8083 6.94211 19.9391 6.94778 19.4235L6.94239 15.719L6.78761 13.8635C6.51789 11.4293 6.12723 9.06675 5.41169 6.71869L5.05412 5.56055C4.93023 5.18714 4.63183 4.62535 4.76012 4.22466L4.80883 4.08847C4.91416 3.84344 5.10091 3.70166 5.34339 3.607L5.41337 3.58135C6.31361 3.31885 6.56837 4.28341 6.77284 4.92211C6.95008 5.47575 7.15675 6.02461 7.29597 6.58969L8.10841 9.9143L8.25001 10.7932C8.55428 12.5014 8.71558 14.225 8.79409 15.9555L8.79531 19.6877C8.73761 20.6701 8.95811 20.7492 9.38805 21.6279C10.1662 23.2183 12.4195 24.5929 13.7934 25.6164C16.9988 28.0041 19.1034 30.9043 20.7187 34.512L21.4525 36.6986C21.4916 36.9093 21.5378 37.1153 21.574 37.3282L26.4015 37.329C26.4578 37.245 26.4573 37.0778 26.4812 36.9758L26.9697 35.2564C28.2295 31.5848 30.6367 28.4178 33.6815 26.042C35.6773 24.4847 37.9831 23.2979 38.9955 20.8402L39.0627 20.6716C39.302 20.0557 39.163 19.5607 39.1264 18.9167C39.0944 18.3518 39.1051 17.7667 39.1254 17.2011L39.351 13.7932C39.6296 11.0448 40.1235 8.34112 40.9537 5.70244L41.323 4.56981C41.5016 4.06785 41.6294 3.6711 42.2108 3.54319C42.4003 3.52864 42.6017 3.53322 42.7662 3.64091L42.7958 3.66109C42.9438 3.75979 43.0574 3.87274 43.137 4.03293L43.1859 4.129C43.2619 4.30303 43.2515 4.61819 43.1898 4.79714L42.2245 8.07445C41.9002 9.29526 41.6364 10.5104 41.4509 11.7607L41.1194 14.631C41.1022 14.8981 41.0606 15.1558 41.05 15.4236L41.0432 19.4504C41.046 19.6206 41.0301 19.824 41.0976 19.9822L41.1333 20.0632C41.2309 20.2865 41.2889 20.5445 41.3647 20.7776L41.7183 21.7151C42.2018 22.835 42.7865 23.9099 43.4044 24.9612L45.5905 28.4491C45.982 29.0977 46.4099 29.7415 46.6202 30.4795C46.749 30.9317 46.8439 32.5907 46.7277 33.1062L46.5903 33.7551C46.5274 34.0745 46.36 34.4113 46.203 34.6953C45.9456 35.1609 45.9378 35.2593 45.7985 35.7659L44.2007 40.8848C44.0315 41.3808 43.9167 41.9598 43.602 42.3875C42.8682 43.3849 41.6726 43.6327 40.5272 43.8707C37.5431 44.4909 32.521 44.7637 29.5863 43.8845C27.8553 43.366 27.0922 43.2217 25.228 43.0998L24.3333 43.0201C24.0329 43.0014 23.7275 43.0138 23.4265 43.0109L22.8981 42.9877C21.9938 42.9843 21.0178 43.0845 20.1461 43.3267C18.6656 43.7383 17.6268 44.2024 16.0618 44.319C15.1769 44.3849 14.4142 44.4232 13.517 44.4231L11.6621 44.4145C10.0287 44.349 8.38291 44.1163 6.80284 43.6949C4.39145 43.0518 4.28267 42.4631 3.51911 40.1132L2.03217 35.2027C1.95558 34.9563 1.79944 34.7377 1.68729 34.5056C1.13921 33.3709 1.06876 31.4625 1.47194 30.2502C1.65075 29.7125 1.9455 29.2375 2.23406 28.7544L2.9931 27.4906C4.15998 25.5754 5.41487 23.698 6.29355 21.6268ZM7.86381 22.6785C7.26695 24.1321 6.42522 25.4804 5.59309 26.8065L3.71892 29.8766C3.11507 30.8293 3.08754 31.0653 3.08604 32.1862C3.08569 32.4446 3.06469 32.736 3.11881 32.9885L3.13657 33.0705C3.56909 35.0946 5.66167 36.8976 7.44311 37.7686C9.58553 38.8161 11.9261 38.8442 14.2602 38.7331C14.4412 38.7245 14.6167 38.6734 14.7943 38.6654C16.3843 38.5347 17.204 38.2893 18.6365 37.7504L19.6926 37.388C18.7252 33.2503 15.9744 29.6166 12.6347 27.0689L10.0522 25.1604C9.28347 24.5436 8.29417 23.5885 7.86381 22.6785ZM40.133 22.7218C39.519 23.718 38.7527 24.561 37.8443 25.2981L35.6117 26.9356C32.152 29.5266 29.2118 33.1241 28.276 37.4284L29.8012 38.0401C30.8999 38.448 31.9563 38.6385 33.111 38.7614L35.1907 38.8135C37.3323 38.8093 39.0191 38.5889 40.9359 37.5476C42.4307 36.7355 44.7942 34.5538 44.92 32.7049C45.0382 30.9667 44.774 30.6539 43.8688 29.205L42.4583 26.9493C41.8932 26.0604 41.3359 25.1567 40.8466 24.2236L40.133 22.7218ZM4.85645 38.3115L5.88578 41.2934C5.92047 41.3823 5.96387 41.4177 6.03972 41.4729L6.05987 41.488C6.65969 41.9159 9.29739 42.3204 10.0895 42.4084L11.7096 42.5289C12.5945 42.5782 13.4891 42.6043 14.3759 42.5671L14.9107 42.5185C15.5343 42.4812 16.157 42.4661 16.773 42.3478C18.1372 42.0857 19.4091 41.5074 20.7887 41.2751L21.8478 41.1435C22.4636 41.0798 23.0613 41.0543 23.6825 41.0882L25.6754 41.2486C26.401 41.3143 27.1326 41.3259 27.8489 41.479L29.2965 41.8409C30.5477 42.2155 31.7894 42.5651 33.1061 42.573L35.8951 42.5693C37.5231 42.5049 39.1197 42.2937 40.7013 41.9025C41.4816 41.7095 41.9364 41.765 42.2024 41.0048L42.5982 39.8148L43.084 38.3378C42.6302 38.7932 42.0033 39.1149 41.4319 39.3948C38.7539 40.707 36.6846 40.6916 33.8551 40.6733C32.3494 40.6635 30.8255 40.3847 29.411 39.8722L28.1012 39.3756C27.5892 39.1866 27.4674 39.207 26.9177 39.2074L20.3785 39.1937C19.8704 39.2067 18.0237 40.0001 17.2848 40.1743C15.4615 40.6042 13.0913 40.7241 11.2428 40.6136C9.37712 40.5021 6.25792 39.6693 4.85645 38.3115Z" fill="black"/>
</svg>
