<svg width="43" height="37" viewBox="0 0 43 37" fill="none" xmlns="http://www.w3.org/2000/svg">
<path d="M29.7881 6.50864H38.1736C38.5775 6.50864 38.9776 6.58828 39.3509 6.74306C39.7241 6.89784 40.0632 7.12471 40.3489 7.41071C40.6346 7.69671 40.8612 8.03621 41.0159 8.40988C41.1705 8.78356 41.25 9.18409 41.25 9.58856V32.17C41.25 32.5745 41.1705 32.975 41.0159 33.3487C40.8612 33.7223 40.6346 34.0618 40.3489 34.3478C40.0632 34.6338 39.7241 34.8607 39.3509 35.0155C38.9776 35.1703 38.5775 35.25 38.1736 35.25H4.32627C3.51036 35.25 2.72787 34.9254 2.15094 34.3478C1.574 33.7702 1.25 32.9868 1.25 32.17V9.58856C1.25 8.77171 1.574 7.98831 2.15094 7.41071C2.72787 6.83311 3.51036 6.50864 4.32627 6.50864H13.1515C13.0735 6.32413 13.0735 3.19448 13.0735 3.19448C13.0725 2.93887 13.1221 2.68555 13.2194 2.44922C13.3166 2.21288 13.4597 1.99818 13.6402 1.81743C13.8208 1.63668 14.0353 1.49346 14.2714 1.39607C14.5074 1.29868 14.7604 1.24908 15.0157 1.25001H27.9308C28.4459 1.25001 28.9399 1.45485 29.3042 1.81951C29.6684 2.18417 29.873 2.67878 29.873 3.19448C29.873 3.19448 29.8377 6.32413 29.7881 6.50864Z" stroke="#363130" stroke-width="2.5" stroke-linecap="round" stroke-linejoin="round"/>
</svg>
