<svg width="59" height="55" viewBox="0 0 59 55" fill="none" xmlns="http://www.w3.org/2000/svg">
<path d="M3.90306 24.4542C4.40665 18.1357 7.2722 12.2388 11.9288 7.93849C16.5855 3.63816 22.6913 1.25011 29.0298 1.25C35.3579 1.2509 41.4542 3.63099 46.1089 7.91795C50.7635 12.2049 53.6362 18.0853 54.1566 24.3919M52.4743 35.5179C50.1094 41.5108 47.49 44.8636 40.0142 49.5818M52.4743 35.5179C51.7791 35.306 51.196 34.8275 50.8525 34.1871C50.5089 33.5467 50.4329 32.7963 50.6408 32.0999C51.1112 30.5443 51.3482 28.9275 51.344 27.3024C51.344 26.9428 51.415 26.5868 51.5528 26.2547C51.6907 25.9226 51.8928 25.6209 52.1475 25.3671C52.4022 25.1132 52.7045 24.9122 53.037 24.7754C53.3696 24.6386 53.7258 24.5687 54.0854 24.5699C54.4446 24.5687 54.8004 24.6386 55.1325 24.7755C55.4645 24.9124 55.7662 25.1137 56.0202 25.3676C56.2741 25.6216 56.4754 25.9233 56.6123 26.2553C56.7492 26.5874 56.8191 26.9432 56.8179 27.3024C56.8351 29.4618 56.5352 31.612 55.9278 33.6843C55.7593 34.2474 55.4138 34.7412 54.9423 35.0924C54.4709 35.4435 53.8989 35.6334 53.3111 35.6336C53.0282 35.6334 52.7466 35.5945 52.4743 35.5179ZM29.377 31.0229V29.2428C29.3776 28.4702 29.5852 27.7118 29.978 27.0466C30.3709 26.3814 30.9029 25.8573 31.6111 25.46C32.3192 25.0627 32.9086 24.4837 33.3185 23.7828C33.7284 23.0819 33.944 22.2844 33.9431 21.4725C33.9246 20.268 33.4374 19.1182 32.5848 18.2672C31.7322 17.4163 30.5814 16.9314 29.377 16.9153C28.1683 16.9153 27.0092 17.3954 26.1546 18.2501C25.2999 19.1047 24.8198 20.2638 24.8198 21.4725V22.4782M4.75754 35.6336C4.16972 35.6334 3.59765 35.4435 3.12624 35.0924C2.65484 34.7412 2.30927 34.2474 2.14077 33.6843C1.53339 31.612 1.23351 29.4618 1.2507 27.3024C1.2507 26.9428 1.32165 26.5868 1.45953 26.2547C1.59741 25.9226 1.7995 25.6209 2.05418 25.3671C2.30886 25.1132 2.61116 24.9122 2.94371 24.7754C3.27626 24.6386 3.6325 24.5687 3.99209 24.5699C4.35126 24.5687 4.70711 24.6386 5.03916 24.7755C5.37122 24.9124 5.67298 25.1137 5.92696 25.3676C6.18093 25.6216 6.38209 25.9233 6.519 26.2553C6.65591 26.5874 6.72585 26.9432 6.72468 27.3024C6.7249 28.9272 6.9617 30.5434 7.42776 32.0999C7.53195 32.4447 7.56719 32.8067 7.53142 33.1651C7.49564 33.5236 7.38965 33.8714 7.21937 34.1888C7.04909 34.5063 6.81783 34.787 6.53899 35.015C6.26015 35.2431 5.93917 35.414 5.59427 35.5179C5.32225 35.5958 5.0405 35.6348 4.75754 35.6336ZM41.3752 37.832C43.0491 36.1605 44.3503 34.1535 45.193 31.9431C46.0357 29.7327 46.401 27.369 46.2648 25.0073C46.1286 22.6457 45.494 20.3396 44.4028 18.2407C43.3115 16.1419 41.7883 14.2978 39.9333 12.8298C36.9838 10.5021 33.3395 9.22946 29.5821 9.21494C25.8248 9.20042 22.1708 10.4448 19.2034 12.7497C16.0206 15.2378 13.8426 18.7908 13.0692 22.756C12.2958 26.7211 12.979 30.8322 14.9934 34.334L11.9672 43.1725C11.9498 43.2225 11.9466 43.2764 11.9581 43.3281C11.9696 43.3798 11.9953 43.4272 12.0323 43.4651C12.0693 43.503 12.1161 43.5299 12.1675 43.5427C12.2189 43.5554 12.2727 43.5535 12.3232 43.5373L21.1706 40.5023C24.3628 42.3426 28.073 43.0784 31.726 42.5957C35.3789 42.1129 38.7706 40.4385 41.3752 37.832ZM40.2448 50.6669C40.2448 52.1367 39.0533 53.3282 37.5835 53.3282C36.1137 53.3282 34.9221 52.1367 34.9221 50.6669C34.9221 49.1971 36.1137 48.0056 37.5835 48.0056C39.0533 48.0056 40.2448 49.1971 40.2448 50.6669Z" stroke="#4B4544" stroke-width="2.5" stroke-miterlimit="10"/>
<circle cx="29.0301" cy="34.0301" r="1.25" fill="#4B4544" stroke="#4B4544" stroke-width="1.0603"/>
</svg>
