<svg width="39" height="48" viewBox="0 0 39 48" fill="none" xmlns="http://www.w3.org/2000/svg">
<path d="M7.21445 29.9377V37.5103C7.21445 39.8282 8.14241 42.0512 9.79418 43.6902C11.446 45.3292 13.6862 46.25 16.0222 46.25H28.4552C29.6112 46.25 30.7559 46.0239 31.8238 45.5845C32.8917 45.1451 33.8618 44.5012 34.6786 43.6894C35.4954 42.8777 36.143 41.9142 36.5842 40.8539C37.0254 39.7936 37.2517 38.6574 37.25 37.5103V9.98967C37.2508 8.84281 37.024 7.70701 36.5825 6.64712C36.141 5.58723 35.4934 4.624 34.6767 3.81245C33.86 3.00089 32.8903 2.3569 31.8228 1.91723C30.7553 1.47757 29.611 1.25084 28.4552 1.25H16.0222C13.6868 1.2517 11.4475 2.17303 9.79607 3.81166C8.14467 5.4503 7.21617 7.67229 7.21445 9.98967V17.5623M1.25 23.75H24.4681M24.4681 23.75L16.9592 18.0945M24.4681 23.75L16.9592 29.4055M31.0335 9.93196V37.568" stroke="#4B4544" stroke-width="2.5" stroke-linecap="round" stroke-linejoin="round"/>
</svg>
