<svg width="51" height="50" viewBox="0 0 51 50" fill="none" xmlns="http://www.w3.org/2000/svg">
<path d="M18.9953 49.3552V32.6996H13.8317V25.046H18.9953V21.7483C18.9953 13.2222 22.8524 9.27119 31.2219 9.27119C32.0589 9.27119 33.2152 9.35886 34.2859 9.48617C35.0879 9.5687 35.8835 9.70467 36.6673 9.89317V16.833C36.2142 16.7907 35.7595 16.7657 35.3044 16.7579C34.7946 16.7446 34.2846 16.7384 33.7745 16.7391C32.2989 16.7391 31.1468 16.9394 30.2785 17.384C29.6948 17.6769 29.2041 18.1264 28.8613 18.6822C28.3229 19.5588 28.0807 20.759 28.0807 22.3389V25.046H36.2603L35.4547 29.4353L34.8557 32.6996H28.0807V49.9083C40.4827 48.4097 50.092 37.8508 50.092 25.046C50.092 11.2143 38.8777 0 25.046 0C11.2143 0 0 11.2143 0 25.046C0 36.7926 8.08568 46.6482 18.9953 49.3552Z" fill="#0866FF"/>
</svg>
