<svg width="54" height="34" viewBox="0 0 54 34" fill="none" xmlns="http://www.w3.org/2000/svg">
<path d="M18.7509 7.37855H52.25M18.7509 7.37855C18.7509 10.7632 16.0229 13.5071 12.6577 13.5071C9.29252 13.5071 6.56449 10.7632 6.56449 7.37855C6.56449 3.99384 9.29252 1.25 12.6577 1.25C16.0229 1.25 18.7509 3.99384 18.7509 7.37855ZM1.25 7.37855H6.57815M34.7491 26.1215H1.25M34.7491 26.1215C34.7491 29.5062 37.4771 32.25 40.8423 32.25C44.2075 32.25 46.9355 29.5062 46.9355 26.1215C46.9355 22.7368 44.2075 19.9929 40.8423 19.9929C37.4771 19.9929 34.7491 22.7368 34.7491 26.1215ZM52.25 26.1215H46.9218" stroke="#4B4544" stroke-width="2.5" stroke-linecap="round" stroke-linejoin="round"/>
</svg>
