<svg width="68" height="26" viewBox="0 0 68 26" fill="none" xmlns="http://www.w3.org/2000/svg">
<path d="M26.2413 0.28565C26.6981 0.189579 27.1356 0 27.6223 0C28.051 0.710923 28.0616 1.51151 28.1705 2.27239C28.044 2.91799 27.9702 3.56999 27.8876 4.22071C28.5606 3.94658 29.2546 3.66606 30.0277 3.58152C31.0679 3.49954 32.0237 3.88766 33.0322 3.98757C33.851 3.99782 34.6628 3.88382 35.4798 3.85308C36.0438 3.80696 36.6658 3.84539 37.1402 3.57639C35.4868 3.44445 33.8176 3.5085 32.159 3.4547C31.0503 3.35863 29.9434 3.17033 28.8206 3.26256C28.7117 3.18442 28.6045 3.10757 28.4973 3.03071C30.1419 2.8565 31.7479 3.21901 33.3872 3.22413C34.4923 3.2062 35.5782 3.374 36.6693 3.4816C36.5691 2.9641 36.5674 2.40945 36.9908 1.9624C37.72 1.99187 38.4492 1.95088 39.1783 1.94831C39.6791 1.90989 40.1131 2.19425 40.2818 2.51705C40.3749 2.91158 40.041 3.28946 40.1236 3.68527C40.6103 5.23906 41.0654 6.82486 40.9758 8.4286C40.9793 9.66599 42.0933 10.7804 41.8016 12.037C41.7102 12.2637 42.218 12.2599 42.3885 12.1677C43.0948 11.9768 43.4251 11.4696 43.5657 10.9662C44.9291 10.5844 45.6759 9.59682 46.9111 9.07548C47.7333 8.70657 48.5205 8.29795 49.3322 7.91879C49.204 7.11051 49.4535 6.3112 49.6678 5.5247C49.9015 4.8125 50.5604 4.24376 51.0805 3.63788C51.4741 3.1857 51.3757 2.58879 51.8202 2.15839C52.6302 2.03414 53.1731 2.52474 53.579 2.95001C55.0145 2.87187 56.457 2.89877 57.8908 2.80526C59.3175 2.69382 60.7495 2.59263 62.1656 2.4197C62.1112 2.1443 61.8494 1.82534 62.1322 1.57428C62.503 1.37189 62.9985 1.42441 63.4342 1.39751C63.9754 1.40263 64.5376 1.35268 65.0647 1.46668C65.511 1.58837 65.6305 1.95856 65.6235 2.27111C65.5971 2.77452 66.0206 3.20108 66.126 3.68655C66.4387 4.99952 66.2384 6.33426 66.1664 7.65491C66.0733 8.72322 66.6953 9.71723 66.9957 10.742C67.4051 11.8718 67.2364 13.0554 67.5299 14.198C67.7864 15.1241 67.7249 16.081 67.5808 17.0148C67.4684 17.5412 67.3383 18.1484 66.6953 18.4776C65.7465 18.9784 64.6466 19.3025 63.5748 19.6343C61.8529 20.0045 60.2838 20.6539 58.6955 21.247C56.5765 22.0168 54.7457 23.1518 52.5599 23.8345C50.9048 24.3763 49.1372 24.7119 47.4645 25.2243L48.1058 25.2013C47.9864 25.2602 47.8669 25.3191 47.7474 25.378C47.4663 25.3678 47.1887 25.3588 46.9093 25.3511C45.0363 25.3345 43.1633 25.4126 41.2903 25.3819C39.2451 25.3793 36.9539 25.0584 34.9211 25.3428L35.1583 25.2423C35.6467 25.2333 36.1334 25.2179 36.6219 25.1885C34.5152 24.7453 32.2767 24.5813 30.2948 23.8563C29.6341 23.6142 29.172 23.1774 28.7152 22.7688C27.3236 22.8392 26.048 23.2888 24.7478 23.6206C23.5056 23.9331 22.4285 24.5249 21.1512 24.7722C20.3166 24.9566 19.4328 25.0027 18.6105 25.2218C15.678 25.4741 12.7192 25.3716 9.77789 25.2692C9.26133 25.2423 8.77287 25.396 8.25982 25.4062C5.50654 25.4536 2.75503 25.5074 0 25.4882V25.3473C2.91492 25.3639 5.82984 25.3435 8.74125 25.2589L8.77639 25.1526C6.83838 24.8682 4.8336 24.5672 3.12752 23.805C2.58108 23.5911 2.23495 23.1902 2.06979 22.7636C1.71311 21.8939 1.55673 20.9729 1.66743 20.066C1.83786 19.4037 2.2859 18.7261 3.12225 18.3854C3.34188 18.3111 3.61071 18.1317 3.83385 18.2931C3.79519 18.5839 3.32079 18.7287 3.10117 18.9528C3.34188 19.2769 3.63706 19.5997 4.10795 19.7675C5.45735 20.2748 6.96137 20.5053 8.44079 20.7192C11.0307 21.142 13.6961 21.2508 16.3439 21.247C18.224 21.2406 20.0899 21.0574 21.9594 20.9511C22.3864 20.9063 22.7852 21.0267 23.1278 21.1996C22.9117 21.1496 22.6974 21.0946 22.4865 21.0344C20.473 21.0049 18.5209 21.4686 16.5108 21.4648C14.109 21.484 11.6895 21.4058 9.33688 21.0331C7.64486 20.7769 5.92121 20.5194 4.37326 19.9379C3.76181 19.7252 3.35769 19.3192 2.85694 19.0041C1.85016 19.8802 2.1471 21.124 2.45809 22.1475C2.63731 22.8162 3.3858 23.308 4.25027 23.513C8.01559 24.4506 12.048 24.6159 15.9978 24.5249C17.602 24.5198 19.2026 24.4417 20.7963 24.3123C21.7099 24.2226 22.7554 23.937 23.0663 23.2376C23.5232 23.3119 23.9993 23.3477 24.4526 23.2414C25.8442 22.9558 27.1497 22.4908 28.5342 22.1898C28.2707 21.0549 27.9087 19.7304 28.9963 18.7517C26.6735 19.7854 24.0169 20.4951 21.2724 20.5271C19.6893 20.6091 18.1062 20.7205 16.5161 20.7269C13.3394 20.6347 10.1434 20.4656 7.05273 19.8828C6.11624 19.6778 5.04093 19.6202 4.29068 19.1155C3.73721 18.7722 3.8848 18.1305 4.15714 17.7167C5.35368 16.9802 6.88757 16.6318 8.28617 16.1527C10.0309 15.566 12.041 15.2663 13.4536 14.2582C13.6486 14.1736 13.8964 14.1416 14.044 14.0071C13.863 14.0468 13.6838 14.0878 13.5046 14.1301C13.5538 14.0366 13.6522 13.8483 13.7014 13.7535C14.3093 13.6843 14.8926 13.5485 15.4461 13.3513C15.5252 13.1066 15.6042 12.8607 15.7044 12.6186C16.0856 12.6147 16.4669 12.6109 16.8482 12.6109C17.3085 12.1357 17.558 11.5836 17.8761 11.0558C18.0606 10.7612 18.5209 10.7548 18.9022 10.7433C18.867 10.195 18.8459 9.55583 19.4258 9.14081C19.9283 8.87821 20.5995 8.97685 21.181 8.93714C21.413 8.33253 21.8347 7.78173 22.1773 7.20915C21.9893 7.29753 21.615 7.47174 21.427 7.55884C21.7152 7.19762 22.2405 6.92478 22.3354 6.48926C22.4321 5.95766 23.3422 6.03964 23.8342 5.81292C24.1575 5.30823 24.1873 4.7318 24.472 4.2143C24.783 3.54693 25.4313 2.99228 26.1974 2.57469C25.7423 1.97521 25.2732 1.36805 25.0096 0.708361C25.3224 0.449611 25.8231 0.409902 26.2413 0.28565ZM63.7645 1.72031C64.072 2.04695 64.4498 2.35309 64.3812 2.78733C63.6486 2.82192 63.0441 3.13831 62.3905 3.34326C60.565 3.90816 58.5742 4.19637 56.5888 4.13232C55.4643 4.06059 54.5155 4.58065 53.702 5.07509C53.5526 5.08919 53.4244 5.05588 53.319 4.97646C53.8338 4.59474 54.3767 4.21686 55.0584 3.99782C55.6277 3.76853 56.2989 3.8044 56.9279 3.79671C58.3529 3.82489 59.769 3.64172 61.1448 3.38553C61.6614 3.28306 62.3027 3.17674 62.4749 2.74634C61.4892 2.74634 60.5491 2.99484 59.5775 3.07939C58.46 3.17033 57.3426 3.30227 56.2146 3.27793C55.3483 3.26512 54.4663 3.19083 53.6124 3.32789C52.7304 3.75316 52.8498 4.59986 53.131 5.24034C52.9043 5.31847 52.7128 5.4312 52.53 5.55289C52.762 5.47603 52.9781 5.37996 53.196 5.28517C53.275 5.2762 53.4367 5.25827 53.5175 5.2493C54.5788 4.75486 55.8315 4.42181 57.1071 4.48202C59.0908 4.53197 61.0727 4.2143 62.9001 3.6635C63.5449 3.43677 64.2741 3.24975 64.6975 2.8027C64.9734 2.55036 65.2246 2.21219 65.0595 1.88555C64.7625 1.57044 64.195 1.69597 63.7645 1.72031ZM62.4292 2.10715C62.6927 2.21091 62.9985 2.20194 63.2866 2.23524C63.0986 2.33003 62.9141 2.42739 62.7349 2.52858C62.7648 2.61312 62.8245 2.78093 62.8561 2.86419C63.0371 2.79245 63.2128 2.71432 63.385 2.62978C63.3709 2.49271 63.3428 2.21859 63.3288 2.08025C63.7399 2.15711 63.696 2.494 63.8471 2.71304C63.9912 2.60544 64.1353 2.49784 64.2793 2.38896C63.9244 2.20194 63.5783 2.00596 63.2234 1.82022C62.9387 1.7139 62.2939 1.78691 62.4292 2.10715ZM37.1982 2.11612C36.9223 2.59391 36.8081 3.15368 37.1859 3.62251C37.6234 3.56358 38.0538 3.48032 38.4685 3.36119C38.0398 3.25872 37.4319 3.40346 37.156 3.07426C37.6691 2.97435 38.4316 3.34838 38.725 2.91799C38.3789 2.88724 38.0328 2.86419 37.6901 2.82576C38.0907 2.76427 38.5388 2.6951 38.9183 2.84882C39.0606 3.12294 38.8726 3.46239 38.4878 3.56486C37.0119 3.96196 35.457 4.16306 33.9055 4.32702C32.6914 4.46537 31.5915 3.93634 30.3914 3.95683C29.5111 4.03369 28.7222 4.40132 28.1547 4.8868C28.4499 4.79841 29.042 4.62036 29.339 4.53069C29.0578 4.64086 28.4956 4.86118 28.2145 4.97134C28.3902 5.04179 28.5676 5.11096 28.7486 5.17757C28.478 5.17629 28.0985 5.10968 28.1776 5.39789C28.5676 5.45682 29.0104 5.39405 29.3565 5.56313C29.7132 5.81164 29.9522 6.33426 29.4567 6.5738C29.0824 6.81205 28.5817 6.65706 28.1969 6.52256C28.1793 6.8223 28.0528 7.10795 27.9228 7.38976C28.6221 7.83937 29.4496 8.17882 30.1015 8.66686L30.156 8.80776L29.9855 9.06523C29.924 8.98197 29.7993 8.81545 29.736 8.73219C29.3671 8.54645 29.0069 8.35047 28.6397 8.16345C28.6941 8.34406 28.7556 8.52467 28.8118 8.70657C28.1688 8.84875 27.675 8.52595 27.4115 8.13014C27.2375 8.47344 27.0355 8.82185 27.0249 9.19333C27.0777 9.69289 27.596 10.1092 27.5134 10.6241C26.8053 10.5972 25.8179 10.8598 25.3435 10.3692C25.8143 10.3974 26.2852 10.4422 26.7596 10.4256C26.2448 10.2616 25.6861 10.2706 25.1396 10.3154C24.9745 10.546 24.8111 10.7791 24.6477 11.011C25.0202 11.116 25.4735 11.2057 25.6527 11.499C25.8038 11.7168 25.8934 12.1139 25.4893 12.2138C24.6319 12.3598 23.8236 12.0524 23.0294 11.8718C22.5146 12.1177 22.0824 12.4418 21.608 12.7249C22.23 13.0323 22.9961 13.1553 23.5583 13.5306C23.3563 13.8111 23.1085 14.0801 22.9961 14.3914C22.7606 14.3863 22.5164 14.3991 22.295 14.3273C21.6361 14.1237 20.8999 14.1557 20.2006 14.1583C19.6665 14.2313 19.3098 14.5707 18.9935 14.8641C19.6524 14.7065 20.5011 14.8436 20.8261 15.3252C21.0545 15.7915 20.2393 16.1488 19.6823 16.0438C19.1148 15.9119 18.6404 15.6313 18.0992 15.4533C17.9007 16.0118 17.7829 16.5895 17.9288 17.1634C18.2679 16.7701 18.3013 16.2885 18.5455 15.8632C18.6017 15.8709 18.7142 15.885 18.7704 15.8927C18.3505 16.35 18.238 16.8982 18.4418 17.4298C19.3871 17.4067 20.3078 17.212 21.2566 17.2133C21.5834 17.2223 21.9717 17.0967 22.2124 17.3504L22.3284 17.2095C22.0473 17.0276 21.5975 16.9033 21.8013 16.5652C21.8329 16.6561 21.8944 16.838 21.926 16.9277C22.411 16.9225 22.2247 16.6382 22.0279 16.4511C22.4584 15.8312 23.2842 15.4687 23.9519 15.0037C23.9361 14.964 23.9062 14.8858 23.8921 14.8474C23.7938 14.8666 23.5987 14.9076 23.5003 14.9268C23.7533 14.7962 24.0046 14.6553 24.1206 14.4349C23.9519 14.4516 23.6163 14.4849 23.4494 14.5016C23.6778 14.4413 23.9466 14.2902 24.1785 14.4285C24.1329 14.5528 24.0907 14.6783 24.0538 14.8039L24.103 14.8602C25.3628 13.9046 26.7579 13.0349 27.8736 11.9819C27.6083 11.818 27.2867 12.0421 26.9951 12.0485C27.097 12.0114 27.3026 11.9384 27.4062 11.9025C27.5169 11.7834 27.6294 11.6655 27.7436 11.5477L27.4062 11.5131L27.8543 11.5272C27.7453 11.4568 27.5275 11.3171 27.4203 11.248C27.5907 11.3261 27.7629 11.403 27.9368 11.4772C28.1899 11.1147 28.4675 10.7625 28.7521 10.4141C28.8241 10.5191 28.8997 10.6241 28.9753 10.7279C29.4373 10.5883 29.0701 9.84404 28.652 10.3808C28.7398 10.3103 28.919 10.1694 29.0086 10.099C29.2125 9.71339 29.5024 9.356 29.7185 8.97428C29.7765 9.04217 29.8344 9.11007 29.8924 9.17924C29.6429 9.46745 29.1703 9.73645 29.2581 10.113C30.3141 9.09982 30.6532 7.82272 31.1206 6.62504C31.2647 6.13956 31.5229 5.63999 31.3859 5.13914C30.5021 4.82403 29.5041 5.09815 28.5729 5.05972C29.5006 4.81763 30.5724 4.66135 31.4931 5.00336C31.6987 5.00208 31.9025 5.0008 32.108 4.99952L32.1151 5.05972C31.9763 5.05972 31.7004 5.061 31.5634 5.061C31.588 5.40174 31.5757 5.74118 31.5212 6.07935C31.6389 6.05758 31.8726 6.01146 31.9903 5.98841C31.6512 6.04605 31.414 6.19208 31.3349 6.45083C31.4492 6.46107 31.6741 6.48285 31.7865 6.4931C31.6741 6.50847 31.4474 6.53921 31.3349 6.55458L31.2875 6.89531C31.8058 6.91837 31.3824 7.36926 31.5019 7.61392C31.3666 7.5012 31.2348 7.3872 31.1048 7.27063C30.9642 7.78685 30.6163 8.27361 30.6198 8.80776C29.5744 10.0272 28.7433 11.344 27.5398 12.4892C26.7877 13.1438 25.9268 13.7266 25.1414 14.3581C25.1572 14.4785 25.173 14.6002 25.1888 14.7206C25.1432 14.6489 25.05 14.5041 25.0044 14.4311C24.1961 15.0293 23.3018 15.5583 22.4461 16.1181C22.5515 16.2283 22.6605 16.3359 22.7729 16.4435C22.6288 16.4396 22.4865 16.4345 22.3442 16.4281C22.4268 16.6958 22.4584 16.9725 22.4338 17.2466C22.6095 17.4247 22.7975 17.595 22.9978 17.759C22.8889 17.7308 22.6693 17.6757 22.5603 17.6488L22.6183 18.0126C22.7026 17.9908 22.8731 17.9498 22.9574 17.9281C22.5673 18.2073 22.9451 18.5903 22.9961 18.917C23.0909 19.0451 23.1876 19.1731 23.2895 19.3L23.1173 19.2538C23.3246 19.4639 23.3527 19.7214 23.358 19.9725C23.2034 19.8239 23.0593 19.6702 22.9205 19.5152C22.9574 19.4101 23.0101 19.3012 22.9592 19.1936C22.7466 18.6083 22.6148 18.0024 22.2845 17.4439C21.0616 17.0916 19.7596 17.385 18.5525 17.6206C18.7194 17.8627 18.8741 18.1074 19.0094 18.3598C19.1341 18.3405 19.3836 18.3008 19.5101 18.2816C19.3748 18.3546 19.2448 18.4315 19.12 18.5135C19.1113 19.095 19.1306 19.6778 19.1218 20.2607C20.1848 20.1697 21.2496 20.1428 22.3178 20.1684C22.4215 19.9994 22.5269 19.8303 22.6376 19.6625C22.7097 19.7598 22.8573 19.9532 22.9311 20.0506C24.5651 19.9853 26.0392 19.437 27.5169 18.9772C28.7258 18.5609 29.9891 18.215 31.1118 17.6796C32.853 17.2658 34.5222 16.7086 36.1158 16.0553C36.7009 15.7466 36.9153 15.1958 37.4916 14.8743C38.2664 14.3197 39.528 14.011 39.7951 13.1668C40.1219 12.7082 40.9793 12.5417 41.1884 12.0152C41.4379 11.4721 41.5609 10.7663 40.9565 10.3218C41.0285 10.2027 41.097 10.0849 41.1673 9.96573C41.0549 9.99263 40.8317 10.049 40.721 10.0759C40.7456 9.99263 40.7966 9.82483 40.8212 9.74157C40.7298 9.74926 40.5488 9.76591 40.4592 9.77359C40.4504 9.73517 40.4346 9.65703 40.4258 9.61732C40.5313 9.63909 40.7386 9.68137 40.844 9.70314C40.7193 9.3765 40.6929 9.00759 40.4135 8.72706C39.7195 8.88462 38.9974 8.94098 38.2893 9.05114C37.8571 9.14081 37.4037 9.14465 36.9592 9.13696C38.0784 8.98069 39.1731 8.75268 40.2818 8.5567C40.6191 8.07506 40.5154 7.51529 40.4768 6.99651C40.3274 5.91924 40.2378 4.81891 39.7037 3.79799C38.8832 4.32702 37.7341 4.37698 36.7203 4.57809C34.7471 4.833 32.6404 4.93547 30.7253 4.44487C32.6123 4.44999 34.5556 4.68697 36.4005 4.28091C37.1103 4.10798 37.8448 3.99526 38.595 3.98757L38.5845 3.84155C38.6477 3.85308 38.7742 3.87357 38.8392 3.88382C39.1098 3.50338 39.7055 3.24719 39.7424 2.78477C39.716 2.56317 39.6194 2.30954 39.3558 2.17632C38.6372 2.14046 37.915 2.18913 37.1982 2.11612ZM52.1822 2.34925C51.8624 3.29587 51.8887 4.30909 51.3159 5.20319C51.2088 5.43376 50.8486 5.49396 50.6079 5.6195C50.8697 4.93675 51.5303 4.35777 51.6304 3.64044C51.1473 4.23864 50.8609 4.90729 50.3794 5.50677C50.8644 5.89618 51.6586 5.67201 52.2226 5.49781C52.4527 4.94572 52.386 4.34624 52.711 3.81209C52.9552 3.31636 52.9957 2.56701 52.1822 2.34925ZM24.2822 5.78858C25.0008 5.15964 25.3505 4.35649 26.048 3.71345C26.2677 3.4009 26.7052 2.91671 26.1675 2.65539C24.9657 3.45342 24.4948 4.6511 24.2822 5.78858ZM64.1651 3.57255C62.4116 4.18228 60.5052 4.53966 58.5865 4.7318C57.7449 4.83043 56.8875 4.66135 56.0547 4.79329C54.9407 5.04051 53.8619 5.38508 52.9219 5.89234C53.1239 6.01274 53.3225 6.13828 53.5456 6.23947C53.7635 6.04221 53.9515 5.82701 54.194 5.64511C54.2924 6.28046 53.6616 6.7685 53.2996 7.29881C53.4349 7.33724 53.7038 7.4141 53.839 7.45381C54.3943 7.23476 55.0496 7.24757 55.6628 7.22324C55.6066 7.24373 55.4942 7.286 55.4379 7.30778C55.2359 7.29369 55.0356 7.28088 54.8353 7.26679C54.5788 7.34493 54.3205 7.41922 54.0692 7.5012C54.6367 7.64082 55.2007 7.79197 55.7788 7.90982C56.2304 7.35517 56.5818 6.75569 56.7417 6.11778C56.8787 5.68226 56.9244 5.1622 57.4533 4.86758C57.0175 5.46706 57.014 6.13828 56.7592 6.77363L57.1001 6.78387C56.4658 7.08874 56.1741 7.64851 55.9809 8.15961C56.2585 8.04176 56.4201 7.84065 56.5906 7.65107C56.4939 7.85858 56.392 8.06482 56.2954 8.27233C57.4146 8.59256 58.5848 8.79879 59.7462 9.01784C60.3084 9.11391 60.8935 9.1818 61.4716 9.14593C62.3624 8.98837 63.1302 8.60665 63.935 8.30435C64.5148 8.08787 65.0735 7.84321 65.62 7.58446C65.7271 6.92478 65.8167 6.26381 65.8115 5.60028C65.7992 4.70234 65.829 3.75572 65.2352 2.93976C64.9611 3.21773 64.5921 3.43421 64.1651 3.57255ZM24.927 5.75784C25.1484 5.83085 25.3698 5.90258 25.593 5.97432C25.8829 5.34409 26.0059 4.68569 26.157 4.03241C25.5719 4.53454 25.3048 5.17117 24.927 5.75784ZM26.1851 6.54562C26.5084 6.21641 26.5365 5.80779 26.4767 5.41967C26.2554 5.76808 26.034 6.15621 26.1851 6.54562ZM27.9175 5.96279C28.1811 6.27662 28.8083 6.59173 29.2687 6.29839C29.3636 6.09473 29.0596 5.95126 28.9612 5.78858C28.8821 5.95126 28.7925 6.11138 28.6889 6.26637C28.7134 6.14724 28.7609 5.90899 28.7837 5.78858C28.4938 5.84366 28.2057 5.90258 27.9175 5.96279ZM26.9652 6.21001C26.8932 6.36885 26.8211 6.52897 26.7526 6.68908C26.8756 6.70061 27.1233 6.72495 27.2463 6.73648C27.3465 6.54049 27.4431 6.34323 27.4958 6.13828C27.364 6.15621 27.0987 6.19208 26.9652 6.21001ZM26.345 6.88635C26.3098 6.99267 26.2817 7.09898 26.2589 7.20786C26.4662 7.2322 26.6753 7.25142 26.8844 7.26551C26.7087 7.13485 26.5295 7.00804 26.345 6.88635ZM22.7659 7.40641C22.411 7.94697 21.8399 8.42092 21.7117 9.02936C21.9313 8.85516 22.1421 8.67454 22.3512 8.49265C22.3249 8.63612 22.2757 8.92433 22.2493 9.06779C23.17 9.34063 24.0907 9.61604 25.0202 9.87094C26.0041 9.25609 25.1414 8.24671 25.6105 7.48967C25.4682 7.56012 25.3276 7.63186 25.1888 7.70487C25.0465 7.45893 24.9481 7.12973 24.5194 7.07977C23.9308 6.9901 23.054 6.90941 22.7659 7.40641ZM51.5215 8.43501C51.3704 8.60409 51.2263 8.77574 51.1086 8.95763C52.0188 8.63227 51.7868 7.73305 51.7429 7.12845C51.4618 7.52938 51.6269 8.00461 51.5215 8.43501ZM26.2624 7.74074C26.0691 8.2672 25.8565 8.79879 25.8776 9.35088C26.1359 8.87181 26.4082 8.39402 26.8141 7.97003C26.6296 7.89317 26.4469 7.81631 26.2624 7.74074ZM27.7295 7.76251C27.8349 8.02254 27.9878 8.27105 28.1617 8.51186C28.6256 8.23646 28.03 7.92391 27.7295 7.76251ZM53.6739 7.77532C53.9199 7.88164 54.1781 7.97387 54.4399 8.06097C54.208 8.12502 53.9814 8.19675 53.76 8.27617C54.1483 8.321 54.5383 8.37608 54.9249 8.43373C54.9143 8.35047 54.8933 8.18651 54.8827 8.10452C55.011 8.10452 55.271 8.10324 55.401 8.10196C55.2798 8.2672 55.1621 8.43373 55.0496 8.60153C54.3433 8.49649 53.6458 8.35303 52.9307 8.28258C52.8006 8.65277 52.6197 9.01399 52.4035 9.36241C52.6038 9.42646 52.8077 9.48922 53.0132 9.54815C53.152 9.7864 53.2979 10.0836 52.9711 10.2834C52.5705 10.6446 51.9748 10.2834 51.5514 10.1425C51.1929 10.2309 50.8503 10.3539 50.4954 10.4474C50.4427 10.6613 50.3935 10.8752 50.3548 11.0917C50.6746 11.0814 50.9997 11.0276 51.3195 11.0712C51.7007 11.3594 51.5268 11.9589 50.9645 12.0562C50.5341 12.0639 50.1282 11.9179 49.6924 11.9512C49.4148 11.8282 49.1565 11.6822 48.9088 11.5298C48.3518 12.0345 47.8054 12.5468 47.2379 13.0464C47.533 12.9324 47.779 12.6993 48.141 12.7146C48.5961 12.876 49.0107 13.1169 49.3147 13.4128C49.3797 13.6408 49.3164 13.9277 49.0072 14.0468C48.8333 14.116 48.2411 14.23 48.3413 13.9584C48.4731 13.8675 48.6066 13.7765 48.7419 13.6882C48.5996 13.7086 48.3132 13.7509 48.1691 13.7727C47.9495 13.5998 47.7386 13.3974 47.3819 13.3935C47.5032 13.6203 47.7913 13.742 48.0057 13.9136V13.993C47.6437 13.9443 47.3029 13.8188 46.9321 13.8073C46.3664 14.0122 45.8832 14.3261 45.2893 14.499C46.0044 14.5374 46.9234 14.9345 46.6528 15.5455C46.1011 16.1847 44.7569 16.063 44.2456 15.4546C44.1016 15.9477 43.968 16.4486 43.9575 16.9546C44.1244 17.0045 44.4618 17.1031 44.6287 17.1518C44.46 17.1941 44.1209 17.2786 43.9522 17.3209C44.0049 17.6168 44.2913 17.7244 44.6726 17.7218C44.7358 17.5617 44.8149 17.4054 44.8711 17.244C44.7394 17.171 44.597 17.1096 44.4582 17.0455C45.5248 17.1262 46.5895 17.2505 47.6648 17.2248C47.6947 17.0519 47.7228 16.879 47.7527 16.7073C47.6191 16.8598 47.4874 17.0135 47.3556 17.1672C47.2502 16.9148 47.5014 16.7317 47.7175 16.569C47.7035 16.5024 47.6771 16.3679 47.6648 16.3013C47.7369 16.2628 47.8845 16.1873 47.9582 16.1488C48.0883 15.7479 48.3571 15.3687 48.8473 15.1395C48.5644 15.0562 48.3782 14.8974 48.2692 14.6963C48.452 14.8653 48.6663 15.0114 48.9352 15.1062C49.2286 14.9025 49.5378 14.7091 49.8225 14.4977C49.9209 14.7462 49.8453 15.0165 49.5607 15.1856L49.8506 14.6873C49.515 14.9204 49.1653 15.1446 48.7753 15.329C48.8754 15.4059 48.9756 15.484 49.0775 15.5622L48.6874 15.379L48.7401 15.8363C48.7067 15.7518 48.6417 15.5814 48.6083 15.4968C48.517 15.5635 48.3325 15.698 48.2411 15.7646C48.4678 15.8939 48.4168 16.0092 48.1673 16.1027C48.2218 16.4178 48.2991 16.733 48.4537 17.0314C48.3465 16.9981 48.1304 16.9289 48.0233 16.8944C48.0338 17.0071 48.0566 17.2312 48.0672 17.3427C48.1744 17.3004 48.387 17.2171 48.4941 17.1749C48.589 17.6616 48.8754 18.1433 48.7841 18.639C48.7384 18.5135 48.6505 18.2624 48.6066 18.1369H48.4625L48.3202 18.1446C47.953 18.028 48.1058 17.5886 47.8985 17.3581C46.911 17.3657 45.9201 17.3145 44.9537 17.1672C45.0029 17.2633 45.1013 17.4567 45.1505 17.5528C44.959 17.7295 44.641 17.8038 44.4003 17.9409C44.4547 18.2457 44.4776 18.5532 44.5566 18.8542C44.6111 18.6428 44.6621 18.4302 44.7095 18.2176C44.7429 18.5007 44.9326 18.7709 44.9484 19.0502C44.8905 19.0079 44.7763 18.9221 44.7183 18.8798L44.576 18.8286C44.7675 19.2321 44.9186 19.6509 45.1979 20.0288C45.9904 20.0301 46.839 20.1236 47.5981 19.9366C47.6789 19.8303 47.7456 19.7201 47.8247 19.6138C47.8563 19.6958 47.9178 19.8572 47.9495 19.9392C48.3026 20.0954 48.8157 19.9353 49.2233 19.9789C49.2268 19.8546 49.2303 19.7291 49.2339 19.6048C49.023 19.3755 49.0248 18.9951 48.6224 18.8965C48.6698 19.1872 48.7489 19.4767 48.7753 19.7714C48.4994 19.3589 48.3553 18.8965 48.3465 18.4392C48.7103 18.3802 48.401 18.9964 48.9229 18.8632C49.03 19.1078 49.1706 19.3461 49.32 19.5792C49.3147 19.6702 49.3024 19.8546 49.2953 19.9456C51.3142 19.5715 53.3945 19.2154 55.199 18.4251C56.4148 17.8115 57.6922 17.2671 58.9573 16.7099C60.2926 16.1143 61.7615 15.698 63.0775 15.0805C64.2811 14.522 65.6059 14.1186 66.8147 13.569C66.9202 11.8833 66.5055 10.1732 65.576 8.62587C65.7324 8.38121 65.706 8.11477 65.6358 7.85602C65.4724 7.95337 65.3002 8.04432 65.1719 8.16729C65.2703 8.29923 65.3775 8.42732 65.4934 8.55157C65.2194 8.6169 64.9488 8.68479 64.6799 8.75652C64.7239 8.62202 64.8152 8.35303 64.8609 8.21853C64.4814 8.35431 64.1071 8.49905 63.7048 8.59513C63.9789 8.70401 64.2864 8.7245 64.5938 8.75012C64.2003 8.84619 63.812 8.95507 63.4184 9.05114C63.2023 9.07932 63.4447 8.74884 63.2532 8.82185C62.5662 9.15618 61.7545 9.30477 60.941 9.3496L61.0482 9.511C60.637 9.43158 60.2223 9.34832 59.7919 9.35729C59.899 9.31886 60.1134 9.23944 60.2188 9.19973C59.6513 9.07292 59.0697 8.97813 58.5005 8.85259C58.3493 8.94098 58.3546 9.08573 58.3441 9.2151C58.3353 9.19845 58.3177 9.16514 58.3089 9.14849C58.2527 9.01912 58.193 8.89102 58.1315 8.76421C57.3373 8.76677 56.6398 8.36199 55.8649 8.37737C55.9369 8.8321 56.7873 8.68735 57.202 8.88078C56.6837 8.89615 56.1759 8.82441 55.691 8.69504C55.4309 9.2151 55.0883 9.71339 54.8651 10.2437C54.6262 10.7753 53.8953 11.1314 53.8197 11.7053C52.7497 12.7159 51.4214 13.5537 50.2775 14.5144C50.1721 14.4375 50.0667 14.3594 49.963 14.2825L50.4128 14.2338C50.3794 14.1403 50.3162 13.952 50.2828 13.8585C50.9101 13.3641 51.5215 12.8594 52.1663 12.3778C52.4879 12.16 52.7655 11.9089 53.1099 11.7078C52.4334 12.4892 51.4407 13.0964 50.6043 13.7868L50.708 13.9174C51.2457 13.5703 51.6638 13.1373 52.1927 12.7825C52.7637 12.3893 53.2891 11.9563 53.6809 11.4568C53.5649 11.4555 53.3295 11.4542 53.2135 11.4529C53.2838 11.4196 53.4279 11.353 53.4999 11.3197C53.5368 11.2416 53.6089 11.084 53.6458 11.0059C53.6932 10.8778 53.7442 10.7497 53.7916 10.6229C53.8654 10.7676 53.9638 10.9072 54.0657 11.043C54.1729 10.806 54.3574 10.596 54.5331 10.3833L54.4153 10.3423L54.0692 10.6152C54.2063 10.3948 54.3802 10.1848 54.461 9.9478C54.4979 10.0477 54.5717 10.2488 54.6086 10.3487C54.8142 9.75438 55.2535 9.22279 55.4889 8.63484L55.192 8.61946C55.38 8.46831 55.4538 8.27745 55.51 8.08531C54.8968 7.9854 54.2976 7.83553 53.6739 7.77532ZM53.2698 8.02126C53.3734 8.06738 53.5825 8.16088 53.6862 8.207C53.9761 8.00973 53.2487 7.68438 53.2698 8.02126ZM52.53 8.14295C52.2612 8.64508 51.4618 9.25865 52.1751 9.7595C52.1154 9.60963 52.0521 9.46104 51.9819 9.31373C52.2437 8.94482 52.458 8.55798 52.53 8.14295ZM48.5187 8.98453C47.7123 9.44311 46.6984 9.66984 45.95 10.1912C45.2858 10.5281 44.7112 11.0725 43.8345 11.0763C43.8837 11.1468 43.9329 11.2185 43.9838 11.2902C44.7446 10.9495 45.5002 10.6062 46.2118 10.2104C46.0993 10.3475 45.8744 10.6241 45.762 10.7625C46.3312 10.6754 46.9075 10.6203 47.4786 10.5332C47.0868 10.4166 46.6791 10.327 46.3066 10.1809C46.8531 9.68521 47.7175 9.50331 48.3957 9.13056C48.8034 8.88206 49.45 8.78342 49.5993 8.36712C49.2233 8.55926 48.886 8.78471 48.5187 8.98453ZM26.1921 9.91321C26.4803 10.0029 26.7702 10.0874 27.0636 10.172C26.9564 9.77872 26.8194 9.39059 26.6981 8.99862C26.5154 9.29964 26.3555 9.60707 26.1921 9.91321ZM60.1977 9.23944C60.1784 9.41877 60.8566 9.52381 60.9427 9.33807C60.753 9.21254 60.4349 9.19461 60.1977 9.23944ZM19.6507 10.4627C19.9581 10.3282 20.2498 10.1528 20.6118 10.1041C20.8578 10.1528 21.0879 10.2309 21.304 10.3257C20.6487 10.3308 19.9529 10.4973 19.547 10.8919C20.5327 10.9098 21.5061 10.7445 22.4936 10.8022C22.2107 10.5191 21.9278 10.0375 21.3093 10.2924C21.3163 10.1989 21.3269 10.1054 21.3515 10.0131C21.2144 9.87094 21.0932 9.71979 20.9298 9.59298C20.1883 9.48922 19.9722 10.1156 19.6507 10.4627ZM22.1421 9.61732C22.2405 10.1899 22.7554 10.651 23.1981 11.1071C23.9835 11.4363 24.284 10.6664 24.5791 10.2937C23.7077 10.1745 23.0453 9.64678 22.1421 9.61732ZM48.7331 9.94268C48.8051 10.0656 48.8842 10.1873 48.958 10.3116C48.7946 10.2181 48.6435 10.1143 48.4818 10.0208C48.1744 10.1566 47.8599 10.286 47.584 10.4538C48.2464 10.7138 48.965 10.9508 49.7293 10.9751C49.8084 10.5281 49.5589 10.1066 49.464 9.6724C49.2198 9.76335 48.9773 9.85685 48.7331 9.94268ZM52.2876 9.75566C52.0574 9.92987 52.458 10.195 52.6935 10.0349C52.9658 9.85942 52.5195 9.59939 52.2876 9.75566ZM29.2581 10.113C29.2335 10.0887 29.2335 10.0887 29.2581 10.113V10.113ZM28.5817 10.751C28.55 10.8329 28.485 10.9982 28.4534 11.0814C28.5342 11.0404 28.6976 10.9597 28.7802 10.92C28.8294 10.774 28.7644 10.7176 28.5817 10.751ZM28.102 11.426C28.3269 11.5861 28.5782 11.2172 28.4534 11.0814C28.2391 11.1314 28.1213 11.2454 28.102 11.426ZM53.6739 11.1391C53.7231 11.1801 53.7231 11.1801 53.6739 11.1391V11.1391ZM47.5137 12.0281C47.266 12.2151 47.0815 12.438 46.9321 12.6724C47.4733 12.2573 47.9705 11.8129 48.4994 11.3914C48.0461 11.2966 47.5699 11.1993 47.0955 11.2659C46.398 11.3517 46.9357 12.2215 47.5137 12.0281ZM20.1497 11.5579C20.7523 11.7296 21.3638 11.3863 21.9436 11.6092C21.8663 11.7667 21.7152 12.0819 21.6396 12.2394C21.4692 12.119 21.3726 11.9614 21.2935 11.8013C21.0335 11.8026 20.7717 11.8116 20.5116 11.8193C20.7629 12.0601 20.9895 12.3137 21.2373 12.5571C21.7205 12.2842 22.107 11.9294 22.606 11.6668C21.8434 11.4286 20.9298 11.2723 20.1497 11.5579ZM24.3015 11.7117C24.6002 11.8013 24.9077 11.8731 25.2134 11.9461C25.2697 11.8923 25.3804 11.786 25.4366 11.7322C25.2837 11.6335 25.1924 11.4286 24.9481 11.4593C24.7162 11.5157 24.5159 11.6284 24.3015 11.7117ZM49.5624 11.3965C49.3094 11.5285 49.6327 11.8295 49.8787 11.7142C50.1247 11.5772 49.8154 11.2774 49.5624 11.3965ZM18.4928 11.5246C18.4137 11.9589 18.1484 12.3534 17.8111 12.7108C18.679 12.7351 19.5452 12.8235 20.3851 12.99C19.7965 12.4725 19.3555 11.8385 18.4928 11.5246ZM43.8819 12.7518C44.7534 12.7492 45.6425 12.6903 46.4946 12.8619C46.5491 12.6352 46.6387 12.4136 46.6545 12.183C46.3137 11.8551 45.6829 11.7911 45.1575 11.8064C44.5215 11.9166 44.2614 12.4149 43.8819 12.7518ZM40.8598 12.7723C41.2815 12.7454 41.7173 12.6839 41.9843 12.42C41.5416 12.3918 41.1691 12.5609 40.8598 12.7723ZM40.4276 13.3052C40.779 13.5127 41.1585 13.7548 41.6347 13.7714C41.9158 13.6356 42.1442 13.4525 42.3902 13.2859C41.914 13.1655 41.4502 12.9145 40.9231 12.9849C40.7404 13.0771 40.5752 13.1835 40.4276 13.3052ZM19.3379 13.3321C19.9669 13.6087 20.6768 13.8636 21.4358 13.7868C21.724 13.8227 21.7328 13.61 21.8066 13.4704C21.5992 13.4486 21.3919 13.4281 21.1846 13.4089C21.1196 13.5037 20.9878 13.692 20.9228 13.7868C20.3939 13.6344 19.8844 13.4473 19.3379 13.3321ZM44.402 13.3436C44.5109 13.4499 44.5847 13.6113 44.8061 13.5959C45.3455 13.6292 45.8832 13.6664 46.4173 13.7317C46.3277 13.6139 46.2451 13.473 46.0343 13.4614C45.5037 13.3551 44.9484 13.3397 44.402 13.3436ZM42.1003 13.9648C42.399 14.1032 42.6959 14.2441 42.9999 14.3773C43.1123 14.4747 43.4971 14.4478 43.3003 14.2825C43.0649 14.157 42.8066 14.0532 42.6028 13.8982C42.9472 14.011 43.2687 14.157 43.6026 14.2825C43.6922 14.2902 43.8679 14.3056 43.9557 14.3133C43.7712 14.4004 43.5903 14.4964 43.5059 14.6501C43.8591 14.6104 44.2175 14.5733 44.5689 14.5169C44.2509 14.1723 43.961 13.815 43.6518 13.4666C43.4532 13.4563 43.2564 13.4499 43.0579 13.4486C42.7662 13.6459 42.4394 13.8137 42.1003 13.9648ZM16.2209 14.0186C16.6005 14.1736 16.9817 14.3261 17.3683 14.4708C17.8093 14.5899 18.2415 14.727 18.6948 14.8192C18.3417 14.3632 17.7443 14.034 17.4667 13.5408C16.98 13.5857 16.5969 13.8111 16.2209 14.0186ZM18.1343 13.6664C18.2907 13.9469 18.5314 14.198 18.8477 14.3952C18.983 14.3081 19.1025 14.2108 19.2272 14.116C18.867 13.9623 18.5104 13.8009 18.1343 13.6664ZM22.3653 13.6036C22.36 13.7189 22.3512 13.9495 22.3477 14.0648C22.5744 14.1442 22.8116 14.2069 23.0593 14.2543C22.859 14.0212 22.6763 13.7701 22.3653 13.6036ZM37.6919 15.1689C37.6796 15.1971 37.655 15.2535 37.6427 15.2816C38.6425 14.9883 39.6791 14.7385 40.5752 14.2915C40.3731 14.1326 40.1711 13.9712 39.9848 13.8022C39.4085 14.4093 38.5195 14.7744 37.6919 15.1689ZM44.72 13.8905C44.7745 14.0058 44.8501 14.116 44.9221 14.2274C45.2753 14.0968 45.6407 13.9815 45.9869 13.8367C45.5669 13.8355 45.1171 13.7612 44.72 13.8905ZM50.5745 13.9469C50.4743 14.0391 50.4743 14.0391 50.5745 13.9469V13.9469ZM10.7302 15.8299C9.10319 16.2782 7.50429 16.7816 5.94756 17.3504C5.33787 17.5925 4.61397 17.864 4.46638 18.4097C4.52436 18.4866 4.64033 18.6403 4.69831 18.7171C5.86322 19.3807 7.36197 19.5433 8.76233 19.7726C10.2716 20.0327 11.8231 20.1031 13.3587 20.2363C14.9752 20.2927 16.611 20.4464 18.2222 20.2607C18.2538 19.8725 18.2433 19.4831 18.1888 19.0976L18.4858 19.1911C18.2696 18.9631 18.3505 18.4609 17.8638 18.4456C17.9147 17.6616 17.3648 16.8969 17.5897 16.104C17.5844 15.8619 17.7917 15.584 17.6582 15.3636C16.6778 15.0152 15.7799 14.5566 14.9014 14.0904C13.6522 14.8333 12.2465 15.4277 10.7302 15.8299ZM61.6754 15.9939C59.133 16.9059 56.8629 18.1574 54.3697 19.1322C52.7637 19.6971 51.0278 20.0288 49.3006 20.3337C49.3709 20.4515 49.4306 20.5732 49.4816 20.6975C49.6063 21.8862 49.1126 23.0313 48.8807 24.1932C50.8486 23.8102 52.8024 23.3247 54.5629 22.5651C56.5132 21.6236 58.5584 20.7884 60.6388 20.0096C61.208 19.779 61.8599 19.6497 62.3817 19.3602C62.3993 19.2615 62.4362 19.0643 62.4538 18.9644C63.761 18.3841 65.121 17.8602 66.444 17.2966C66.8551 17.1326 67.1046 16.8265 67.1415 16.4883C67.254 15.7018 67.2347 14.905 67.1152 14.1198C65.2369 14.6361 63.4641 15.3354 61.6754 15.9939ZM39.8952 14.9781C39.2117 15.2227 38.4738 15.3688 37.7745 15.5865C37.0822 15.7658 36.6535 16.2359 36.021 16.487C34.6347 17.0583 33.1341 17.4592 31.7039 17.9639C31.414 18.1074 31.0046 18.2496 30.9642 18.5352C31.6582 19.0374 32.6633 19.1821 33.5804 19.3384C37.0998 19.8495 40.6929 20.1057 44.2825 20.0775C44.6989 20.0199 44.6252 19.6522 44.5426 19.4319C44.1947 18.6364 44.0436 17.8089 43.7343 17.0045C43.6254 16.5062 43.7027 16.0041 43.7361 15.5045L43.5569 15.5007C43.5112 15.8324 43.4585 16.1629 43.4023 16.4934C43.5007 16.9405 43.7256 17.3721 43.7203 17.8294C43.3355 17.0622 43.1633 16.2142 43.5042 15.42C42.8734 15.0524 42.2532 14.645 41.4537 14.4862C40.9002 14.581 40.41 14.8077 39.8952 14.9781ZM45.5423 14.9653C45.8094 15.1715 46.1749 15.4097 45.8357 15.6915C45.0627 15.9234 44.9502 14.8077 44.2369 15.3226C44.7446 15.4802 45.2542 15.9887 45.8516 15.7082C46.1942 15.6211 46.138 15.3572 46.1327 15.1459C45.9324 15.0882 45.7374 15.0255 45.5423 14.9653ZM19.2026 15.2471C19.3854 15.5199 19.6946 15.7377 20.1356 15.7184C20.176 15.6544 20.2551 15.5263 20.2937 15.4623C19.9336 15.3816 19.5734 15.2983 19.2026 15.2471ZM17.978 17.2838C18.3522 18.1753 18.7722 19.0655 18.7265 20.0122C18.6369 20.0134 18.4576 20.016 18.3698 20.016C18.419 20.2645 18.6544 20.2799 18.918 20.2248C19.0111 19.7457 19.0375 19.259 18.9479 18.7786C18.8653 18.1586 18.303 17.6335 18.2626 17.0071C18.1677 17.0993 18.0729 17.1915 17.978 17.2838ZM66.6425 17.6514C65.6024 18.0472 64.6132 18.5096 63.5554 18.8811C63.3674 18.9631 63.0002 19.0451 63.1829 19.2513C63.5326 19.3205 63.8664 19.1783 64.1862 19.0963C64.9013 18.8696 65.6463 18.6608 66.2613 18.3034C66.6619 18.0843 66.7726 17.7167 66.8956 17.3837C66.8095 17.4721 66.7251 17.5617 66.6425 17.6514ZM22.5217 17.513C22.6482 17.5912 22.6482 17.5912 22.5217 17.513V17.513ZM48.3518 17.7206C48.2095 17.8781 48.264 17.9678 48.517 17.9908C48.6523 17.8358 48.5978 17.7462 48.3518 17.7206ZM29.6921 18.6672C29.9574 19.1667 30.481 19.5856 31.1715 19.7803C32.7704 20.2568 34.4713 20.5374 36.1826 20.6872C38.5124 20.9447 40.8686 21.0613 43.2248 21.0741C45.2876 21.0766 47.3433 20.8999 49.406 20.9537C49.3428 20.7756 49.2778 20.5976 49.211 20.4208C47.2765 20.3836 45.3438 20.4989 43.411 20.49C40.8212 20.449 38.2366 20.2748 35.6766 19.9917C34.3184 19.8316 32.9128 19.7752 31.6319 19.3832C30.9783 19.1808 30.5109 18.6838 30.5794 18.1574C30.279 18.3226 29.982 18.4904 29.6921 18.6672ZM29.4637 22.5561C29.9047 23.2068 30.9502 23.3644 31.8199 23.5412C33.7175 23.8781 35.6414 24.1701 37.5953 24.2495C40.2818 24.4532 42.9964 24.6184 45.6952 24.4391C46.637 24.3725 47.6209 24.4468 48.5223 24.1983C48.9475 23.9459 48.8456 23.4912 48.9879 23.1402C49.2321 22.4434 49.3814 21.735 49.3375 21.0139C48.2903 21.0318 47.2343 20.9972 46.1995 21.1343C42.8013 21.4507 39.347 21.2278 35.9876 20.7871C34.357 20.5886 32.7142 20.3427 31.1891 19.8649C30.4652 19.6484 29.9399 19.2141 29.4988 18.7581C28.3497 19.8418 28.6625 21.4058 29.4637 22.5561ZM18.3188 19.2231C18.2679 19.3653 18.1853 19.7137 18.4471 19.7393C18.5191 19.5971 18.556 19.2615 18.3188 19.2231Z" fill="black"/>
<path d="M28.2355 3.20108C28.2882 3.26384 28.2882 3.26384 28.2355 3.20108V3.20108Z" fill="black"/>
<path d="M54.2238 5.53751C54.5682 5.45169 55.0215 5.49652 55.1322 5.7937C55.4801 6.38294 54.519 6.85561 53.825 6.91325C54.0446 6.6609 54.331 6.43546 54.5067 6.16262C54.6402 5.9282 54.331 5.73734 54.2238 5.53751Z" fill="black"/>
<path d="M57.1194 5.8949C56.8629 6.28815 57.6957 5.8949 57.1194 5.8949V5.8949Z" fill="black"/>
<path d="M30.792 8.7245C30.9748 8.64508 31.3016 8.81032 31.2049 8.9666C31.0204 9.06523 30.7042 8.87437 30.792 8.7245Z" fill="black"/>
<path d="M31.4948 8.99478C31.5475 9.42518 32.0044 8.77958 31.4948 8.99478V8.99478Z" fill="black"/>
<path d="M37.4617 9.30733C37.46 9.73901 37.9871 9.10878 37.4617 9.30733V9.30733Z" fill="black"/>
<path d="M36.9399 9.47385C37.0435 9.54943 37.0435 9.54943 36.9399 9.47385V9.47385Z" fill="black"/>
<path d="M47.1096 11.6886C47.2326 11.7642 47.2326 11.7642 47.1096 11.6886V11.6886Z" fill="black"/>
<path d="M44.9959 19.2193C45.0451 19.2372 45.1435 19.2756 45.1927 19.2948L45.1206 19.4063H44.973L44.9045 19.2948L44.9959 19.2193Z" fill="black"/>
<path d="M45.3104 19.6317C45.6354 19.2897 46.2803 19.5036 46.7424 19.4934C46.2785 19.5946 45.7918 19.6292 45.3104 19.6317Z" fill="black"/>
</svg>
