<svg width="24" height="41" viewBox="0 0 24 41" fill="none" xmlns="http://www.w3.org/2000/svg">
<path d="M10.251 0.472807C11.0353 -0.0206138 12.1431 -0.0171178 13.1207 0.00935116C13.9893 0.0138459 14.8949 0.118223 15.6284 0.4788C15.7888 0.562202 15.9143 0.725511 16.1419 0.698043C16.6176 0.673571 17.127 0.734999 17.5136 0.951245C17.8208 1.14452 18.0374 1.40022 18.3328 1.60198C18.6592 1.82722 18.8874 2.11538 19.0314 2.42402C19.1507 2.63377 19.1548 2.866 19.2611 3.07775C19.597 3.22458 19.9857 3.33045 20.2208 3.57267C20.5629 3.85034 20.6253 4.2304 20.7932 4.5675C21.1579 4.70034 21.5329 4.84468 21.7996 5.0764C21.9861 5.23771 21.9401 5.45845 21.9532 5.65323C22.5825 6.62508 22.9225 7.68184 23.1371 8.7411C23.3229 9.83532 23.4161 10.9385 23.3873 12.0412C23.3887 12.9412 23.3009 13.8391 23.29 14.7386C23.1871 15.8528 23.2454 16.9704 23.3537 18.0831C23.399 19.2997 23.5943 20.5103 23.6485 21.7269C23.7287 23.0898 23.8185 24.4626 23.5656 25.8196C23.3702 26.8114 23.1385 27.8007 22.7923 28.7716C22.6017 29.3629 22.4049 29.9527 22.2349 30.5475C22.1725 30.8032 22.0848 31.0629 22.1369 31.3241C22.1904 31.6297 22.3919 31.9044 22.5434 32.1881C22.8142 32.697 22.6956 33.2638 22.4756 33.7702C22.4063 33.9725 22.1828 34.1343 22.1828 34.35C22.0985 34.341 21.9484 34.3615 21.9381 34.2726C21.9429 34.1797 21.971 34.0893 21.9929 33.9995C21.91 33.964 21.8277 33.929 21.7441 33.8976C21.74 33.8651 21.7311 33.7997 21.7269 33.7672C21.6083 33.8082 21.6707 33.8766 21.7173 33.9385C21.6358 33.955 21.4911 34.0005 21.4568 33.9131C21.4027 33.7662 21.2957 33.6364 21.1717 33.5165C21.1538 33.557 21.1189 33.6379 21.1017 33.6778C21.0099 33.5854 20.9091 33.499 20.8172 33.4071C20.8323 33.3038 20.8995 33.2104 20.9393 33.112C20.7638 33.1345 20.6308 33.2209 20.5019 33.3033C20.4258 33.2289 20.4429 33.1385 20.4553 33.0536C20.3997 32.9362 20.3538 32.8168 20.2928 32.702C20.2167 32.7694 20.1454 32.8413 20.0611 32.9047C20.0323 32.7669 20.0296 32.6281 20.0296 32.4892C19.9583 32.5102 19.8876 32.5312 19.817 32.5527C19.7622 32.4992 19.7197 32.4393 19.7245 32.3709C19.6895 32.1227 19.6532 31.869 19.743 31.6242C19.7937 31.3655 20.0405 31.1323 19.9624 30.8616C19.9589 30.7163 19.7985 30.6154 19.6463 30.542C19.6882 30.7373 19.7869 30.9246 19.8143 31.1218C19.8102 31.2866 19.6621 31.423 19.5833 31.5723C19.4955 31.7096 19.5017 31.865 19.4736 32.0123C19.405 31.9583 19.3337 31.8924 19.3564 31.8135C19.3749 31.4919 19.6457 31.1942 19.5771 30.8686C19.4249 30.4756 19.1562 30.1025 18.7627 29.8084C18.895 30.13 19.1857 30.4207 19.1843 30.7677C19.2035 31.0559 19.0417 31.3301 19.0383 31.6167C19.0218 31.7361 19.1425 31.8285 19.2145 31.9274C18.9478 31.7591 18.5824 31.6397 18.4398 31.392C18.5776 31.2796 18.5755 31.1223 18.6153 30.984C18.6742 30.7478 18.6701 30.5066 18.6407 30.2688C18.6242 29.9627 18.5269 29.6431 18.2424 29.4073C18.3945 29.8588 18.6112 30.3243 18.4981 30.7942C18.4617 30.9805 18.2711 31.1683 18.4494 31.3476C18.4192 31.362 18.3582 31.3915 18.3281 31.406C18.3582 31.4664 18.3877 31.5274 18.4172 31.5888C18.3253 31.5883 18.241 31.5723 18.1628 31.5408C18.1402 31.3995 18.1704 31.2487 18.0518 31.1253C17.9997 31.1833 17.986 31.2956 17.855 31.2562C17.6501 30.8911 17.7899 30.4936 17.8358 30.1175C17.7323 30.3682 17.6391 30.6299 17.4142 30.8407C17.2901 30.8911 17.1572 30.7882 17.0996 30.7163C17.2504 30.543 17.3916 30.3647 17.5472 30.1934C17.6233 30.113 17.6692 30.0161 17.6562 29.9182C17.6267 29.6101 17.6274 29.298 17.5273 28.9963C17.4972 28.8969 17.3937 28.8255 17.3032 28.7541C17.4005 28.9184 17.5246 29.0842 17.5225 29.2685C17.4663 29.4972 17.3436 29.7165 17.1551 29.9043C17.0111 30.0696 16.8391 30.2454 16.8727 30.4526C16.7568 30.4107 16.6108 30.3652 16.5772 30.2643C16.6053 30.1659 16.6752 30.0706 16.6265 29.9692C16.5511 29.9981 16.4757 30.0281 16.401 30.0596C16.3955 30.0955 16.3832 30.1679 16.3777 30.2044C16.2625 30.1445 16.133 30.0801 16.1096 29.9702C16.1172 29.6865 16.2927 29.4248 16.3407 29.1461C16.183 29.3624 16.0246 29.5896 15.9979 29.8383C15.8916 29.7809 15.7593 29.718 15.7504 29.6111C15.7415 29.5142 15.7511 29.4158 15.7141 29.3214C15.6449 29.3864 15.5832 29.4543 15.5208 29.5237C15.3974 29.3524 15.324 29.1636 15.2856 28.9729C15.3734 28.7216 15.5736 28.4814 15.5029 28.2117C15.3117 28.45 15.2541 28.7281 15.1451 28.9893C15.1794 29.0153 15.2472 29.0682 15.2808 29.0942C15.1663 29.1332 15.0423 29.1427 14.9175 29.1387C14.9154 29.0223 14.9257 28.9064 14.91 28.7916C14.6008 28.5069 14.984 28.1868 14.9861 27.8821C14.8339 28.1074 14.5857 28.2807 14.3375 28.4495C14.2272 28.3865 14.0599 28.3431 14.0414 28.2277C14.0037 28.0394 14.0647 27.8487 14.04 27.6589C14.0702 27.7503 14.0853 27.8422 14.1086 27.9356C14.2265 27.7778 14.3732 27.6164 14.3547 27.4282C14.3053 27.4471 14.2066 27.4851 14.1572 27.5041C14.3985 27.2474 14.3259 26.9243 14.1812 26.6511C14.1497 26.9352 14.2532 27.2684 13.9804 27.5056C13.8323 27.6254 13.9324 27.7927 13.9242 27.9366C13.8412 27.9755 13.7589 28.0165 13.6712 28.0499C13.4614 28.0215 13.41 27.8357 13.5224 27.7208C13.5451 27.8072 13.5958 27.8831 13.6726 27.9496C13.6856 27.8307 13.6719 27.7118 13.6561 27.594C13.5259 27.6719 13.312 27.8327 13.1749 27.6704C13.1817 27.4027 13.1262 27.13 13.2098 26.8673C13.3127 26.6925 13.4731 26.5352 13.5149 26.3429C13.5567 26.4233 13.6026 26.5033 13.6527 26.5822C13.6301 26.2401 13.5471 25.902 13.4779 25.5639C13.663 25.6807 13.8837 25.8245 13.8597 26.0223C13.8433 26.1991 13.9406 26.3634 14.0503 26.5167C14.0921 26.3589 14.2004 26.1761 14.0571 26.0298C13.87 25.826 13.6753 25.6018 13.3517 25.5039C13.3305 25.7681 13.4813 26.0203 13.4772 26.2815C13.3586 26.5322 13.2311 26.7814 13.0734 27.0211C13.0844 27.0971 13.1536 27.1984 13.0254 27.2434C12.8712 27.3792 12.6772 27.2454 12.5154 27.1969C12.3803 27.1695 12.3646 27.0516 12.2802 26.9832C12.0355 26.7624 12.0801 26.4478 12.2021 26.1971C12.3022 25.9804 12.5545 25.836 12.7512 25.6682C12.8054 25.4255 12.7498 25.1753 12.7382 24.9301C12.7217 24.6714 12.5627 24.4377 12.4688 24.1935C12.4071 23.76 12.5613 23.3325 12.6347 22.905C12.7923 22.1793 12.8993 21.4487 13.0748 20.725C13.6239 18.7284 14.0201 16.7082 14.718 14.7346C15.1568 13.4216 15.5749 12.0997 16.2193 10.8306C16.0246 10.944 15.8443 11.0709 15.6332 11.1678C15.0498 11.4604 14.4452 11.7541 13.75 11.8819C13.325 11.9778 12.8767 11.9588 12.4379 11.9703C11.9601 11.9688 11.4809 11.9703 11.0031 11.9518C10.3292 11.8889 9.66491 11.7566 9.04861 11.5473C9.29061 12.2999 9.45239 13.065 9.5422 13.8356C9.71152 15.1311 9.83835 16.4301 9.87331 17.7315C9.88908 18.4981 9.93364 19.2647 9.89525 20.0313C9.91239 21.4482 9.67451 22.858 9.65326 24.2739C9.61829 25.4565 9.58059 26.6396 9.48393 27.8212C9.44005 28.5543 9.36259 29.2885 9.18366 30.0116C8.90122 31.0619 8.60301 32.1102 8.29315 33.1564C8.09297 33.926 7.8215 34.6851 7.6652 35.4602C7.59322 35.8148 7.47667 36.1714 7.50204 36.5315C7.69947 36.957 7.89074 37.398 7.84961 37.8529C7.81807 38.0532 7.72689 38.2624 7.84275 38.4582C7.99083 38.7624 8.12382 39.0935 7.99151 39.4146C7.89828 39.6363 7.82013 39.897 7.57059 40.0518C7.28541 39.9979 7.0249 39.8381 6.81856 39.6818C6.74178 39.6853 6.665 39.6898 6.58822 39.6943C6.56491 39.4825 6.49498 39.2683 6.55325 39.057C6.60878 38.7993 6.78017 38.5621 7.00776 38.3633C6.82061 38.4078 6.68008 38.5551 6.47784 38.5476C6.32497 38.4547 6.22145 38.3289 6.10628 38.213C6.10697 38.2664 6.10765 38.3728 6.10765 38.4263C5.98151 38.3573 5.87594 38.2729 5.75597 38.1995C5.72307 38.1915 5.65726 38.176 5.62435 38.1686C5.42212 38.1291 5.67234 37.8844 5.51261 37.8514C5.47148 37.8639 5.3899 37.8884 5.34945 37.9009C5.33917 37.8689 5.32957 37.8374 5.31997 37.8065C5.35151 37.795 5.41458 37.7725 5.44611 37.761C5.49273 37.6761 5.43446 37.5907 5.41389 37.5083C5.36453 37.5802 5.31654 37.6517 5.2665 37.7241C5.22263 37.5663 5.15133 37.4144 5.08826 37.2606C5.10951 37.1832 5.14447 37.1088 5.17669 37.0344C5.07866 37.0409 4.98063 37.0464 4.88191 37.0509C4.81953 37.1083 4.7544 37.1657 4.68516 37.2202C4.60084 37.0154 4.38695 36.8381 4.39998 36.6154C4.38147 36.3657 4.48636 36.1245 4.63786 35.9047C4.79759 35.682 4.63718 35.4338 4.5885 35.205C4.50144 34.9683 4.57136 34.7206 4.51652 34.4824C4.42672 34.3326 4.26493 34.2132 4.15798 34.0704C4.24711 34.3905 4.35885 34.7146 4.33691 35.0442C4.24711 34.9448 4.19912 34.8305 4.16895 34.7151C4.17307 34.812 4.1573 34.9094 4.16758 35.0073C4.195 35.0617 4.31566 35.1151 4.24642 35.1771C4.16964 35.2175 4.086 35.251 4.0058 35.2874C3.93861 35.2025 3.86046 35.1221 3.77751 35.0462C3.74255 35.1501 3.71307 35.2555 3.68291 35.3614C3.46971 35.3184 3.38744 35.1741 3.432 35.0237C3.40252 35.0267 3.34288 35.0332 3.31272 35.0362C3.29901 34.9383 3.28187 34.8415 3.25787 34.7456C3.23045 34.7581 3.17492 34.7825 3.14682 34.795C2.96515 34.3091 3.13585 33.8082 3.15024 33.3158C3.15367 33.1055 3.27158 32.8878 3.14065 32.6855C3.02479 33.0006 3.00902 33.3417 3.06455 33.6648C2.99874 33.7952 2.94253 33.9345 2.81502 34.0414C2.71836 34.0704 2.62032 34.0234 2.57576 33.9625C2.45854 33.8356 2.43866 33.6808 2.40301 33.535C2.34542 33.5934 2.28441 33.6499 2.22066 33.7063C2.1994 33.542 2.16101 33.3792 2.1425 33.2154C2.15759 32.9577 2.29195 32.7045 2.22271 32.4443C2.07121 32.6116 2.07738 32.8218 2.04379 33.0141C2.04242 33.1465 1.98414 33.3013 2.12125 33.4106C2.1192 33.4651 2.11371 33.5749 2.11097 33.6294C2.0479 33.556 1.99991 33.4786 1.95947 33.3982C1.87446 33.3702 1.70719 33.3697 1.77917 33.2708C1.89434 32.9816 1.80111 32.6625 1.99443 32.3888C2.13839 32.1636 2.12742 31.9084 2.14388 31.6662C2.14045 31.4929 2.18775 31.3021 2.0431 31.1508C2.01088 31.4385 2.0623 31.7311 1.97797 32.0153C1.88474 32.237 1.78123 32.4653 1.55774 32.6376C1.66674 32.6011 1.77711 32.5666 1.88817 32.5337C1.78877 32.642 1.65372 32.7289 1.52209 32.8163C1.47548 32.7439 1.38087 32.6685 1.4364 32.5836C1.53169 32.4653 1.67017 32.3644 1.72295 32.2285C1.56871 32.3064 1.42749 32.3983 1.26502 32.4687C1.21154 32.3853 1.09226 32.3124 1.1046 32.2145C1.18961 32.0807 1.32329 31.9573 1.31437 31.8015C0.997656 31.9039 1.09637 32.1876 0.9387 32.3714C0.823529 32.2485 0.906479 32.1032 0.911964 31.9683C0.855064 31.8819 0.771428 31.8065 0.725497 31.7171C0.733038 31.6038 0.824215 31.5114 0.885228 31.4125C0.911278 31.3161 0.890712 31.2172 0.887284 31.1208C0.809133 31.1753 0.733038 31.2312 0.655572 31.2866C0.599358 31.1912 0.543144 31.0964 0.48693 31.0015C0.436886 31.0519 0.387527 31.1034 0.338169 31.1553C0.33337 31.1228 0.322401 31.0584 0.316917 31.0259C-0.0347639 30.7762 -0.0519024 30.3867 0.064639 30.0601C0.143476 29.7604 0.465679 29.5437 0.622667 29.2695C0.553427 28.9763 0.370389 28.7052 0.280584 28.4155C0.140048 28.012 0.185979 27.588 0.310747 27.1864C0.672711 25.9389 0.777598 24.6629 1.05867 23.4064C1.41789 22.007 1.66537 20.5947 1.95741 19.1878C2.11303 18.221 2.29127 17.2561 2.46334 16.2907C2.6738 14.9084 2.8822 13.5255 3.15093 12.1486C3.41692 11.0104 3.68085 9.86728 4.15524 8.76357C4.35131 8.25217 4.68105 7.77573 4.99571 7.29929C4.83941 7.00664 4.59193 6.72297 4.6125 6.39735C4.70642 5.79556 5.06289 5.18228 5.76626 4.82919C5.86292 4.61045 5.73678 4.36973 5.84441 4.15049C5.99934 3.75445 6.44905 3.47328 6.65197 3.09373C6.84872 2.73765 7.13733 2.41353 7.42252 2.09191C7.76117 1.71485 8.24585 1.42918 8.7223 1.15001C9.20697 0.895811 9.75266 0.711527 10.251 0.472807ZM12.8568 0.251567C12.2418 0.263553 11.6118 0.292519 11.0394 0.469811C10.7275 0.571192 10.3854 0.641609 10.1338 0.818901C9.45788 1.21044 9.15624 1.8417 9.04724 2.44649C8.89231 3.22707 8.96909 4.02214 9.09728 4.80172C9.11922 5.04644 9.31186 5.2527 9.47776 5.45746C9.88908 5.94338 10.1468 6.48874 10.5541 6.97617C10.7323 7.19442 11.0346 7.35373 11.376 7.40617C11.7729 7.4616 12.1795 7.4596 12.5805 7.49007C12.8533 7.51154 13.1317 7.53152 13.4031 7.48857C13.7384 7.44862 14.0304 7.2923 14.223 7.09204C14.4363 6.87529 14.7543 6.70899 14.8729 6.44779C14.9977 6.20458 15.1184 5.96036 15.2685 5.72514C15.6072 5.18777 15.8814 4.63093 16.1988 4.08706C16.4901 3.56618 16.8206 3.05078 16.9933 2.49993C17.0386 2.28768 16.8267 2.13186 16.6759 1.97305C16.3798 1.56702 16.1391 1.11156 15.6174 0.825893C14.8291 0.400891 13.8227 0.243576 12.8568 0.251567ZM16.2454 0.940258C16.3825 1.09957 16.5772 1.22542 16.741 1.36925C17.0344 1.63744 17.3189 1.94358 17.3203 2.30066C17.2593 2.62578 17.1407 2.94491 16.9899 3.25404C16.6786 3.93974 16.2762 4.59996 15.9019 5.26818C15.5777 5.82203 15.2226 6.36739 14.9682 6.94121C14.9278 6.93972 14.8469 6.93722 14.8064 6.93572C14.6933 7.03061 14.583 7.12849 14.5007 7.23986C14.6652 7.18393 14.8373 7.10203 14.8517 6.9552L14.9552 6.94121L14.9456 7.0376C15.4255 6.7824 15.771 6.42532 16.1734 6.11269C16.5141 5.81404 16.8884 5.53536 17.2134 5.22673C17.4814 4.98401 17.6549 4.68486 17.9839 4.4801C17.7248 5.02846 17.2415 5.49591 16.8041 5.97335C16.4325 6.34991 16.048 6.72097 15.6085 7.05708C15.2589 7.30229 14.8928 7.53502 14.5555 7.78972C14.0078 8.21272 13.3257 8.52336 12.7053 8.88493C12.3659 9.09169 11.9423 9.21355 11.5124 9.27797C11.0051 9.37086 10.4992 9.51369 9.96723 9.47973C9.3523 9.44128 8.76617 9.28396 8.19649 9.11916C9.11511 9.23552 10.0632 9.48573 10.9907 9.25899C10.6199 9.18558 10.2634 9.0807 9.9069 8.97682C9.1295 8.73311 8.33702 8.50488 7.61241 8.18176C7.29158 8.05191 6.91865 7.95402 6.70202 7.72479C6.38118 7.38969 6.08846 7.0341 5.92256 6.64107C5.86429 6.48525 5.70593 6.3564 5.68605 6.19259C5.64149 5.88146 5.74569 5.56982 5.69427 5.25819C5.44063 5.44947 5.30215 5.70067 5.1623 5.94139C5.07661 6.13466 4.98474 6.33892 5.01148 6.54418C5.14242 6.80637 5.33505 7.05009 5.52837 7.2903C5.68194 7.44213 5.85743 7.58196 5.99591 7.74227C6.38804 8.16478 6.84255 8.55432 7.3238 8.92389C7.62132 9.15012 7.89142 9.40133 8.24927 9.58111C7.67891 9.5042 7.32723 9.13664 6.95224 8.85047C6.41957 8.42597 5.8876 7.99897 5.39675 7.548C5.51878 7.75326 5.56197 7.9765 5.66068 8.18775C6.04938 8.89941 6.71573 9.50121 7.30597 10.1275C7.63366 10.4506 7.96546 10.7952 8.46248 10.9905C9.24605 11.3296 10.1194 11.5768 11.0339 11.6307C11.932 11.6851 12.8506 11.7021 13.7349 11.5543C14.4123 11.4344 14.9915 11.1398 15.5619 10.8621C15.8327 10.7283 16.1364 10.6214 16.3578 10.4416C16.5861 10.2358 16.7095 9.98314 16.8692 9.74892C16.2536 9.94768 15.6188 10.1165 14.9703 10.2508C14.1223 10.4306 13.2804 10.6354 12.4084 10.7492C11.9615 10.7922 11.5124 10.8311 11.0723 10.9036C11.6687 10.7418 12.3042 10.6873 12.9137 10.5585C13.6609 10.4271 14.3752 10.2184 15.0999 10.0356C15.989 9.83282 16.8171 9.51219 17.6171 9.1686C17.975 9.02627 18.2903 8.83649 18.6173 8.6607C19.1877 8.34007 19.5936 7.90109 20.0865 7.52453C20.6068 7.1215 21.0825 6.67752 21.3945 6.16962C21.5713 5.89195 21.6728 5.56583 21.5035 5.27217C21.4082 5.10737 21.1586 5.04993 20.9386 5.01797C20.8056 5.3366 20.589 5.63325 20.3497 5.91542C19.9733 6.36239 19.416 6.70399 18.8888 7.05258C18.3973 7.35523 17.9311 7.68484 17.3902 7.94254C18.119 7.35872 18.9903 6.88378 19.7492 6.32294C20.1351 6.03228 20.4141 5.6722 20.6157 5.29764C20.7309 5.10986 20.7076 4.86665 20.5067 4.71483C20.4059 4.67787 20.338 4.7368 20.275 4.78475C20.2092 4.78475 20.144 4.78425 20.0789 4.78425C20.2352 4.33128 20.094 3.70601 19.427 3.51723C19.403 3.75545 19.4105 3.99817 19.32 4.2299C19.0575 4.85916 18.6797 5.45845 18.2568 6.03827C17.7385 6.73096 17.1263 7.39268 16.3777 7.96451C15.7991 8.38002 15.1759 8.76307 14.5027 9.09569C13.9605 9.37586 13.4271 9.69148 12.7807 9.83432C13.1022 9.65253 13.4409 9.48722 13.7809 9.32392C14.2827 9.07771 14.7619 8.80802 15.2472 8.54483C15.6551 8.31161 16.0096 8.03393 16.3784 7.76924C17.565 6.77341 18.4994 5.60229 18.9704 4.32329C19.2049 3.69802 19.0307 3.02931 18.6804 2.44549C18.4645 2.08841 18.0525 1.82672 17.7604 1.50609C17.6151 1.35527 17.4732 1.18747 17.2332 1.10906C16.9261 1.00318 16.5902 0.916786 16.2454 0.940258ZM7.80642 2.07692C7.29706 2.5259 6.92756 3.06826 6.80622 3.64658C6.76646 3.97869 6.88574 4.30731 6.99748 4.62643C7.40675 5.66371 8.06829 6.63357 8.59273 7.64039C8.7744 7.93804 8.87723 8.27565 9.17612 8.52535C9.74443 8.71263 10.3408 8.85097 10.9236 9.01178C11.1457 9.06872 11.376 9.12865 11.6146 9.11416C11.8093 9.10068 11.9875 9.03825 12.1651 8.98332C11.8052 8.92838 11.4473 8.85297 11.1292 8.71463C10.4745 8.43546 10.0186 7.96651 9.71769 7.4681C9.3715 7.00114 9.1535 6.49124 8.96498 5.98084C8.87791 5.94838 8.80182 5.90143 8.74492 5.8435C8.40215 5.52088 8.20883 5.13184 8.02647 4.75078C7.88045 4.39021 7.72689 4.02414 7.69536 3.64758C7.78928 3.23556 8.09914 2.87249 8.3521 2.50442C8.42546 2.37907 8.57216 2.29567 8.74766 2.25322C8.87791 1.88215 9.02256 1.51059 9.27827 1.17348C8.6935 1.38224 8.24996 1.73932 7.80642 2.07692ZM8.14987 3.01882C8.02305 3.23706 7.82767 3.45031 7.85646 3.69802C7.888 4.1445 8.07926 4.57599 8.28424 4.9945C8.48167 5.3316 8.62495 5.70317 8.97114 5.97834C8.95743 5.49841 8.78331 5.03146 8.74972 4.55302C8.67636 4.10404 8.61192 3.65307 8.6414 3.20011C8.62358 2.92493 8.72161 2.65574 8.71407 2.38157C8.48304 2.57234 8.28561 2.78409 8.14987 3.01882ZM6.15496 4.35125C6.13713 4.68386 6.09326 5.01497 6.10903 5.34808C6.12068 5.6717 6.01305 5.99283 6.05144 6.31595C6.22351 6.82185 6.55668 7.29929 7.00365 7.70582C7.18601 7.87761 7.50067 7.90558 7.73923 8.01945C8.0964 8.19025 8.49538 8.30911 8.84843 8.4854C8.57559 8.02194 8.28629 7.56348 8.04498 7.09054C7.44788 6.0158 6.70544 4.95055 6.56422 3.77793C6.35308 3.93175 6.16044 4.12502 6.15496 4.35125ZM9.32694 6.00481C9.39824 6.1876 9.46747 6.37288 9.5847 6.54368C9.61486 6.6076 9.68616 6.64806 9.76911 6.67453C9.68822 6.4433 9.52369 6.23454 9.3763 6.02379C9.36396 6.0188 9.33928 6.00931 9.32694 6.00481ZM21.8092 6.10819C21.6536 6.46477 21.4034 6.79389 21.1161 7.10302C21.1484 7.37171 21.2395 7.6339 21.3074 7.89909C21.7352 9.27048 21.8216 10.6843 21.8072 12.0862C21.8024 13.3547 21.6097 14.6167 21.5686 15.8842C21.5247 16.5624 21.5521 17.2416 21.5089 17.9203C21.4959 17.9198 21.4712 17.9188 21.4589 17.9183C21.3122 16.4261 21.4452 14.9303 21.5816 13.4411C21.6584 11.7541 21.6598 10.0531 21.2601 8.38552C21.171 7.99248 21.001 7.60993 20.9447 7.21289C20.6068 7.55849 20.1468 7.83217 19.8239 8.18525C19.6299 8.55382 19.5798 8.95185 19.4976 9.3399C19.2919 10.4391 19.1102 11.5413 18.8833 12.6385C18.7113 13.6873 18.5502 14.7376 18.3863 15.7878C18.2341 16.7777 18.2259 17.776 18.0922 18.7668C18.0004 18.7054 18.0182 18.612 18.0134 18.5306C18.0346 17.33 18.1203 16.1299 18.3054 14.9363C18.544 13.3687 18.8203 11.8035 19.1192 10.2413C19.209 9.65603 19.3502 9.07521 19.4256 8.4889C19.1822 8.67767 18.9258 8.85697 18.6715 9.03725C18.5666 9.09968 18.5694 9.20605 18.5358 9.29345C18.1683 10.6479 17.6494 11.9778 17.3114 13.3367C16.9378 14.8644 16.4805 16.3851 16.2927 17.9333C16.2468 18.2419 16.2303 18.5526 16.1611 18.8592C16.0363 18.2694 16.17 17.6721 16.2536 17.0843C16.5546 15.5246 16.9268 13.972 17.371 12.4303C17.7234 11.344 18.0401 10.2518 18.3795 9.1636C18.1327 9.30993 17.8557 9.4248 17.5705 9.52568C17.2511 9.62506 17.1832 9.89774 17.0344 10.099C16.6087 10.7123 16.3242 11.371 16.1014 12.0377C15.7991 12.8253 15.5105 13.6159 15.2733 14.4154C14.8078 15.7579 14.4143 17.1128 14.075 18.4752C13.8316 19.5974 13.4971 20.7081 13.275 21.8327C13.1666 22.3871 13.0021 22.9349 12.9041 23.4903C13.2455 23.9952 13.7363 24.4412 14.2272 24.8737C15.2246 25.7097 16.2337 26.5382 17.2017 27.3927C17.9544 28.0754 18.8148 28.6882 19.6525 29.3145C20.4991 29.9202 21.3156 30.565 21.8874 31.3291C21.7729 30.971 21.9518 30.6194 22.032 30.2688C22.3549 29.1227 22.7223 27.9825 22.9883 26.8279C23.2715 25.7576 23.4284 24.6669 23.3955 23.5762C23.3606 22.1409 23.1892 20.71 23.0343 19.2802C22.9829 18.6645 22.9609 18.0482 22.9431 17.4319C22.9403 16.8656 22.891 16.2997 22.939 15.7339C22.9383 14.9178 22.9547 14.1023 22.9842 13.2863C23.074 12.0707 23.0144 10.8511 22.8725 9.63905C22.7381 8.43396 22.394 7.24036 21.8092 6.10819ZM9.78625 7.13349C10.0056 7.49057 10.1839 7.87212 10.5472 8.16877C10.8749 8.42947 11.28 8.63922 11.7263 8.77706C11.9251 8.83799 12.1719 8.87395 12.3666 8.78755C13.2091 8.40949 13.9886 7.95353 14.6508 7.41616C14.0256 7.63839 13.3558 7.84116 12.6456 7.81119C11.9813 7.76674 11.2924 7.78123 10.6679 7.58446C10.3175 7.50056 10.0564 7.30628 9.78625 7.13349ZM4.14633 9.89624C3.81247 10.9585 3.54649 12.0332 3.37167 13.1155C3.06867 14.9678 2.79239 16.8231 2.46128 18.6729C2.30361 19.7477 2.06915 20.8154 1.84704 21.8837C1.70513 22.7641 1.44805 23.6306 1.25199 24.5041C1.14025 25.1184 1.00245 25.7297 0.905794 26.3449C0.864662 26.6341 0.72207 26.9362 0.881115 27.2199C1.26296 27.9655 1.82853 28.6507 2.29401 29.3684C2.70122 29.9617 3.08512 30.563 3.45737 31.1678C4.12371 32.1571 4.88534 33.1095 5.62366 34.0699C5.91707 34.4379 6.23722 34.794 6.51418 35.1686C6.78908 35.5406 7.11814 35.9007 7.25867 36.3162C7.40332 35.1376 7.72552 33.977 8.00591 32.8128C8.29726 31.6312 8.65648 30.4576 8.88888 29.2685C9.02804 28.2732 9.12128 27.2738 9.13636 26.2735C9.2104 25.2577 9.1583 24.2384 9.26387 23.2236C9.3242 22.6747 9.37287 22.1249 9.42634 21.5755C9.53466 20.3305 9.53466 19.082 9.50518 17.8344C9.44005 16.933 9.38932 16.0305 9.28306 15.1311C9.18298 13.8921 9.03764 12.652 8.69419 11.4344C8.42683 11.3206 8.15604 11.2107 7.88457 11.1023C7.28198 10.7987 7.04821 10.2593 6.54571 9.88825C6.49293 10.6214 6.41135 11.356 6.46619 12.0907C6.51966 12.5886 6.55942 13.088 6.65677 13.5829C7.05712 15.4053 7.52192 17.2286 7.58842 19.0785C7.63092 20.5213 7.65423 21.9651 7.58636 23.4074C7.57745 23.4084 7.55894 23.4104 7.55003 23.4114C7.53357 23.2665 7.51095 23.1227 7.49587 22.9784C7.42114 21.2269 7.39509 19.474 7.25319 17.7251C7.15173 18.1076 7.12705 18.4991 7.01325 18.8802C6.70681 20.0428 6.34554 21.204 5.74843 22.3082C5.62229 22.5389 5.51124 22.7776 5.31517 22.9839C5.39607 22.5834 5.66411 22.2183 5.82041 21.8322C6.2763 20.8454 6.57725 19.8256 6.82678 18.8018C6.95909 18.1845 7.10717 17.5617 7.05507 16.935C6.96595 16.046 6.73492 15.1696 6.56148 14.2886C6.52172 14.1028 6.51898 13.911 6.4278 13.7327C6.3044 14.0753 6.27493 14.4314 6.17415 14.7775C5.84852 16.2927 5.26787 17.769 4.86203 19.2722C4.5083 20.5173 4.07641 21.7498 3.62464 22.9779C3.50193 23.277 3.41212 23.5857 3.23731 23.8723C3.27707 23.4978 3.44091 23.1372 3.55403 22.7726C4.15044 21.175 4.60153 19.5519 5.08072 17.9343C5.60995 16.4401 5.98494 14.9203 6.29138 13.3941C6.3805 12.9591 6.24133 12.5242 6.24545 12.0887C6.18101 11.3056 6.25984 10.521 6.40998 9.74542C6.2811 9.46675 5.96506 9.254 5.78134 8.99231C5.71758 9.21255 5.62229 9.42729 5.56334 9.64853C5.30009 10.568 4.98132 11.4784 4.68585 12.3928C4.6502 12.4992 4.60084 12.6031 4.53572 12.7015C4.53023 12.3269 4.68928 11.9648 4.78114 11.5997C5.04987 10.7318 5.31312 9.86328 5.57568 8.9953C5.67371 8.80303 5.42692 8.66419 5.34808 8.49789C5.24456 8.28214 5.17052 8.0594 5.07181 7.84216C4.55354 8.46792 4.39587 9.19956 4.14633 9.89624ZM12.8108 23.5832C12.7409 23.8459 12.6854 24.1315 12.8431 24.3842C13.2859 25.0979 14.0928 25.6323 14.755 26.2346C15.8944 27.122 16.8548 28.1273 18.073 28.9629C18.4802 29.2825 18.9128 29.5836 19.3625 29.8718C19.9308 30.3248 20.5183 30.7662 21.0332 31.2532C21.2615 31.4694 21.5412 31.6587 21.7146 31.9044C21.788 32.0353 21.9943 32.0622 22.1252 32.1521C22.3412 32.2865 22.4468 32.4842 22.5681 32.666C22.5133 32.3729 22.3131 32.1117 22.154 31.844C21.6509 31.1683 21.0407 30.532 20.3182 29.9712C19.61 29.4218 18.8593 28.9024 18.158 28.3486C17.6 27.9366 17.1112 27.4791 16.595 27.0396C15.9307 26.4758 15.2445 25.9269 14.598 25.3521C14.186 24.987 13.7274 24.6469 13.3798 24.2454C13.1803 24.0292 12.9802 23.8124 12.8108 23.5832ZM13.0192 24.9166C12.9761 25.1853 13.0295 25.4555 12.9994 25.7247C12.9699 26.0867 13.0947 26.4748 12.8431 26.8094C12.7635 26.8898 12.7018 26.9792 12.7217 27.0826C12.8787 26.8698 13.1063 26.6726 13.1399 26.4233C13.1797 26.1237 13.1214 25.8235 13.1111 25.5239C13.1043 25.3201 13.0926 25.1144 13.0192 24.9166ZM12.4742 26.3644C12.418 26.5357 12.3145 26.758 12.5099 26.9028C12.6285 26.738 12.6059 26.5467 12.6648 26.3704C12.7005 26.2106 12.8067 26.0668 12.8588 25.9109C12.6052 25.9824 12.5421 26.1941 12.4742 26.3644ZM12.7224 26.694C12.8629 26.4998 12.9637 26.2805 12.9322 26.0588C12.7539 26.2396 12.7587 26.4803 12.7224 26.694ZM13.7843 26.3789C13.8487 26.5936 13.833 26.8179 13.7384 27.0271C13.6863 27.165 13.5642 27.3108 13.6527 27.4551C13.7295 27.4197 13.8062 27.3782 13.8481 27.3183C14.0702 27.0271 14.0476 26.6521 13.7843 26.3789ZM14.2566 26.4223C14.2813 26.5847 14.4191 26.7185 14.4918 26.8698C14.6083 27.111 14.6015 27.3737 14.5631 27.6249C14.5261 27.8557 14.3129 28.0439 14.2573 28.2702C14.5377 28.1358 14.816 27.9346 14.8119 27.6724C14.8387 27.2324 14.8044 26.7 14.2566 26.4223ZM13.3058 27.5825C13.4758 27.5136 13.4374 27.3627 13.4717 27.2449C13.5163 27.0651 13.6458 26.8983 13.6362 26.7115C13.3702 26.9567 13.3538 27.2848 13.3058 27.5825ZM14.9298 26.7749C15.0587 27.1999 15.0519 27.6379 15.08 28.0699C15.056 28.2237 14.9298 28.3551 14.8654 28.5004C14.8332 28.5583 14.8222 28.6372 14.9175 28.6672C14.9333 28.6662 14.9662 28.6647 14.9826 28.6637C15.0656 28.4659 15.1684 28.2702 15.202 28.0639C15.2315 27.6299 15.0498 27.2079 15.0169 26.7779C14.995 26.7774 14.9518 26.7759 14.9298 26.7749ZM15.213 27.109C15.4687 27.4521 15.6668 27.8277 15.6593 28.2242C15.7347 28.5593 15.5564 28.8825 15.5461 29.2151C15.7093 29.0742 15.8423 28.9079 15.867 28.7211C15.9321 28.3521 15.8437 27.977 15.7196 27.6194C15.6545 27.4067 15.4392 27.2414 15.213 27.109ZM0.713843 27.2649C0.643919 27.4971 0.572623 27.7363 0.613069 27.9755C0.670654 28.2222 0.809133 28.455 0.968178 28.6762C1.14025 28.9124 1.25062 29.1701 1.43846 29.4014C1.79288 29.8923 2.04379 30.4187 2.34131 30.9286C3.18178 32.0193 3.82618 33.1924 4.81336 34.2222C5.11431 34.6197 5.41732 35.0168 5.72512 35.4118C5.9157 35.624 6.11451 35.8338 6.26876 36.062C6.40175 36.2603 6.61769 36.4211 6.75274 36.6189C6.99954 36.9904 7.33888 37.333 7.46639 37.7426L7.319 37.6721C7.29569 37.8459 7.40263 38.0502 7.22097 38.193C7.10443 37.9538 7.15173 37.6951 7.0537 37.4529C7.0489 37.7216 7.04753 37.9903 7.05781 38.2589C7.17435 38.251 7.26141 38.199 7.33545 38.1371C7.39167 38.0252 7.45474 37.9149 7.48558 37.798C7.61721 37.4324 7.50547 37.0424 7.31077 36.6993C7.11197 36.3372 6.94127 35.9651 6.67254 35.626C6.31811 35.1816 6.00002 34.7226 5.62504 34.2871C5.00394 33.488 4.38558 32.6885 3.78779 31.8799C3.3895 31.3655 3.08443 30.8172 2.72384 30.2893C2.23779 29.4977 1.68594 28.7301 1.14573 27.958C0.981889 27.7333 0.880429 27.4881 0.713843 27.2649ZM16.281 27.953C16.3606 28.2212 16.4305 28.4929 16.436 28.7686C16.414 29.1566 16.4819 29.5437 16.4579 29.9322C16.5936 29.8358 16.5813 29.6985 16.6012 29.5736C16.6876 29.2375 16.5491 28.9019 16.5182 28.5668C16.4689 28.3586 16.5422 28.0994 16.281 27.953ZM16.1042 28.1583C16.0726 28.3771 16.1439 28.5968 16.0966 28.815C16.0726 28.9739 15.9698 29.1172 15.9102 29.269C16.146 29.1012 16.1919 28.846 16.1926 28.6173C16.1899 28.463 16.2063 28.2991 16.1042 28.1583ZM16.7835 29.0263C16.8624 29.3369 16.763 29.6516 16.8034 29.9642C16.8877 29.9247 16.9652 29.8783 17.0413 29.8318C17.1318 29.6171 17.3052 29.4068 17.2586 29.1746C17.2463 29.0208 17.1338 28.8875 17.0029 28.7726C17.0605 28.9039 17.1297 29.0348 17.14 29.1741C17.1619 29.3874 17.0434 29.5891 17.0015 29.7974C16.9049 29.8293 16.7966 29.7504 16.8699 29.6715C16.9158 29.264 16.9481 28.8265 16.691 28.45C16.6519 28.6432 16.7595 28.834 16.7835 29.0263ZM0.964064 29.2865C0.950354 29.0403 0.880429 28.7941 0.735781 28.5708C0.737837 28.818 0.853693 29.0553 0.964064 29.2865ZM17.7405 29.0672C17.8783 29.4143 17.986 29.7684 18.0682 30.1245C18.0566 30.4281 17.9551 30.7323 18.0367 31.0364C18.4048 30.7747 18.3322 30.3417 18.2081 30.0116C18.0511 29.6975 18.0154 29.3434 17.7405 29.0672ZM0.848209 29.8124C0.916077 30.1974 0.848894 30.586 0.753604 30.9655C0.888655 30.7702 0.927731 30.5515 1.00108 30.3417C1.06964 30.149 0.965436 29.9567 0.951039 29.7644C0.940071 29.6221 0.935957 29.4788 0.882486 29.3409C0.765259 29.4833 0.848894 29.6565 0.848209 29.8124ZM0.491044 29.8428C0.459509 29.9252 0.309376 29.9627 0.324458 30.0581C0.33337 30.3023 0.294294 30.552 0.350508 30.7927C0.375188 30.5355 0.35325 30.2763 0.340911 30.0191C0.374502 30.0196 0.44237 30.0211 0.475962 30.0216C0.490358 30.2409 0.388898 30.4981 0.63912 30.6674C0.713158 30.5405 0.763202 30.4047 0.733038 30.2663C0.691906 30.0306 0.695334 29.7939 0.695334 29.5572C0.613069 29.6466 0.552742 29.7449 0.491044 29.8428ZM1.51798 30.3837C1.70787 30.6404 1.59407 30.945 1.73461 31.2122C1.69828 31.2896 1.66126 31.368 1.62904 31.4474C1.50701 31.7171 1.59682 32.0447 1.27804 32.252C1.46793 32.1626 1.73529 32.1007 1.77368 31.9144C1.82784 31.6527 1.87377 31.376 1.74489 31.1223C1.79631 30.944 1.78534 30.7583 1.70513 30.586C1.55843 30.2514 1.40075 29.9152 1.1471 29.6146C1.22868 29.8798 1.33631 30.144 1.51798 30.3837ZM16.3681 29.8778C16.4079 29.9098 16.4079 29.9098 16.3681 29.8778V29.8778ZM18.7743 30.2079C18.8004 30.4102 18.8689 30.6124 18.8326 30.8172C18.7949 31.0719 18.6722 31.3481 18.8552 31.5883C19.0047 31.1423 19.0883 30.6284 18.7743 30.2079ZM1.22525 30.4027C1.19646 30.523 1.25885 30.6714 1.12654 30.7672C1.06073 30.8162 1.08198 30.8906 1.08403 30.953C1.11831 30.8861 1.14985 30.8187 1.18892 30.7538C1.26639 30.933 1.28901 31.1333 1.43983 31.2916C1.47548 30.987 1.41583 30.6764 1.22525 30.4027ZM20.1721 30.8596C20.1907 30.8911 20.2277 30.9535 20.2462 30.9845C20.8227 31.5089 20.8659 32.2565 20.6081 32.8788C20.7665 32.7529 20.7864 32.5741 20.7974 32.4118C20.8049 32.1152 20.7788 31.818 20.7857 31.5209C20.8179 31.5294 20.8817 31.5463 20.9139 31.5548C20.6918 31.3101 20.4827 31.0519 20.1721 30.8596ZM20.1673 31.1508C20.0659 31.4539 19.8712 31.7516 19.9439 32.0722C19.9843 32.1941 19.924 32.3699 20.1015 32.4418C20.0919 32.3334 20.0398 32.222 20.105 32.1182C20.2174 31.8864 20.2126 31.6397 20.2304 31.398C20.3881 31.7516 20.3689 32.1321 20.3003 32.4962C20.3648 32.4982 20.4299 32.4997 20.495 32.5022C20.5506 32.1202 20.5053 31.7176 20.2469 31.376C20.2201 31.3001 20.1948 31.2257 20.1673 31.1508ZM0.98943 31.814C1.24308 31.8075 1.41721 31.5673 1.31849 31.4025C1.24719 31.5279 1.25747 31.7291 1.03879 31.7726C1.07855 31.6577 1.12311 31.5438 1.1663 31.4305C1.0477 31.5363 0.873574 31.6682 0.98943 31.814ZM2.38244 31.4549C2.44003 31.6242 2.44208 31.801 2.49693 31.9693C2.8157 32.4618 2.754 33.0341 2.58193 33.548C2.77457 33.5565 2.81433 33.3747 2.80816 33.2678C2.79376 32.9662 2.92813 32.667 2.84655 32.3669C2.78005 32.0418 2.55246 31.7541 2.38244 31.4549ZM21.1086 32.3579C20.9811 32.5641 20.8741 32.7794 20.8028 32.9996C21.1566 32.8848 21.2347 32.5666 21.2937 32.3159C21.3602 32.0852 21.1223 31.9049 20.9694 31.7251C21.0524 31.9304 21.1079 32.1426 21.1086 32.3579ZM2.34679 32.289C2.3845 32.4008 2.47362 32.5032 2.48527 32.6206C2.4983 32.7394 2.40849 32.8493 2.41055 32.9677C2.43317 33.115 2.31115 33.2518 2.35571 33.3997C2.3941 33.3717 2.43249 33.3442 2.47088 33.3167C2.47156 33.2204 2.46539 33.124 2.451 33.0291C2.66351 32.9012 2.60661 32.6835 2.52915 32.5177C2.44688 32.3499 2.41466 32.1731 2.38176 31.9978C2.35845 32.0932 2.33034 32.1911 2.34679 32.289ZM21.7626 32.3109C21.8551 32.4393 22.0032 32.5402 22.0999 32.6665C22.2418 32.9577 22.1842 33.2713 22.2055 33.574C22.4941 33.1474 22.3563 32.5586 21.7626 32.3109ZM21.6035 32.3364C21.5295 32.6805 21.5062 33.0311 21.3862 33.3702C21.3314 33.497 21.4459 33.6119 21.5192 33.7213C21.5802 33.4531 21.5885 33.1804 21.6317 32.9107C21.6488 32.7195 21.6796 32.5227 21.6035 32.3364ZM21.9175 32.5811C21.8702 32.9557 21.8812 33.3342 21.7688 33.7038C22.1986 33.4201 22.0608 32.9517 21.9922 32.5821L21.9175 32.5811ZM3.4272 33.0491C3.34082 33.3128 3.67537 33.4826 3.75832 33.7158C3.8303 34.0279 3.73981 34.3475 3.80562 34.6602C3.81247 34.7371 3.88446 34.791 3.97563 34.8225C3.99688 34.4769 4.02293 34.1198 3.88925 33.7842C3.75626 33.5335 3.64794 33.2683 3.4272 33.0491ZM21.2265 33.13C21.1264 33.1809 21.086 33.3018 21.1264 33.3847C21.2395 33.3642 21.2978 33.1904 21.2265 33.13ZM20.9866 33.4811C21.0441 33.4091 21.0462 33.3158 21.0462 33.2358C20.9427 33.2568 20.8481 33.4626 20.9866 33.4811ZM3.35316 33.4266C3.42309 33.6394 3.34357 33.8546 3.31203 34.0674C3.28392 34.2187 3.35042 34.3675 3.38744 34.5153C3.42583 34.6317 3.43611 34.7745 3.59722 34.8405C3.42172 34.3765 3.64932 33.8696 3.35316 33.4266ZM2.60798 33.9945C2.89591 34.0089 2.90962 33.7443 2.96926 33.5959C2.77594 33.6873 2.61141 33.8142 2.60798 33.9945ZM22.0286 33.9805C22.128 33.944 22.1074 33.8027 22.0087 33.7742C21.8887 33.7957 21.9223 33.9585 22.0286 33.9805ZM4.78457 34.6487C4.81884 34.7596 4.72013 34.9893 4.97446 34.9643C4.92647 34.8544 4.86546 34.7476 4.78457 34.6487ZM3.61093 34.8674C3.51426 34.9034 3.50947 35.0442 3.60955 35.0802C3.72061 35.0537 3.72061 34.8924 3.61093 34.8674ZM4.8113 35.0887C4.87643 35.3309 4.97515 35.5696 5.00531 35.8173C5.02725 36.0046 4.92099 36.1824 4.89494 36.3672C4.85655 36.3247 4.81884 36.2823 4.78114 36.2403C4.76469 36.2518 4.74755 36.2638 4.73109 36.2763C4.66597 36.499 4.48978 36.7627 4.71944 36.9685C4.7167 36.7702 4.68174 36.5669 4.77223 36.3752C4.80033 36.3762 4.85655 36.3772 4.88534 36.3782C4.86135 36.544 4.82707 36.7198 4.92373 36.8786C5.17738 36.6828 4.99914 36.3966 5.08826 36.1594C5.19589 35.8098 5.05878 35.4597 4.99366 35.1146C4.99366 35.0427 4.81884 34.9893 4.8113 35.0887ZM5.34465 35.4453C5.34259 35.634 5.38304 35.8223 5.37207 36.0116C5.36727 36.3212 5.25896 36.6244 5.2521 36.934C5.73541 36.7048 5.4701 36.2478 5.47696 35.9072C5.55305 36.078 5.61064 36.2538 5.69565 36.4231C5.68605 36.085 5.56539 35.7424 5.34465 35.4453ZM5.83892 36.1869C5.82864 36.4636 5.91776 36.7677 5.67508 37.0089C5.4893 37.1003 5.31449 37.2212 5.26239 37.387C5.41732 37.332 5.53249 37.2376 5.64492 37.1463C5.60241 37.338 5.4893 37.5438 5.59419 37.7346C5.67302 37.5453 5.70867 37.347 5.81493 37.1637C5.92736 36.9705 6.01716 36.7682 6.03979 36.5584C6.06447 36.4171 5.92462 36.3022 5.83892 36.1869ZM6.43808 36.6643C6.44974 36.979 6.53612 37.2911 6.50321 37.6062C6.48196 37.8105 6.43603 38.0127 6.39558 38.216C6.19952 38.0662 6.26807 37.8479 6.2619 37.6617C6.30783 37.3535 6.2811 37.0434 6.23791 36.7362C6.18718 36.8786 6.15976 37.0269 6.07681 37.1627C5.85743 37.4339 5.86497 37.762 5.83275 38.0667C5.8876 38.1181 5.94381 38.1696 6.00071 38.2215C5.99317 37.9069 6.00482 37.5937 6.02265 37.2801C6.07338 37.2736 6.13233 37.2676 6.15975 37.3081C6.15221 37.5588 6.05624 37.818 6.17621 38.0627C6.24339 38.1815 6.31811 38.3179 6.49773 38.3678C6.56079 38.0197 6.69516 37.6796 6.72327 37.328C6.74932 37.5383 6.83227 37.7481 6.78154 37.9598C6.79045 38.0672 6.68762 38.2275 6.86654 38.2844C6.9303 37.9548 6.78497 37.6357 6.78291 37.3076C6.72121 37.0808 6.60124 36.8626 6.43808 36.6643ZM7.54728 38.4003C7.38481 38.6909 7.59938 39.0076 7.47325 39.3047C7.44994 39.457 7.29089 39.6099 7.38687 39.7612C7.4945 39.7033 7.51918 39.5979 7.59116 39.5205C7.88457 39.1769 7.68439 38.7574 7.54728 38.4003ZM7.1531 38.5686C7.07906 38.9132 7.07495 39.2633 7.12499 39.6109C7.21823 39.5449 7.22234 39.4476 7.24633 39.3617C7.30803 39.0785 7.31352 38.7863 7.24428 38.5042C7.22165 38.5201 7.17572 38.5526 7.1531 38.5686ZM6.85283 39.491C6.92893 39.4231 6.98583 39.3432 6.98583 39.2543C7.00434 39.0325 7.05575 38.8138 7.0914 38.5941C6.83775 38.8533 6.84255 39.1864 6.85283 39.491Z" fill="black"/>
</svg>
