<svg width="55" height="39" viewBox="0 0 55 39" fill="none" xmlns="http://www.w3.org/2000/svg">
<path d="M43.3103 1.25L14.3347 37.25M17.4481 32.4009C9.9441 28.475 4.7734 21.5388 4.7734 21.5388C4.7734 21.5388 14.8392 8.05431 27.2539 8.05431C30.2934 8.10323 33.2829 8.82165 36.0033 10.1569M40.1731 12.5621C43.793 15.0705 47.0129 18.096 49.7266 21.5388C49.5043 21.8719 49.2536 22.1859 48.9776 22.4776C48.2919 23.3 47.5746 24.0992 46.8258 24.8673C43.3969 28.4207 39.3533 31.6405 34.6633 33.4483C31.3149 34.7796 27.6752 35.2418 24.0931 34.7905C23.4691 34.7311 22.8593 34.5712 22.288 34.3172M43.862 6.98361C47.3358 9.32747 50.4908 12.0991 53.25 15.231M1.25 15.231C1.25 15.231 12.8923 1.26551 27.2618 1.26551C31.7889 1.3667 36.2196 2.57166 40.1573 4.77243M31.6916 15.7198L31.1872 15.2699C30.002 14.5526 28.6374 14.1738 27.2461 14.1759C25.2517 14.1759 23.339 14.9557 21.9287 16.3438C20.5185 17.7319 19.7262 19.6146 19.7262 21.5776C19.7247 22.6583 19.9639 23.7262 20.4269 24.7061C20.89 25.686 21.5655 26.554 22.4062 27.2491M34.4189 19.3043C34.6535 20.0267 34.7731 20.7804 34.7736 21.5388C34.7736 23.5019 33.9813 25.3845 32.5711 26.7726C31.1609 28.1607 29.2483 28.9405 27.2539 28.9405" stroke="#4B4544" stroke-width="2.5" stroke-linecap="round" stroke-linejoin="round"/>
</svg>
