<svg width="38" height="50" viewBox="0 0 38 50" fill="none" xmlns="http://www.w3.org/2000/svg">
<path d="M28.6478 24.6218L29.8978 24.6245V24.6218H28.6478ZM18.7538 34.69L18.75 35.94L18.7576 35.94L18.7538 34.69ZM8.85224 24.6218H7.60223L7.60224 24.6255L8.85224 24.6218ZM8.85224 11.3106L7.60224 11.307V11.3106H8.85224ZM18.7538 1.25L18.7576 -1.19209e-05L18.7509 3.21865e-06L18.7538 1.25ZM28.6478 11.3106H29.8978L29.8978 11.307L28.6478 11.3106ZM18.7538 42.4127L18.7505 43.6627L18.7575 43.6627L18.7538 42.4127ZM8.85228 21.147C8.16192 21.147 7.60228 21.7066 7.60228 22.397C7.60228 23.0873 8.16192 23.647 8.85228 23.647V22.397V21.147ZM28.6478 23.647C29.3381 23.647 29.8978 23.0873 29.8978 22.397C29.8978 21.7066 29.3381 21.147 28.6478 21.147V22.397V23.647ZM19.9963 34.69C19.9963 33.9996 19.4367 33.44 18.7463 33.44C18.056 33.44 17.4963 33.9996 17.4963 34.69H18.7463H19.9963ZM17.4963 48.25C17.4963 48.9404 18.056 49.5 18.7463 49.5C19.4367 49.5 19.9963 48.9404 19.9963 48.25H18.7463H17.4963ZM28.6478 24.6218L27.3978 24.619C27.3926 26.9624 26.4751 29.2043 24.8523 30.8557L25.7439 31.7318L26.6354 32.608C28.7206 30.4861 29.8912 27.6154 29.8978 24.6245L28.6478 24.6218ZM25.7439 31.7318L24.8523 30.8557C23.2302 32.5064 21.0358 33.433 18.75 33.44L18.7538 34.69L18.7576 35.94C21.7176 35.931 24.5496 34.7306 26.6354 32.608L25.7439 31.7318ZM18.7538 34.69L18.7575 33.44C16.4709 33.433 14.2756 32.5065 12.6523 30.8558L11.761 31.7323L10.8698 32.6088C12.9568 34.731 15.7894 35.931 18.75 35.94L18.7538 34.69ZM11.761 31.7323L12.6523 30.8558C11.0282 29.2044 10.1091 26.9623 10.1022 24.6181L8.85224 24.6218L7.60224 24.6255C7.61102 27.6169 8.78346 30.4873 10.8698 32.6088L11.761 31.7323ZM8.85224 24.6218H10.1022V11.3106H8.85224H7.60224V24.6218H8.85224ZM8.85224 11.3106L10.1022 11.3143C10.1091 8.97096 11.0283 6.72977 12.6524 5.0796L11.7615 4.2028L10.8706 3.32599C8.78382 5.44629 7.61103 8.31609 7.60224 11.307L8.85224 11.3106ZM11.7615 4.2028L12.6524 5.0796C14.2757 3.43016 16.4708 2.5052 18.7566 2.5L18.7538 1.25L18.7509 3.21865e-06C15.7908 0.00673854 12.958 1.20497 10.8706 3.32599L11.7615 4.2028ZM18.7538 1.25L18.75 2.49999C21.0346 2.50693 23.2281 3.43267 24.85 5.08194L25.7412 4.20547L26.6325 3.329C24.5468 1.20823 21.7162 0.00898635 18.7576 5.72205e-06L18.7538 1.25ZM25.7412 4.20547L24.85 5.08194C26.4727 6.73191 27.3909 8.97208 27.3978 11.3143L28.6478 11.3106L29.8978 11.307C29.889 8.31758 28.7174 5.44907 26.6325 3.329L25.7412 4.20547ZM28.6478 11.3106H27.3978V24.6218H28.6478H29.8978V11.3106H28.6478ZM36.25 24.6218L35 24.6182C34.9873 29.0087 33.2661 33.2117 30.2191 36.31L31.1103 37.1865L32.0015 38.063C35.5109 34.4945 37.4854 29.6632 37.5 24.6254L36.25 24.6218ZM31.1103 37.1865L30.2191 36.31C27.1727 39.4077 23.0491 41.1498 18.75 41.1627L18.7538 42.4127L18.7575 43.6627C23.7306 43.6478 28.4914 41.6322 32.0015 38.063L31.1103 37.1865ZM18.7538 42.4127L18.757 41.1627C14.4567 41.1516 10.3312 39.4103 7.28338 36.3124L6.39234 37.1891L5.50129 38.0658C9.01308 41.6352 13.7761 43.6499 18.7505 43.6627L18.7538 42.4127ZM6.39234 37.1891L7.28338 36.3124C4.23483 33.2139 2.51276 29.0099 2.49999 24.6182L1.25 24.6218L5.24521e-06 24.6254C0.0146513 29.6646 1.9902 34.497 5.50129 38.0658L6.39234 37.1891ZM8.85228 22.397V23.647H28.6478V22.397V21.147H8.85228V22.397ZM11.8709 48.25V49.5H25.6291V48.25V47H11.8709V48.25ZM18.7463 34.69H17.4963V48.25H18.7463H19.9963V34.69H18.7463Z" fill="#363130"/>
</svg>
