<svg width="21" height="47" viewBox="0 0 21 47" fill="none" xmlns="http://www.w3.org/2000/svg">
<path d="M1.25 31.96C1.25 34.3072 2.18241 36.5581 3.8421 38.2178C5.5018 39.8775 7.75281 40.81 10.1 40.81M10.1 40.81C12.4471 40.81 14.6982 39.8775 16.3579 38.2178C18.0176 36.5581 18.95 34.3072 18.95 31.96C18.9782 30.5915 18.669 29.2371 18.0499 28.0163C17.4308 26.7955 16.5207 25.7459 15.4 24.96C11.91 22.85 7.08997 23.48 4.02997 20.63C3.16036 19.8152 2.46551 18.8322 1.98761 17.7406C1.50971 16.6489 1.25876 15.4716 1.25 14.28C1.25 11.9319 2.18208 9.67979 3.84149 8.01851C5.5009 6.35722 7.75189 5.42265 10.1 5.42C12.4481 5.42265 14.699 6.35722 16.3585 8.01851C18.0179 9.67979 18.95 11.9319 18.95 14.28M10.1 40.81L10.1 44.97M10.1 1.25V5.41" stroke="#4B4544" stroke-width="2.5" stroke-linecap="round" stroke-linejoin="round"/>
</svg>
