<svg width="86" height="41" viewBox="0 0 86 41" fill="none" xmlns="http://www.w3.org/2000/svg">
<path d="M29.2938 1.33265C32.3475 0.493826 35.5881 -0.134022 38.8771 0.0246276C43.9005 0.247413 48.6541 1.574 53.3892 2.71661C55.8756 3.32252 58.5003 3.68877 60.8252 4.61197C62.0499 5.08455 63.0324 5.85754 63.6413 6.76556C64.8476 8.57991 65.4173 10.5681 66.1254 12.5073C67.4885 16.2812 68.6671 20.0888 69.7996 23.9031C72.9548 24.7149 76.1769 25.4322 79.1291 26.6086C81.0642 27.3901 83.1861 28.0854 84.6046 29.3749C85.172 29.8964 85.5825 30.5917 85.2712 31.2584C84.7868 32.4922 83.2784 33.2804 81.8069 33.8593C78.338 35.1656 74.5508 35.9015 70.8744 36.8162C66.303 37.893 61.6025 38.6491 56.8627 39.1926C45.6465 40.585 34.0612 40.2745 22.9995 38.3386C20.6423 37.9639 18.3244 37.466 16.0571 36.8702C12.0185 35.8525 8.06991 34.558 4.58718 32.7335C3.03725 31.8609 1.46195 30.9192 0.484018 29.6567C-0.468543 28.45 0.071165 26.8871 1.35124 25.9268C2.9104 24.8128 5.06692 24.2981 7.15425 23.9757C9.95889 23.6213 12.805 23.4626 15.6466 23.3732C16.4192 20.7284 17.0904 18.0651 17.8746 15.4204C18.3682 13.5369 18.9909 11.6702 19.7889 9.84067C20.5224 8.0567 21.4796 6.30143 22.9234 4.75712C24.4872 3.15712 26.8397 2.06851 29.2938 1.33265ZM36.9304 0.746991C34.9008 0.795936 32.9149 1.16049 30.9983 1.63138C27.9399 2.33011 25.0084 3.64657 23.3293 5.69552C21.7702 7.66008 20.8707 9.85248 19.9942 12.0179C18.7095 15.6533 17.7385 19.3428 16.6868 23.0171C16.2762 24.2896 16.1817 25.5976 15.8011 26.8736C15.5359 27.7124 16.1586 28.509 17.0258 29.0255C18.4904 30.0652 20.3633 30.7217 22.2937 31.169C27.8269 32.5968 33.7498 32.909 39.5713 32.9833C44.5209 32.9175 49.4683 32.5293 54.3095 31.7698C58.98 30.9631 63.7198 29.8187 67.4654 27.5403C68.0813 27.1369 68.7893 26.7538 69.133 26.185C69.4905 24.8078 68.5495 23.5082 68.2589 22.1749C66.8404 17.8829 65.5534 13.5571 63.6967 9.35291C62.9171 7.76641 62.073 5.96556 59.9049 5.12337C57.1095 4.09383 53.9797 3.72927 51.0505 2.96471C48.5088 2.28455 45.9048 1.74108 43.2893 1.23644C41.2158 0.841506 39.0708 0.684544 36.9304 0.746991ZM3.98981 25.4964C2.75356 25.9268 1.60726 26.6221 1.09061 27.574C0.620098 28.4449 1.27052 29.3664 1.99243 30.0533C4.2712 32.023 7.34338 33.3901 10.4663 34.5327C19.2423 37.6128 28.9778 38.9377 38.6349 39.3867C44.4171 39.6297 50.2086 39.2449 55.9355 38.6677C61.5909 38.0804 67.184 37.1352 72.5719 35.7327C75.5864 34.9917 78.6586 34.3183 81.4978 33.255C82.8425 32.747 84.2725 31.9099 84.3578 30.72C83.915 29.7495 82.7226 29.0998 81.6362 28.5209C79.2191 27.3749 76.5966 26.4837 73.9327 25.6955C72.5834 25.304 71.1534 25.0694 69.8572 24.5833C69.8388 25.0829 69.961 25.5757 70.0579 26.0668C69.8318 26.7605 69.0915 27.2719 68.4618 27.785C66.6489 29.093 64.4878 30.1428 62.1375 30.8618C57.7991 32.1833 53.1747 32.9394 48.5157 33.3327C43.49 33.8643 38.3789 33.9116 33.3278 33.5504C29.0931 33.2668 24.847 32.7436 20.8891 31.569C18.5158 30.8854 16.1586 29.7951 15.0192 28.0635C14.7632 26.7369 15.6051 25.4474 15.5635 24.1158C14.092 24.0111 12.6297 24.2171 11.1675 24.2981C8.72725 24.4871 6.22706 24.7082 3.98981 25.4964Z" fill="black"/>
<path d="M31.8239 3.31235C31.9761 3.22628 32.1606 3.1824 32.3405 3.13514C31.2357 4.25582 29.6351 5.08957 28.7609 6.33852C27.9122 7.59421 27.121 8.89042 26.7151 10.2659C26.5168 11.0896 26.4337 12.0854 27.2986 12.7318C27.9652 13.2229 29.1115 13.0406 29.7435 12.6018C31.6394 11.3714 33.7313 10.3149 35.9109 9.37312C39.306 7.82206 42.9479 6.44316 46.9126 5.89295C49.7173 5.7343 52.5035 5.42206 55.262 5.01868C53.4422 5.68198 51.4102 5.97058 49.4128 6.19506C53.0478 6.61531 56.4382 8.02628 58.943 9.99084C56.6758 9.07607 54.5862 7.90814 52.1436 7.24316C50.5545 6.80772 48.9192 6.37396 47.2009 6.35708C41.2434 7.2651 36.0308 9.72924 31.1827 12.3183C30.3478 12.7335 29.5543 13.2719 28.5303 13.4119C27.5154 13.5351 26.5283 12.9748 26.3622 12.2423C25.7833 10.1664 27.0334 8.17818 27.9491 6.26594C28.8347 5.03894 30.3086 4.11236 31.8239 3.31235Z" fill="black"/>
<path d="M32.1423 13.5521C34.9077 12.0432 37.6477 10.4719 40.7268 9.31577C38.7272 10.4719 36.5522 11.4542 34.5041 12.563C33.7475 12.9242 33.0533 13.4154 32.1423 13.5521Z" fill="black"/>
<path d="M79.1568 31.2449C79.369 31.1267 79.5789 30.9681 79.8718 30.9934C79.0046 31.7765 77.7407 32.2221 76.5505 32.6828C74.5462 33.4086 72.5027 34.0786 70.4385 34.7081C72.5719 33.7967 74.8092 33.0221 77.0118 32.2052C77.7522 31.9183 78.5018 31.6313 79.1568 31.2449Z" fill="black"/>
</svg>
