<svg width="48" height="48" viewBox="0 0 48 48" fill="none" xmlns="http://www.w3.org/2000/svg">
<path d="M45.8951 1.67038L19.87 27.6367M19.87 27.6274L25.5641 44.6301C25.6874 45.1166 25.9771 45.5446 26.3829 45.8396C26.7888 46.1347 27.2851 46.2782 27.7858 46.2454C28.1176 46.2154 28.4347 46.0939 28.7017 45.8945C28.9687 45.695 29.175 45.4254 29.298 45.1156L46.1564 3.04299C46.2515 2.80543 46.2747 2.54515 46.2233 2.2945C46.1719 2.04384 46.0481 1.81379 45.8672 1.63286C45.6864 1.45192 45.4564 1.32809 45.2058 1.27668C44.9552 1.22526 44.695 1.24849 44.4575 1.34358L2.39552 18.2063C1.06066 18.7385 0.855347 20.5032 1.97551 21.661C2.04085 21.6797 19.87 27.6274 19.87 27.6274Z" stroke="#363130" stroke-width="2.5" stroke-linecap="round" stroke-linejoin="round"/>
</svg>
