<svg width="49" height="49" viewBox="0 0 49 49" fill="none" xmlns="http://www.w3.org/2000/svg">
<path d="M39.8256 26.6275L45.7822 30.0682C45.9172 30.1421 46.0363 30.2419 46.1327 30.362C46.2291 30.482 46.3008 30.6199 46.3437 30.7678C46.3867 30.9156 46.4001 31.0704 46.383 31.2234C46.366 31.3764 46.3189 31.5245 46.2445 31.6593L41.7092 39.513C41.5541 39.7799 41.2999 39.9747 41.0018 40.0549C40.7038 40.1352 40.3861 40.0944 40.1181 39.9414L34.1683 36.5415C32.8921 37.5692 31.4626 38.3906 29.9321 38.9758V45.8503C29.933 46.0035 29.9036 46.1555 29.8456 46.2973C29.7875 46.4392 29.702 46.5681 29.594 46.6768C29.4859 46.7855 29.3574 46.8718 29.2159 46.9306C29.0744 46.9895 28.9226 47.0198 28.7694 47.0198H19.7054C19.5518 47.0198 19.3997 46.9895 19.2578 46.9308C19.1159 46.872 18.987 46.7858 18.8784 46.6772C18.7698 46.5686 18.6837 46.4397 18.6249 46.2978C18.5661 46.1559 18.5358 46.0038 18.5358 45.8503V38.9758C17.006 38.3891 15.5768 37.5678 14.2996 36.5415L8.3567 39.9414C8.08863 40.0944 7.77093 40.1352 7.47288 40.0549C7.17482 39.9747 6.92057 39.7799 6.76556 39.513L2.23018 31.6593C2.07717 31.3912 2.03634 31.0735 2.11659 30.7755C2.19683 30.4774 2.39164 30.2232 2.65856 30.0682L8.61509 26.6275C8.48243 25.8204 8.41196 25.0044 8.40431 24.1865C8.41226 23.3708 8.48273 22.5571 8.61509 21.7522L2.65856 18.3115C2.52238 18.2388 2.40195 18.1398 2.30422 18.0203C2.20648 17.9007 2.13336 17.763 2.08911 17.6151C2.04486 17.4672 2.03032 17.312 2.04637 17.1584C2.06241 17.0049 2.10871 16.856 2.18258 16.7204L6.71796 8.86674C6.87297 8.59983 7.12722 8.40506 7.42527 8.32481C7.72333 8.24457 8.04103 8.28535 8.3091 8.43836L14.252 11.8382C15.5306 10.8122 16.9594 9.98891 18.4883 9.39714V2.52267C18.4901 2.21366 18.614 1.91788 18.8332 1.70001C19.0523 1.48215 19.3488 1.35986 19.6578 1.35986H28.7353C29.0437 1.35986 29.3395 1.48237 29.5575 1.70043C29.7756 1.91849 29.8981 2.21429 29.8981 2.52267V9.39714C31.4276 9.98744 32.8566 10.8109 34.1343 11.8382L40.084 8.43836C40.3521 8.28535 40.6698 8.24457 40.9678 8.32481C41.2659 8.40506 41.5202 8.59983 41.6752 8.86674L46.2106 16.7204C46.3636 16.9885 46.4044 17.3062 46.3241 17.6042C46.2439 17.9023 46.0491 18.1565 45.7822 18.3115L39.8256 21.7522C39.9557 22.5572 40.024 23.371 40.0297 24.1865C40.0242 25.0042 39.956 25.8202 39.8256 26.6275Z" stroke="#4B4544" stroke-width="2.5" stroke-linecap="round" stroke-linejoin="round"/>
</svg>
