<svg width="48" height="46" viewBox="0 0 48 46" fill="none" xmlns="http://www.w3.org/2000/svg">
<path d="M23.9854 1.25H24.0068C24.5551 1.24465 25.0958 1.3816 25.5752 1.64648C26.0542 1.91127 26.4562 2.29511 26.7422 2.76074L26.75 2.77344L31.7344 10.6934L31.7393 10.7012C32.5341 11.9442 33.773 12.8378 35.2031 13.2021L35.207 13.2031L44.292 15.4863L44.293 15.4873C44.8269 15.6211 45.3177 15.8879 45.7197 16.2627C46.1217 16.6375 46.4221 17.1075 46.5918 17.6289C46.7615 18.1505 46.795 18.7068 46.6904 19.2451C46.5859 19.7834 46.3462 20.2871 45.9932 20.708L45.9922 20.709L39.9912 27.8896C39.0432 29.0225 38.5672 30.4765 38.6631 31.9502V31.9531L39.293 41.2852C39.3223 41.7279 39.2606 42.1719 39.1113 42.5898C38.962 43.008 38.7287 43.3919 38.4248 43.7168C38.121 44.0416 37.7532 44.3007 37.3447 44.4785C36.9368 44.6561 36.4968 44.7475 36.0518 44.749C35.6362 44.7486 35.2245 44.6712 34.8379 44.5195L26.1396 41.0342L26.1309 41.0303L25.874 40.9365C25.2704 40.7317 24.6367 40.6258 23.998 40.624H23.9883C23.2629 40.6275 22.5443 40.7653 21.8691 41.0303L21.8604 41.0342L13.1611 44.5195C12.7745 44.6711 12.3629 44.7487 11.9473 44.749C11.5025 44.7474 11.0628 44.6559 10.6553 44.4785C10.2468 44.3007 9.879 44.0417 9.5752 43.7168C9.27132 43.3919 9.03799 43.008 8.88867 42.5898C8.73954 42.1722 8.67787 41.7286 8.70703 41.2861L9.33691 31.9531V31.9502C9.43282 30.4765 8.95685 29.0225 8.00879 27.8896L2.00781 20.709L2.00684 20.708L1.87988 20.5459C1.59604 20.1603 1.40106 19.7161 1.30957 19.2451C1.20506 18.7071 1.2394 18.1508 1.40918 17.6289C1.57895 17.1073 1.87854 16.6373 2.28027 16.2627C2.68215 15.888 3.17301 15.6211 3.70703 15.4873L3.70801 15.4863L12.793 13.2031H12.7949C14.2269 12.8411 15.4657 11.9427 16.2539 10.6943L21.25 2.77441L21.2578 2.76074C21.543 2.29635 21.9441 1.91324 22.4219 1.64844C22.8999 1.38356 23.4384 1.24599 23.9854 1.25Z" stroke="#4B4544" stroke-width="2.5"/>
</svg>
