<svg width="41" height="50" viewBox="0 0 41 50" fill="none" xmlns="http://www.w3.org/2000/svg">
<path d="M36.9119 39.4996L36.9235 38.2496H36.9119V39.4996ZM38.7274 35.7116L37.723 36.4558L37.7403 36.4792L37.7588 36.5018L38.7274 35.7116ZM34.5384 26.0616L35.7679 25.8359L35.7665 25.8283L35.765 25.8207L34.5384 26.0616ZM30.9452 9.46059L31.9142 8.67088L31.9116 8.66771L30.9452 9.46059ZM20.2507 4.38464L20.2534 3.13463L20.2468 3.13465L20.2507 4.38464ZM9.55616 9.46059L8.59056 8.66678L8.58721 8.67088L9.55616 9.46059ZM5.97236 26.0616L4.74571 25.8211L4.74427 25.8285L4.74291 25.8359L5.97236 26.0616ZM1.78344 35.7116L2.74501 36.5103L2.76717 36.4836L2.78781 36.4558L1.78344 35.7116ZM3.59894 39.4996V38.2496H3.58761L3.57628 38.2499L3.59894 39.4996ZM19.0101 4.38467C19.0101 5.07502 19.5698 5.63467 20.2601 5.63467C20.9505 5.63467 21.5101 5.07502 21.5101 4.38467H20.2601H19.0101ZM21.5101 1.25C21.5101 0.559644 20.9505 0 20.2601 0C19.5698 0 19.0101 0.559644 19.0101 1.25H20.2601H21.5101ZM20.2507 48.25L20.2532 47H20.2507L20.2507 48.25ZM36.9119 39.4996L36.9002 40.7496C37.5784 40.7559 38.2442 40.5685 38.8195 40.2096L38.158 39.149L37.4965 38.0884C37.3245 38.1957 37.1257 38.2516 36.9235 38.2497L36.9119 39.4996ZM38.158 39.149L38.8195 40.2096C39.3949 39.8508 39.856 39.3353 40.1491 38.7238L39.0219 38.1836L37.8947 37.6433C37.8067 37.8268 37.6685 37.9811 37.4965 38.0884L38.158 39.149ZM39.0219 38.1836L40.1491 38.7238C40.4422 38.1124 40.5551 37.4301 40.4749 36.7568L39.2337 36.9047L37.9925 37.0526C38.0166 37.2549 37.9826 37.4599 37.8947 37.6433L39.0219 38.1836ZM39.2337 36.9047L40.4749 36.7568C40.3947 36.0835 40.1246 35.4469 39.6959 34.9215L38.7274 35.7116L37.7588 36.5018C37.8872 36.6592 37.9684 36.8503 37.9925 37.0526L39.2337 36.9047ZM38.7274 35.7116L39.7317 34.9675C37.7311 32.2672 36.375 29.1433 35.7679 25.8359L34.5384 26.0616L33.309 26.2873C33.985 29.9699 35.495 33.4485 37.723 36.4558L38.7274 35.7116ZM34.5384 26.0616L35.765 25.8207C35.5033 24.4882 35.3922 23.1167 35.3156 21.692C35.2406 20.2957 35.1974 18.7969 35.0645 17.3519C34.7948 14.4184 34.1372 11.3984 31.9142 8.67088L30.9452 9.46059L29.9763 10.2503C31.7437 12.4188 32.3247 14.8583 32.5751 17.5808C32.7022 18.9638 32.7394 20.3421 32.8192 21.8262C32.8975 23.2818 33.0156 24.794 33.3119 26.3025L34.5384 26.0616ZM30.9452 9.46059L31.9116 8.66771C30.4958 6.94222 28.7166 5.55124 26.7011 4.59463L26.1651 5.72389L25.6292 6.85314C27.3114 7.65157 28.7968 8.81272 29.9789 10.2535L30.9452 9.46059ZM26.1651 5.72389L26.7011 4.59463C24.6856 3.63801 22.4839 3.13951 20.2534 3.13465L20.2507 4.38464L20.248 5.63464C22.1094 5.6387 23.947 6.05472 25.6292 6.85314L26.1651 5.72389ZM20.2507 4.38464L20.2468 3.13465C18.017 3.14166 15.8163 3.64111 13.8015 4.5974L14.3375 5.72666L14.8735 6.85592C16.5558 6.05745 18.3931 5.64049 20.2546 5.63464L20.2507 4.38464ZM14.3375 5.72666L13.8015 4.5974C11.7867 5.55368 10.0075 6.9432 8.59057 8.66678L9.55616 9.46059L10.5218 10.2544C11.7053 8.81475 13.1912 7.65439 14.8735 6.85592L14.3375 5.72666ZM9.55616 9.46059L8.58721 8.67088C6.36397 11.3987 5.70878 14.4167 5.44146 17.3493C5.30981 18.7935 5.26786 20.2924 5.19367 21.6888C5.11797 23.1137 5.00739 24.4864 4.74571 25.8211L5.97236 26.0616L7.19902 26.3021C7.49523 24.7911 7.61278 23.2777 7.69015 21.8214C7.76904 20.3365 7.80511 18.9589 7.93114 17.5763C8.17917 14.8553 8.75799 12.4185 10.5251 10.2503L9.55616 9.46059ZM5.97236 26.0616L4.74291 25.8359C4.13578 29.1433 2.77973 32.2672 0.779068 34.9675L1.78344 35.7116L2.78781 36.4558C5.01585 33.4485 6.5258 29.9699 7.20182 26.2873L5.97236 26.0616ZM1.78344 35.7116L0.821869 34.9129C0.386325 35.4373 0.110531 36.0757 0.0269215 36.7521L1.26748 36.9054L2.50804 37.0588C2.53301 36.8567 2.61535 36.6664 2.74501 36.5103L1.78344 35.7116ZM1.26748 36.9054L0.0269215 36.7521C-0.056692 37.4285 0.0554032 38.1149 0.349991 38.7295L1.47721 38.1893L2.60443 37.649C2.51657 37.4657 2.48307 37.2608 2.50804 37.0588L1.26748 36.9054ZM1.47721 38.1893L0.349991 38.7295C0.644563 39.3441 1.1093 39.8614 1.68932 40.2197L2.34615 39.1561L3.00298 38.0926C2.83073 37.9862 2.69231 37.8324 2.60443 37.649L1.47721 38.1893ZM2.34615 39.1561L1.68932 40.2197C2.26934 40.5779 2.94002 40.7618 3.6216 40.7494L3.59894 39.4996L3.57628 38.2499C3.37421 38.2535 3.17524 38.199 3.00298 38.0926L2.34615 39.1561ZM3.59894 39.4996V40.7496H36.9119V39.4996V38.2496H3.59894V39.4996ZM20.2601 4.38467H21.5101V1.25H20.2601H19.0101V4.38467H20.2601ZM25.0354 43.4581L23.7854 43.4606C23.7863 43.9259 23.6954 44.3868 23.5181 44.8168L24.6737 45.2934L25.8292 45.77C26.1319 45.0361 26.2869 44.2496 26.2854 43.4557L25.0354 43.4581ZM24.6737 45.2934L23.5181 44.8168C23.3408 45.2467 23.0805 45.6373 22.7522 45.966L23.6367 46.8492L24.5213 47.7325C25.0821 47.1708 25.5266 46.5039 25.8292 45.77L24.6737 45.2934ZM23.6367 46.8492L22.7522 45.966C22.4239 46.2948 22.0342 46.5553 21.6054 46.7327L22.0832 47.8878L22.561 49.0428C23.2943 48.7395 23.9605 48.2941 24.5213 47.7325L23.6367 46.8492ZM22.0832 47.8878L21.6054 46.7327C21.1765 46.9101 20.717 47.0009 20.2532 47L20.2507 48.25L20.2482 49.5C21.0418 49.5016 21.8277 49.3462 22.561 49.0428L22.0832 47.8878ZM20.2507 48.25L20.2507 47C19.7875 47 19.3287 46.9085 18.9007 46.7307L18.4211 47.885L17.9416 49.0394C18.6735 49.3434 19.4582 49.5 20.2507 49.5L20.2507 48.25ZM18.4211 47.885L18.9007 46.7307C18.4726 46.5529 18.0837 46.2922 17.7562 45.9636L16.8708 46.8459L15.9853 47.7282C16.5449 48.2898 17.2097 48.7353 17.9416 49.0394L18.4211 47.885ZM16.8708 46.8459L17.7562 45.9636C17.4287 45.6349 17.169 45.2447 16.9921 44.8151L15.8363 45.2912L14.6805 45.7672C14.9824 46.5003 15.4258 47.1667 15.9853 47.7282L16.8708 46.8459ZM15.8363 45.2912L16.9921 44.8151C16.8152 44.3856 16.7246 43.9253 16.7255 43.4606L15.4755 43.4581L14.2255 43.4557C14.224 44.2486 14.3785 45.0341 14.6805 45.7672L15.8363 45.2912Z" fill="#4B4544"/>
</svg>
