<svg width="40" height="49" viewBox="0 0 40 49" fill="none" xmlns="http://www.w3.org/2000/svg">
<path d="M24.1379 6.37313C24.7847 6.61449 25.5047 6.28582 25.7461 5.63903C25.9874 4.99224 25.6588 4.27225 25.012 4.03089L24.575 5.20201L24.1379 6.37313ZM19.89 4.35777L19.8893 3.10777L19.8873 3.10777L19.89 4.35777ZM9.39778 9.33024L8.43201 8.53664L8.42942 8.53981L9.39778 9.33024ZM5.87247 25.5929L4.64589 25.352L4.64444 25.3594L4.64307 25.3669L5.87247 25.5929ZM1.76282 35.0462L2.73082 35.837L2.74927 35.8144L2.76665 35.791L1.76282 35.0462ZM3.54393 38.757V37.5069L3.53234 37.507L3.54393 38.757ZM36.2268 38.757L36.2384 37.507H36.2268V38.757ZM38.0081 35.0462L37.0011 35.7868L37.0199 35.8124L37.0401 35.837L38.0081 35.0462ZM33.9447 25.6114L35.1748 25.3886L35.1728 25.3785L33.9447 25.6114ZM34.9352 23.8568C34.8525 23.1714 34.2298 22.6828 33.5445 22.7655C32.8591 22.8483 32.3705 23.4709 32.4532 24.1563L33.6942 24.0065L34.9352 23.8568ZM18.64 2.72505C18.64 3.4154 19.1996 3.97505 19.89 3.97505C20.5804 3.97505 21.14 3.4154 21.14 2.72505H19.89H18.64ZM21.14 1.25C21.14 0.559644 20.5804 0 19.89 0C19.1996 0 18.64 0.559644 18.64 1.25H19.89H21.14ZM19.89 47.2918L19.89 46.0418L19.8875 46.0418L19.89 47.2918ZM24.575 5.20201L25.012 4.03089C23.3734 3.41942 21.6383 3.10674 19.8893 3.10777L19.89 4.35777L19.8908 5.60777C21.3408 5.60691 22.7794 5.86615 24.1379 6.37313L24.575 5.20201ZM19.89 4.35777L19.8873 3.10777C17.6958 3.11255 15.5325 3.60173 13.5522 4.54025L14.0875 5.66983L14.6228 6.7994C16.2702 6.01866 18.0697 5.61174 19.8927 5.60777L19.89 4.35777ZM14.0875 5.66983L13.5522 4.54025C11.5718 5.47878 9.82336 6.84344 8.43201 8.53664L9.39778 9.33024L10.3635 10.1238C11.5209 8.71534 12.9754 7.58013 14.6228 6.7994L14.0875 5.66983ZM9.39778 9.33024L8.42942 8.53981C6.24392 11.2173 5.59772 14.1794 5.33282 17.0547C5.20239 18.4703 5.15999 19.9396 5.0864 21.307C5.01127 22.7027 4.9023 24.0461 4.64589 25.352L5.87247 25.5929L7.09905 25.8337C7.38998 24.3519 7.50599 22.8681 7.58278 21.4413C7.66111 19.9861 7.69757 18.6375 7.82227 17.284C8.06763 14.6209 8.63674 12.2394 10.3661 10.1207L9.39778 9.33024ZM5.87247 25.5929L4.64307 25.3669C4.04818 28.6027 2.71948 31.6591 0.758979 34.3013L1.76282 35.0462L2.76665 35.791C4.95488 32.842 6.43788 29.4306 7.10187 25.8189L5.87247 25.5929ZM1.76282 35.0462L0.794816 34.2553C0.371328 34.7736 0.104141 35.402 0.0248146 36.0668L1.26601 36.2149L2.50721 36.363C2.53022 36.1701 2.60777 35.9876 2.73082 35.837L1.76282 35.0462ZM1.26601 36.2149L0.0248146 36.0668C-0.0544957 36.7315 0.0572078 37.4051 0.346911 38.0086L1.47382 37.4677L2.60072 36.9268C2.51662 36.7516 2.48417 36.556 2.50721 36.363L1.26601 36.2149ZM1.47382 37.4677L0.346911 38.0086C0.636618 38.6122 1.09231 39.1207 1.66053 39.4745L2.32134 38.4135L2.98214 37.3524C2.81712 37.2497 2.68482 37.102 2.60072 36.9268L1.47382 37.4677ZM2.32134 38.4135L1.66053 39.4745C2.22876 39.8284 2.88607 40.0131 3.55552 40.0069L3.54393 38.757L3.53234 37.507C3.33801 37.5088 3.14717 37.4552 2.98214 37.3524L2.32134 38.4135ZM3.54393 38.757V40.007H36.2268V38.757V37.507H3.54393V38.757ZM36.2268 38.757L36.2152 40.0069C36.8846 40.0131 37.5421 39.8285 38.1103 39.4745L37.4495 38.4135L36.7887 37.3524C36.6238 37.4552 36.4328 37.5088 36.2384 37.507L36.2268 38.757ZM37.4495 38.4135L38.1103 39.4745C38.6787 39.1206 39.1342 38.612 39.4239 38.0086L38.2969 37.4677L37.17 36.9268C37.0859 37.1022 36.9536 37.2497 36.7887 37.3524L37.4495 38.4135ZM38.2969 37.4677L39.4239 38.0086C39.7136 37.4051 39.8253 36.7315 39.7459 36.0668L38.5048 36.2149L37.2636 36.363C37.2866 36.556 37.2541 36.7516 37.17 36.9268L38.2969 37.4677ZM38.5048 36.2149L39.7459 36.0668C39.6666 35.4022 39.3997 34.7738 38.9761 34.2553L38.0081 35.0462L37.0401 35.837C37.163 35.9875 37.2405 36.1699 37.2636 36.363L38.5048 36.2149ZM38.0081 35.0462L39.015 34.3055C37.0726 31.6645 35.759 28.6146 35.1747 25.3887L33.9447 25.6114L32.7147 25.8342C33.3669 29.4349 34.833 32.839 37.0011 35.7868L38.0081 35.0462ZM33.9447 25.6114L35.1728 25.3785C35.0755 24.8655 34.9965 24.3645 34.9352 23.8568L33.6942 24.0065L32.4532 24.1563C32.5218 24.7247 32.6098 25.2813 32.7166 25.8444L33.9447 25.6114ZM19.89 2.72505H21.14V1.25H19.89H18.64V2.72505H19.89ZM24.5749 42.5977L23.3249 42.6001C23.3258 43.0517 23.2376 43.4991 23.0654 43.9167L24.2209 44.3933L25.3765 44.87C25.674 44.1486 25.8265 43.3756 25.8249 42.5952L24.5749 42.5977ZM24.2209 44.3933L23.0654 43.9167C22.8931 44.3342 22.6403 44.7137 22.3213 45.0333L23.206 45.9164L24.0908 46.7994C24.6421 46.247 25.0789 45.5913 25.3765 44.87L24.2209 44.3933ZM23.206 45.9164L22.3213 45.0333C22.0022 45.353 21.6233 45.6067 21.2061 45.7797L21.685 46.9343L22.164 48.0889C22.8848 47.7899 23.5395 47.3517 24.0908 46.7994L23.206 45.9164ZM21.685 46.9343L21.2061 45.7797C20.7889 45.9527 20.3416 46.0418 19.89 46.0418L19.89 47.2918L19.89 48.5418C20.6704 48.5418 21.4431 48.3879 22.164 48.0889L21.685 46.9343ZM19.89 47.2918L19.8875 46.0418C19.4353 46.0427 18.9875 45.9543 18.5694 45.7816L18.0922 46.937L17.615 48.0923C18.3372 48.3906 19.1111 48.5434 19.8925 48.5418L19.89 47.2918ZM18.0922 46.937L18.5694 45.7816C18.1514 45.609 17.7716 45.3555 17.4518 45.0358L16.568 45.9196L15.6841 46.8035C16.2366 47.3561 16.8929 47.794 17.615 48.0923L18.0922 46.937ZM16.568 45.9196L17.4518 45.0358C17.1321 44.716 16.8787 44.3363 16.706 43.9183L15.5507 44.3955L14.3954 44.8727C14.6936 45.5948 15.1315 46.251 15.6841 46.8035L16.568 45.9196ZM15.5507 44.3955L16.706 43.9183C16.5334 43.5003 16.445 43.0524 16.4459 42.6001L15.1959 42.5977L13.9459 42.5952C13.9443 43.3765 14.097 44.1505 14.3954 44.8727L15.5507 44.3955Z" fill="#4B4544"/>
<path d="M31.8815 19.3922C35.7996 19.3922 38.9759 16.2882 38.9759 12.4593C38.9759 8.63034 35.7996 5.52637 31.8815 5.52637C27.9634 5.52637 24.7871 8.63034 24.7871 12.4593C24.7871 16.2882 27.9634 19.3922 31.8815 19.3922Z" fill="#E0004C"/>
</svg>
