<svg width="51" height="41" viewBox="0 0 51 41" fill="none" xmlns="http://www.w3.org/2000/svg">
<path d="M20.7548 0.271181C23.6224 -0.101708 26.625 -0.136485 29.4423 0.462455C32.1987 1.04207 34.9128 1.83808 37.2534 3.06688C39.054 4.0503 40.8095 5.10327 42.2393 6.37844C44.4662 8.29311 46.46 10.3566 48.091 12.5688C48.6339 13.3145 49.4759 13.9386 49.8386 14.752C50.2702 15.7354 50.3655 16.7768 50.3708 17.8047C50.3285 18.1235 50.4979 18.5099 50.1193 18.7494C49.4123 18.9369 49.8624 18.1157 49.7301 17.8298C49.6321 18.3225 49.505 18.8287 49.7804 19.3078C50.1087 19.8739 49.7539 20.4535 49.4255 20.9675C48.843 20.5598 48.385 20.0768 48.0407 19.5474C48.1175 19.9222 48.2314 20.2951 48.422 20.6506C48.2923 20.8245 48.1625 21.0003 48.0354 21.1761C46.5421 20.9114 46.7724 19.6227 46.5156 18.7746C46.4732 19.5203 46.3567 20.3685 47.0478 20.9887C47.3496 21.1375 47.7203 21.1761 48.0619 21.2534C48.3532 21.1819 48.6683 20.8303 48.9569 21.1278C49.415 21.5181 49.0019 22.0823 48.5677 22.3856C48.1784 22.374 47.7892 22.3605 47.4026 22.345C47.9163 22.4571 48.4432 22.5575 48.8377 22.8454C48.5359 22.8609 47.9295 22.8937 47.625 22.9092C48.0407 24.4761 47.8316 26.0874 47.8448 27.6736C47.7203 29.4106 47.6038 31.1514 47.3073 32.8767C47.0372 34.3934 45.896 35.769 44.3655 36.7891C42.8907 37.8518 41.1934 38.7347 39.4326 39.5269C38.016 40.1857 36.2393 40.12 34.6586 39.892C31.7804 39.4592 28.9551 38.8603 26.0637 38.4777C20.5933 37.7184 15.1652 36.7814 9.64445 36.2269C7.58973 36.024 5.70976 35.313 4.03898 34.4455C2.84481 33.8292 1.9922 32.9095 1.50235 31.9126C0.819209 30.5544 0.954249 29.0802 1.02839 27.6621C1.17137 26.6342 1.00985 25.5928 1.24551 24.5708C1.49176 23.114 1.98161 21.692 2.4794 20.2738C1.33024 20.2255 0.525299 19.474 0.151954 18.7436C-0.245221 17.8819 0.279051 16.9835 0.130772 16.1044C-0.107534 14.837 0.128124 13.4672 1.11312 12.3814C1.77773 11.6394 2.5403 10.9458 3.2208 10.2117C4.84922 8.71044 6.18902 7.02568 8.14313 5.72347C11.678 3.23883 15.843 0.98218 20.7548 0.271181ZM22.6189 0.86046C18.1361 1.25653 14.249 3.13836 10.8678 5.2076C7.56855 7.20343 5.14313 9.80399 2.52706 12.248C1.58443 13.1619 0.369077 14.1801 0.895997 15.4205C1.88629 14.8003 2.07164 13.7183 3.23139 13.2083C3.3373 13.3667 3.44322 13.5271 3.54648 13.6874C3.41674 13.6623 3.1546 13.6121 3.02486 13.587C2.93218 13.7937 2.8448 13.9985 2.76007 14.2052C3.54119 13.9966 4.17137 13.5522 5.01074 13.4537C4.84922 13.7299 4.6824 14.0043 4.51559 14.2786C4.20844 14.4583 4.00456 14.696 3.99661 14.9954C3.53324 15.0322 3.06722 15.0669 2.6012 15.0206C2.84216 16.0581 2.43174 17.0492 1.9922 18.023C3.11224 17.3371 2.79979 16.1721 2.93218 15.2292C3.35849 15.2582 3.80067 15.2563 4.10518 15.007C4.91541 14.3907 5.37349 13.5792 6.10429 12.9127C5.63827 12.561 5.23315 13.104 5.01603 13.3648C4.85981 13.3918 4.54736 13.4459 4.39114 13.473C4.53942 13.1233 4.6268 12.7504 4.89423 12.4355C7.46528 9.05821 10.9128 5.90122 15.5597 3.95176C18.1493 2.97607 20.9428 2.09698 23.9083 2.08153C26.1987 1.99651 28.46 2.41577 30.5809 3.01471C36.8986 4.78062 41.6594 8.72783 44.4132 13.1484C44.8951 14.126 45.3426 15.1133 45.9119 16.0677C46.0813 16.1083 46.4255 16.1895 46.595 16.232C46.5818 16.4078 46.5579 16.7613 46.5447 16.9391C46.7618 16.7749 46.9578 16.5971 47.1219 16.4039C48.1069 16.5681 47.4344 15.6581 47.5932 15.3162C48.5094 15.9653 49.0654 16.8116 49.5791 17.6501C49.4229 16.6338 49.3805 15.548 48.6391 14.6477C48.0699 14.0333 47.5191 13.4131 46.9657 12.7929C45.9384 11.8153 45.3214 10.6464 44.2305 9.70352C41.535 7.01988 38.4317 4.43091 34.3911 2.80218C30.8404 1.3628 26.7177 0.37358 22.6189 0.86046ZM15.9357 5.23079C12.618 6.82281 10.0363 9.07367 7.59502 11.3226C6.48029 12.3099 6.66034 13.7048 5.70976 14.7559C5.28876 15.3451 4.41497 15.6156 3.66299 15.9228C3.70006 16.1972 3.73977 16.4735 3.78479 16.7478C4.46263 16.3324 5.20932 15.8571 6.17314 16.0078C9.8854 16.3769 13.595 16.7923 17.302 17.2096C26.3814 18.1872 35.4926 19.0064 44.5827 19.9241C44.9666 19.9686 45.3479 20.0343 45.7265 20.1C45.7212 19.5242 45.7451 18.9484 45.7662 18.3727C44.8845 17.9283 44.2755 17.2386 44.204 16.4464C43.7248 13.7222 41.4662 11.4366 39.3452 9.26108C38.249 8.08445 36.9092 7.02181 35.3126 6.20069C32.1987 4.46183 28.4891 2.98766 24.467 3.00505C21.3558 2.978 18.52 4.08314 15.9357 5.23079ZM0.962193 18.0153C0.911884 18.6277 1.54736 19.0914 2.24375 19.3465C2.79714 19.0122 3.19432 18.5524 3.21021 18.0191C2.73095 18.28 2.47676 19.19 1.7539 18.7765C1.37261 18.5543 1.22168 18.1776 1.2561 17.8317C1.29582 16.9642 2.25434 16.2861 2.22256 15.407C1.60827 16.2088 0.787435 17.0415 0.962193 18.0153ZM44.9348 16.203C44.911 16.7304 45.2473 17.2212 45.9172 17.4511C45.6524 17.0125 45.4141 16.543 44.9348 16.203ZM4.6268 17.4337C3.21815 19.7483 2.45822 22.2561 2.10606 24.7698C1.91012 25.7783 2.63298 26.7675 3.7689 27.3239C3.98602 27.5017 4.29582 27.4051 4.56325 27.378L4.59767 27.4457L4.0734 27.5094C4.97896 27.9789 5.9666 28.3518 6.9463 28.7286C7.16343 28.6146 7.37525 28.4967 7.58708 28.3769C7.60032 28.518 7.55001 28.6648 7.61356 28.8C7.9313 28.9024 8.20932 28.6764 8.4847 28.601C8.4238 28.7884 8.3576 28.9797 8.4185 29.1749C8.80509 29.0763 9.16254 28.9314 9.51471 28.7807C9.40879 28.9449 9.30553 29.1092 9.20226 29.2753C10.6745 29.5574 12.1228 29.8917 13.6003 30.1583C13.4467 29.9516 13.2852 29.7468 13.1184 29.5458C13.2429 29.5922 13.4918 29.6849 13.6162 29.7313C13.6956 29.8356 13.8545 30.0424 13.9339 30.1467C14.3126 30.2742 14.5509 29.9303 14.8395 29.8144C14.7336 29.8975 14.5218 30.0655 14.4185 30.1506C14.5482 30.2394 14.8104 30.4172 14.9428 30.508C15.2446 30.3998 15.5279 30.2723 15.806 30.1351C15.9066 30.1544 16.1078 30.1931 16.2084 30.2143C15.9489 30.3283 15.6948 30.4442 15.4379 30.5582C16.1237 30.5891 16.8174 30.8886 17.5059 30.7321L17.6515 30.6703C17.9904 30.6432 18.3294 30.6239 18.6683 30.6027C18.332 30.6471 18.0407 30.7456 17.7971 30.8963C19.6903 31.3446 21.6656 31.559 23.6171 31.8334C23.8051 31.7271 23.9904 31.6189 24.1758 31.5088C23.7971 31.4798 23.0425 31.4219 22.6665 31.3929C23.257 31.2827 23.8686 31.4006 24.4697 31.3948C24.3426 31.5706 24.2155 31.7464 24.0884 31.9242C25.4282 31.9358 26.7415 32.1541 28.0787 32.1966C28.3911 32.1464 28.4282 31.9126 28.4097 31.7194C28.5129 31.7348 28.7168 31.7638 28.8201 31.7793C28.8572 32.1348 29.1087 32.3106 29.5747 32.3048C29.5985 32.1812 29.6436 31.9338 29.6647 31.8102C30.2261 31.6904 29.7918 32.1696 29.6224 32.3048C32.5324 32.2874 35.5244 32.4864 38.3364 31.7889C38.2887 31.5668 38.2358 31.3446 38.1802 31.1243C38.3655 31.2943 38.5403 31.4702 38.7283 31.6402C39.6948 31.0915 40.7036 30.508 41.1908 29.6598C42.1255 28.118 42.2552 26.4062 42.7556 24.7775C43.174 23.4675 43.3382 22.1074 44.0637 20.8573C42.6815 20.5907 41.257 20.4748 39.8457 20.326C34.0893 19.7831 28.3435 19.19 22.595 18.6007C17.3735 18.1486 12.2129 17.3931 6.99132 16.9391C6.18108 16.8947 4.98955 16.7208 4.6268 17.4337ZM47.4662 17.4202C46.5421 17.9129 47.7362 18.5698 48.4194 18.763C48.5465 18.4268 48.9145 18.0095 48.475 17.7061C48.2287 17.4955 47.768 16.9758 47.4662 17.4202ZM45.3399 22.0146C45.2314 22.3315 45.5518 22.6194 45.7133 22.8976C45.8165 22.4146 45.7609 21.8948 46.2005 21.4891C46.0919 21.2573 46.031 21.0138 46.0072 20.7704C45.9013 21.2148 45.565 21.6012 45.3399 22.0146ZM46.595 23.2415C46.4865 23.5216 46.6083 23.881 46.3223 24.1051C45.4882 24.3679 44.5482 24.2404 43.6877 24.1244C43.1078 25.6643 42.9092 27.2621 42.4591 28.8213C42.091 29.7757 41.6118 30.7804 40.5553 31.4508C39.0752 32.4652 37.0231 32.9018 35.0293 32.9714C27.8801 33.1742 20.7654 32.2623 13.8836 30.9176C10.2323 30.1931 6.2764 29.6772 3.34789 27.7934C3.08311 27.5983 2.92954 27.3433 2.7336 27.1114C1.4441 29.8511 3.07781 33.3945 6.84569 34.5924C6.88276 34.3798 6.86687 34.1635 6.87746 33.9509L7.03103 34.631L7.61885 34.3431C7.42556 34.4417 7.23227 34.5421 7.04163 34.6445C7.61621 34.6928 8.21727 35.002 8.79979 34.8377C9.03545 34.7373 9.27375 34.6426 9.51735 34.5518C9.49088 34.6581 9.43792 34.8745 9.41144 34.9807C9.81126 35.1082 10.2508 35.143 10.6771 35.1971C13.828 35.5333 16.9181 36.1187 20.0531 36.5167C20.0531 36.3737 20.0478 36.0878 20.0478 35.9448C20.0822 36.1457 20.1087 36.3447 20.1325 36.5476C21.1281 36.6365 22.1131 36.7814 23.1008 36.907C22.9631 36.737 22.8307 36.5631 22.7036 36.3892C23.1008 36.4162 23.1696 36.7505 23.3655 36.9495C26.4979 37.3494 29.6091 37.8209 32.723 38.2942C32.7468 38.1918 32.7945 37.9889 32.821 37.8885C32.8183 37.9909 32.813 38.1976 32.8104 38.3C33.0248 38.3328 33.4538 38.3947 33.6683 38.4275C33.6683 38.2826 33.6683 37.9947 33.6683 37.8498C33.7477 38.0546 33.806 38.2633 33.8695 38.472C35.3523 38.6362 37.0363 38.8603 38.347 38.1686C40.5262 37.0596 41.024 35.0194 41.8395 33.3018C41.8925 33.3114 42.001 33.3327 42.054 33.3423C41.5668 34.6967 41.2384 36.1129 40.2455 37.3359C41.625 37.2432 42.7424 36.5882 43.6506 35.8772C45.0407 34.8957 45.798 33.5278 46.0654 32.1483C46.5553 29.6753 46.603 27.1713 46.7592 24.6789C45.8536 24.7137 44.9428 24.7466 44.0346 24.6847C44.9057 24.621 45.7821 24.5901 46.6533 24.5167C46.6321 24.0916 46.6135 23.6665 46.595 23.2415Z" fill="black"/>
<path d="M46.7247 16.0368C46.3646 16.6434 47.6144 16.0329 46.7247 16.0368V16.0368Z" fill="black"/>
<path d="M50.1564 19.0914L50.3655 19.1203C50.7045 20.295 50.6806 21.9682 49.1608 22.7932C48.9675 22.6927 48.7742 22.5922 48.5809 22.4918C49.4017 22.0745 49.4308 21.2978 49.7459 20.6698C50.0107 20.1752 49.9392 19.6439 49.9339 19.1261L50.1564 19.0914Z" fill="black"/>
<path d="M17.3549 28.7904C16.3355 27.2544 18.0645 25.1137 20.4899 25.247C22.0045 25.0441 23.4926 25.6566 24.2022 26.6265L23.7362 26.6555L23.4873 26.2652L22.9948 26.0005C23.2066 26.2845 23.4264 26.5647 23.6541 26.8448C23.7971 26.8158 24.0804 26.7598 24.2234 26.7308C24.4273 27.693 24.2684 28.7865 23.2596 29.4956C22.4043 30.1235 21.0777 30.1718 19.9524 30.0076C18.9251 29.8608 17.8792 29.4801 17.3549 28.7904ZM21.9118 25.5677L21.9039 25.6624C21.9356 25.7783 21.9568 25.8923 21.9621 26.0102C21.181 25.7339 20.2913 25.5252 19.4202 25.6759C17.7891 26.0527 16.9948 27.6138 17.7547 28.7054C18.3028 29.3893 19.4334 29.6869 20.4634 29.77C21.4537 29.8685 22.6241 29.6888 23.1457 29.0029C23.8659 28.0601 23.6859 26.4951 22.1183 26.0797C22.3964 25.9831 22.677 25.8904 22.9604 25.8015C22.8227 25.7706 22.5473 25.7088 22.4096 25.6759C22.2852 25.6489 22.0363 25.5948 21.9118 25.5677Z" fill="black"/>
<path d="M19.8174 26.4739C20.392 26.3077 21.0884 26.2691 21.6629 26.4468C22.9207 27.0748 22.2561 28.7054 20.7653 28.8059C19.1078 28.9856 18.189 26.9666 19.8174 26.4739ZM20.0345 26.8081C19.1634 27.2313 19.7565 28.348 20.7203 28.3924C21.6603 28.1954 21.4988 27.3781 21.4008 26.8313C20.948 26.756 20.4476 26.5376 20.0345 26.8081Z" fill="black"/>
<path d="M20.8872 27.3509C21.3479 27.4282 21.0646 28.2242 20.5827 28.087C20.4132 27.8417 20.6357 27.519 20.8872 27.3509Z" fill="black"/>
<path d="M10.2375 29.0744C10.3726 29.1961 10.3726 29.1961 10.2375 29.0744V29.0744Z" fill="black"/>
<path d="M40.3382 29.8549C39.9145 30.4249 41.2279 29.8627 40.3382 29.8549V29.8549Z" fill="black"/>
<path d="M39.8696 30.4055C40.0073 30.5369 40.0073 30.5369 39.8696 30.4055V30.4055Z" fill="black"/>
<path d="M25.0707 31.5629C25.3805 31.389 25.5659 31.4335 25.6268 31.6962C25.3143 31.8701 25.1263 31.8257 25.0707 31.5629Z" fill="black"/>
<path d="M26.0689 31.7136C26.2569 31.4875 26.4555 31.4933 26.6647 31.7329C26.4661 31.9609 26.2675 31.9531 26.0689 31.7136Z" fill="black"/>
<path d="M27.136 31.6788C27.3637 31.4779 28.0309 31.644 27.7794 31.93C27.5623 32.1618 26.8315 31.9532 27.136 31.6788Z" fill="black"/>
<path d="M35.3496 31.7793C35.3814 32.4266 36.1334 31.4741 35.3496 31.7793V31.7793Z" fill="black"/>
<path d="M30.6048 31.9725C30.7769 32.098 30.7769 32.098 30.6048 31.9725V31.9725Z" fill="black"/>
<path d="M31.6666 31.9416C31.7143 32.5946 32.4345 31.6267 31.6666 31.9416V31.9416Z" fill="black"/>
<path d="M32.4821 31.9338C32.4318 32.5888 33.2871 31.6904 32.4821 31.9338V31.9338Z" fill="black"/>
<path d="M33.5439 31.9474C33.5412 32.6043 34.3223 31.6653 33.5439 31.9474V31.9474Z" fill="black"/>
<path d="M40.1688 34.9943C40.5289 34.9035 40.6348 35.0001 40.4865 35.2841C40.1317 35.371 40.0231 35.2744 40.1688 34.9943Z" fill="black"/>
<path d="M36.1864 37.9774C36.3982 37.7339 36.5862 37.732 36.7451 37.9755C36.5227 38.2208 36.3373 38.2208 36.1864 37.9774Z" fill="black"/>
</svg>
