<svg width="38" height="41" viewBox="0 0 38 41" fill="none" xmlns="http://www.w3.org/2000/svg">
<path d="M15.0613 0.989076C16.8515 0.104677 19.1542 -0.219602 21.26 0.15074C23.6157 0.428957 25.575 1.70581 26.5597 3.25719C27.1455 4.10474 27.3778 5.05178 27.9484 5.90302C29.6906 5.90302 31.5161 5.64507 33.2532 5.94724C33.5613 6.20703 33.233 6.55526 32.9427 6.73398C32.5917 6.94218 32.4377 7.25541 32.2559 7.54653C32.8871 7.59259 33.5158 7.64786 34.1496 7.68103C33.786 7.55942 33.1724 7.55942 33.1851 7.1596C34.0587 7.16881 34.9853 7.41018 35.5004 7.95187C36.0836 8.56542 36.3412 9.30427 36.5028 10.0321C37.0229 12.6945 37.2047 15.3827 37.3638 18.0672C37.3941 19.6831 37.5759 21.3763 36.6947 22.9019C36.4043 23.4565 35.8564 23.9632 35.8791 24.5841C35.8286 26.8633 36.1013 29.1682 35.5029 31.4216C35.1924 32.5032 34.5889 33.6179 33.382 34.3309C32.2407 34.9426 30.7788 35.055 29.4078 35.1342C24.6029 35.3406 19.7905 35.429 14.9856 35.6538C11.6123 35.722 8.19362 35.9689 4.85571 35.4769C3.02263 35.1711 1.38397 34.2001 0.757796 32.8901C-0.0627963 31.2355 0.0609236 29.4428 0.00537584 27.7127C-0.0501719 24.3298 0.338662 20.9581 0.530555 17.5808C0.722447 15.3016 1.02039 13.0298 1.36377 10.7617C1.54556 10.1094 1.37387 9.40929 1.75766 8.79205C2.12377 8.39039 2.53785 8.01268 2.86609 7.59259C5.78739 7.5281 8.7087 7.59811 11.6275 7.56679C11.6704 6.47051 11.3725 5.32631 11.938 4.27425C12.5213 2.99556 13.5111 1.76108 15.0613 0.989076ZM14.0388 2.65101C13.5944 3.30325 13.0843 3.94628 12.8016 4.65012C12.8697 5.82747 12.5314 6.99378 12.6198 8.17666C12.5188 10.6364 12.8016 13.1164 12.3294 15.5614C12.8344 15.5116 13.3394 15.4601 13.8443 15.4066C13.91 12.8713 13.8696 10.3361 13.8772 7.79895C13.8873 6.51104 13.9479 5.20102 14.4478 3.95734C14.6245 3.50593 14.7533 2.9974 15.2886 2.68786C16.647 1.75555 18.6442 1.13648 20.5 1.56578C22.0881 1.84952 23.4415 2.58468 24.507 3.45802C24.7469 3.90022 25.6129 3.9905 25.6457 4.50088C25.5927 4.84911 26.0497 4.89886 26.3956 4.98545C27.0294 5.94724 26.8046 7.0251 27.0294 8.03294C27.1354 6.92008 27.0723 5.72245 26.2542 4.74409C25.7593 3.86337 25.4387 2.88501 24.4994 2.18301C23.1006 1.00013 20.8434 0.578199 18.7704 0.668481C16.8767 0.731126 15.1194 1.5363 14.0388 2.65101ZM16.6369 2.93475C14.8745 4.10658 14.9629 5.96935 14.6599 7.55389C15.5007 7.75657 16.397 7.64786 17.2631 7.64786C19.3461 7.64418 21.4266 7.60364 23.5071 7.57416C23.5021 6.21071 23.1637 4.81779 22.2851 3.60358C21.2448 2.14985 18.2553 1.79793 16.6369 2.93475ZM24.56 4.1029C24.4893 4.39954 24.6484 4.52483 25.0423 4.47692C25.113 4.17475 24.9514 4.04946 24.56 4.1029ZM24.9261 5.65428C24.9968 5.93618 25.7164 5.90486 26.0346 5.86617C26.2138 5.47924 25.1938 5.43871 24.9261 5.65428ZM27.9333 6.39681C27.8828 6.55895 27.85 6.72293 27.8373 6.88875C28.0772 9.03342 27.8828 11.1873 27.8777 13.3357C27.9409 13.9916 27.9358 14.653 27.7616 15.2998C28.2792 15.32 28.7968 15.3292 29.3144 15.32C29.2109 14.9699 29.0745 14.6199 29.0922 14.2587C29.1326 12.5397 29.0594 10.8206 29.1276 9.10343C29.1957 8.20982 29.2058 7.31068 29.0468 6.4226C28.6756 6.40233 28.3044 6.39312 27.9333 6.39681ZM31.7509 7.14302C32.3266 7.16328 32.0463 6.62343 32.0564 6.37285C31.5035 6.38391 31.1601 6.94771 31.7509 7.14302ZM29.9431 8.27063C29.88 10.7506 29.9103 13.2343 30.1855 15.7088C30.2259 16.2118 30.3218 16.7185 30.2158 17.2196C29.933 17.7908 29.0013 17.5881 28.3701 17.6066C27.802 17.5587 27.196 17.6784 26.6557 17.5347C26.1381 16.1934 27.095 14.8189 26.9864 13.4517C26.9435 11.7916 27.1834 10.126 26.9789 8.47146C24.4312 8.21167 21.8558 8.43461 19.2956 8.35538C17.8741 8.4125 16.45 8.34248 15.031 8.4125C14.4983 8.49357 14.6447 8.99841 14.6069 9.28953C14.6675 11.0639 14.574 12.84 14.6574 14.6125C14.8215 15.659 14.9326 16.7185 14.7836 17.7705C13.9807 17.9843 13.049 17.8369 12.2006 17.859C11.5947 17.905 11.3548 17.3615 11.3422 17.0077C11.1629 16.1362 11.726 15.3145 11.7436 14.4504C11.8522 12.3997 11.8749 10.349 11.8295 8.29826C9.15308 8.31669 6.47669 8.29642 3.8003 8.3259C4.17651 12.4494 3.74728 16.5858 4.07804 20.713C4.11591 20.8862 4.01744 21.1736 4.33053 21.2289C4.64361 20.5932 4.46182 19.8949 4.51232 19.2316C4.54767 19.9078 4.63099 20.5914 4.43657 21.2621L4.83298 21.17C4.3987 21.4003 4.14873 21.8111 4.39365 22.1889C4.99458 23.8305 6.99934 24.9342 9.03694 25.5919C12.2587 26.6219 15.8314 26.6237 19.2779 26.7804C21.7877 26.9941 24.3201 26.8596 26.8349 26.784C26.6431 26.6974 26.4512 26.6108 26.2567 26.5279L26.7592 26.3234C26.7693 26.4303 26.7895 26.6459 26.7996 26.7527C28.7109 26.6108 30.6273 26.2663 32.3115 25.5772C34.3869 24.6965 35.6519 23.0769 36.2478 21.4261C36.6669 18.2533 36.3437 15.0565 36.0079 11.8874C35.9852 11.6645 35.6595 11.7364 35.4625 11.7511C35.5307 12.0754 35.5787 12.4033 35.6064 12.7332C35.3085 12.2338 35.2126 11.5761 35.8842 11.2113C35.7706 10.2181 35.6847 9.08133 34.7379 8.30379C33.1421 8.28721 31.5388 8.37012 29.9431 8.27063ZM2.02529 10.6677C2.22476 10.9386 2.18184 11.2536 2.14649 11.5466C1.43699 16.4237 1.18198 21.3358 1.13653 26.2405C1.01534 27.8582 1.01029 29.4907 1.32337 31.0973C1.73746 32.7998 3.22715 34.5225 5.67882 34.9131C4.81531 34.0969 4.03764 33.1775 3.92402 32.1254C3.35087 28.5768 3.53013 24.9931 3.12868 21.4353C2.78781 17.8737 3.2221 14.2974 2.89133 10.734C2.67419 10.7175 2.24244 10.6843 2.02529 10.6677ZM27.4485 15.7751C27.4081 15.9796 27.3273 16.3905 27.2894 16.5969C27.6101 16.4421 27.9434 16.2984 28.2767 16.1584C28.4686 16.1786 28.8498 16.2192 29.0392 16.2413C29.0013 16.4016 28.966 16.5637 28.9306 16.7258C28.36 16.7885 27.7666 16.8032 27.2314 16.6245L27.2642 17.0299C27.9333 17.2399 28.7185 17.1183 29.4331 17.1809C29.5846 16.7756 29.5745 16.3205 29.327 15.9391C28.7715 15.7217 28.0646 15.8304 27.4485 15.7751ZM12.0542 15.9667C12.0643 16.4734 12.0719 16.9801 12.0794 17.4868C12.7283 17.4665 13.3798 17.4665 14.0261 17.4242C14.3241 17.0814 14.0741 16.6116 14.1069 16.2173C13.4858 15.9465 12.7435 16.0073 12.0542 15.9667ZM28.211 16.6245C28.5393 16.7037 28.7008 16.6135 28.6907 16.3537C28.3373 16.2763 28.1782 16.3666 28.211 16.6245ZM4.19923 23.6426C4.30275 26.2294 4.30275 28.8237 4.61836 31.4032C4.74461 32.6229 5.29251 33.9329 6.7519 34.6533C8.0194 35.3996 9.74896 35.1232 11.2437 35.0661C17.003 34.88 22.7673 34.7289 28.5241 34.5133C29.8749 34.3991 31.3873 34.4912 32.5412 33.8832C33.9223 33.1554 34.4526 31.8933 34.7227 30.7233C35.0636 28.6873 35.0712 26.6348 35.0257 24.5878C33.18 26.3455 30.0264 27.018 27.1379 27.2797C23.6839 27.5376 20.197 27.5155 16.7429 27.2612C12.9228 27.0549 8.87282 26.7343 5.6561 25.0742C4.93903 24.7462 4.48959 24.2082 4.19923 23.6426Z" fill="black"/>
<path d="M13.2838 4.43086C13.5212 4.21897 13.4025 3.57226 13.9908 3.69202C14.0893 3.79336 14.2837 3.99787 14.3821 4.09921C13.9908 4.74777 13.5994 5.39449 13.2813 6.06331L12.9177 6.1407C12.9101 5.70034 12.7283 5.1826 13.1525 4.80673C13.3899 4.66117 13.6575 4.53957 13.8544 4.36269L13.2838 4.43086Z" fill="black"/>
<path d="M19.139 22.0913C20.7221 21.7486 22.7824 22.2018 23.3783 23.4197C24.0297 24.4128 23.353 25.7597 21.8785 26.095C20.8256 26.2829 19.6439 26.27 18.6542 25.92C16.7504 25.0724 16.9221 22.6035 19.139 22.0913ZM19.0859 22.4119C17.4574 22.9517 17.268 24.7942 18.7198 25.5349C19.5834 25.8629 20.5984 25.896 21.5477 25.8057C22.79 25.6196 23.608 24.5252 23.1106 23.6666C22.5779 22.5187 20.5504 22.082 19.0859 22.4119Z" fill="black"/>
<path d="M20.4822 22.806C20.5908 22.806 20.8054 22.806 20.914 22.806C21.1614 23.134 21.6639 23.2777 21.9947 23.5504C22.5123 23.9115 22.136 24.4624 22.2396 24.912L21.8482 24.8051C21.9113 24.9286 22.0401 25.1736 22.1032 25.2971L21.6715 25.2197L21.8028 25.474C21.2902 25.4353 20.7802 25.4021 20.2676 25.3763C19.8838 25.181 19.3385 25.076 19.1541 24.7314C18.7401 24.0921 19.1314 23.2869 19.9419 22.924C19.8131 23.2298 19.6389 23.5504 19.9192 23.8452C20.1717 23.5191 20.3838 23.1745 20.4822 22.806ZM20.6464 23.2832C20.6388 23.6075 20.4545 23.9042 20.2499 24.1879C20.5984 24.1824 20.9468 24.175 21.2953 24.164C21.2751 23.731 20.2676 23.5301 21.2877 23.1579C21.1286 23.1893 20.808 23.2519 20.6464 23.2832ZM20.5327 25.2105C20.9923 25.0907 21.4594 24.9544 21.7018 24.6227C21.116 24.6301 20.5277 24.573 20.0454 24.3114C19.3208 24.6485 19.9899 25.0778 20.5327 25.2105Z" fill="black"/>
<path d="M28.721 26.0784C28.7184 26.7012 29.4608 25.7928 28.721 26.0784V26.0784Z" fill="black"/>
<path d="M21.4949 40.0518C21.8206 39.7939 22.2852 39.722 22.7346 39.6612C22.7548 39.7589 22.7927 39.9542 22.8103 40.0518H21.4949Z" fill="black"/>
</svg>
