<svg width="57" height="52" viewBox="0 0 57 52" fill="none" xmlns="http://www.w3.org/2000/svg">
<path d="M20.3542 43.6915C19.2395 43.2788 18.5309 43.2587 17.3949 43.0349C15.8875 42.7379 14.5088 42.1631 13.1923 41.4405L12.2737 40.9073C9.81239 39.5733 6.41855 39.8474 3.64207 38.6747C3.02997 38.4162 2.14274 38.0939 2.50182 37.3023L10.4386 21.8877C11.9705 18.7665 13.0887 16.5787 16.3509 14.5131C16.5949 14.3586 16.6188 14.4438 16.618 14.1545L16.6259 11.9911C16.6337 11.8123 16.6715 11.6389 16.6861 11.4615L16.795 10.0178C16.9182 8.83079 16.8188 7.99148 18.2438 7.71944C19.0398 7.56746 19.2055 7.52526 19.9791 7.61098L21.4674 7.79475C22.0452 7.88352 22.6346 7.91739 23.2172 7.96639L24.6035 8.0646C24.7867 8.07877 24.9595 8.12077 25.1462 8.12859L31.184 8.14235C31.5394 8.14164 31.9061 8.15555 32.26 8.12757L36.4067 7.70299C36.7608 7.64043 37.1279 7.5509 37.4862 7.52602C38.7812 7.37779 39.8829 7.76388 40.0804 9.05164L40.3255 11.2439L40.3585 13.1856C40.3633 13.7115 40.1729 14.1774 40.5707 14.4688L42.0036 15.536C43.5666 16.8249 44.9641 18.4546 45.8883 20.1787L51.3377 31.3974L54.5516 37.286C55.2059 38.5709 50.8931 39.491 50.1103 39.6482L48.3823 39.9847C46.7144 40.2788 45.8706 40.4782 44.344 41.247C42.8715 41.9885 41.8148 42.5915 40.1337 42.9299C39.0338 43.1514 37.836 43.2061 36.7867 43.6018C36.5124 43.7053 36.2585 43.8404 35.9886 43.9483C34.8398 44.4079 32.6686 44.6492 31.3808 44.4594C30.665 44.3539 30.0002 44.0962 29.2891 43.9956C28.3063 43.8566 27.4519 44.1421 26.5087 44.3338C24.3289 44.7768 22.3466 44.5079 20.3542 43.6915ZM38.0085 9.07525L32.7045 9.70027C32.4617 9.73546 32.2075 9.7221 31.962 9.7318L29.6317 9.77517C27.9504 9.77928 26.2512 9.82032 24.5737 9.71383L19.2697 9.13446C18.5168 9.05423 18.5939 9.32423 18.5522 9.878L18.4776 10.4623C18.4334 11.0517 18.3558 11.6357 18.3498 12.2253C18.344 12.7862 18.3793 13.3738 18.3307 13.9311L19.061 14.0489C19.5081 14.1408 19.963 14.1911 20.4147 14.2571L23.3832 14.5656C23.694 14.5888 23.9923 14.645 24.3075 14.6569L32.5208 14.6445C32.7472 14.6353 32.9547 14.591 33.1757 14.5723L36.4825 14.2397C37.198 14.1509 37.9293 14.0777 38.6367 13.948L38.6272 11.8357C38.6174 11.6366 38.578 11.4425 38.5579 11.2445L38.4366 9.99109C38.4052 9.6957 38.5133 9.03234 38.0085 9.07525ZM39.0821 15.4987L37.0744 15.7984C37.0588 15.8904 37.0844 15.979 37.1172 16.0651L37.2841 16.6543C37.3443 16.9685 37.6335 17.8105 37.7852 18.1525L38.5773 20.3759L41.6944 28.2977C41.8501 28.6576 41.9942 29.0224 42.1388 29.3856L45.6822 38.6203C45.7042 38.6958 45.7457 38.769 45.7803 38.8402L49.7568 38.0427C50.7382 37.8618 51.6523 37.6492 52.5516 37.2306C52.5175 37.0839 52.3943 36.9171 52.3199 36.7804L49.9515 32.386L44.3524 20.9329C43.1534 18.7938 41.327 16.8434 39.1325 15.4942L39.0821 15.4987ZM17.8762 15.5262C13.9731 17.9155 13.4925 19.7432 11.5973 23.3596L4.62897 36.8732C4.56954 36.9852 4.48681 37.1095 4.45444 37.23C5.0383 37.4336 5.61142 37.6213 6.21471 37.7724L7.18727 37.9733L11.2962 38.7355C11.3635 38.6606 11.3939 38.525 11.4287 38.4332L14.6406 29.9125L19.0507 18.7483C19.3916 17.7873 19.6237 16.7936 19.8251 15.8017C19.5598 15.7465 18.1171 15.4757 17.8762 15.5262ZM21.5161 16.0341L21.4223 16.6341C21.0176 18.5865 20.2324 20.3919 19.5059 22.2548L13.2693 38.3098C13.1379 38.6553 13.0264 39.005 12.87 39.343C13.6571 39.8144 14.4171 40.3087 15.2633 40.6929C16.7878 41.3851 18.4338 41.4756 20.0454 41.8931C21.6642 42.3381 21.9766 42.7937 23.9402 42.8845L24.0538 39.5577L24.1928 37.8367C24.3744 35.9067 24.6106 33.9613 24.9876 32.054L26.5685 25.307L27.1585 22.1278C27.303 21.2444 27.3499 20.3271 27.4219 19.4363L27.5964 16.2869C26.2633 16.2398 24.9405 16.2927 23.6072 16.1957L22.3143 16.1118C22.091 16.0936 21.7246 15.9907 21.5161 16.0341ZM35.245 16.0341L30.5097 16.2757C30.1102 16.2784 29.6811 16.316 29.2856 16.2802C29.2857 16.6224 29.3347 16.9555 29.3545 17.2962L29.6177 20.1741L30.1003 23.0551C30.1987 23.5855 30.2861 24.1234 30.4064 24.65L30.8505 26.6744C31.5227 29.5941 32.1388 32.5036 32.5171 35.4706L32.8566 39.0888C32.8789 39.3938 32.9352 39.6896 32.9392 39.997L32.9457 41.9602C32.9461 42.2603 32.9143 42.5969 32.9602 42.8916C34.4879 42.8606 35.6198 42.2853 37.0154 41.8557C38.6044 41.5295 40.2456 41.3521 41.7397 40.7261C42.5762 40.3756 43.3262 39.8831 44.1533 39.5232L35.245 16.0341ZM28.5057 24.2098C28.4919 24.4235 28.4218 24.6168 28.385 24.8273L26.8439 31.5271L26.1647 35.5975L25.7875 39.815C25.7762 40.0076 25.7365 40.1966 25.7277 40.3895L25.7122 41.8716C25.7011 42.1939 25.6438 42.5241 25.6597 42.8464C26.5628 42.6909 27.4759 42.3626 28.398 42.3494C28.9064 42.3551 29.3875 42.3766 29.8835 42.4911C30.0542 42.5305 31.1682 42.855 31.2493 42.7844L31.1763 39.3291L31.0943 38.4178C30.8867 35.7225 30.4833 33.0361 29.9239 30.3829L28.7121 24.9139C28.6596 24.6788 28.588 24.4527 28.5469 24.2146L28.5057 24.2098Z" fill="black"/>
</svg>
