<svg width="50" height="41" viewBox="0 0 50 41" fill="none" xmlns="http://www.w3.org/2000/svg">
<path d="M11.6893 0.0782081C12.7621 0 13.8463 0.0855075 14.9234 0.0802936C21.1202 0.0813364 27.3169 0.055267 33.5137 0.0761225C34.9079 0.0594381 36.3092 0.119919 37.6977 0C38.1148 0.176229 38.1991 0.545371 38.2463 0.866546C38.3234 1.57146 38.1806 2.27742 38.252 2.98234C38.5148 3.22113 38.8262 3.43386 39.0448 3.69768C39.9347 4.77174 40.4818 5.96988 41.0447 7.14822C41.6875 8.44126 42.0175 9.80208 42.5903 11.1108C43.1331 12.6155 43.7374 14.1067 44.2645 15.6145C45.223 18.1276 45.6801 20.7189 46.3029 23.2831C46.78 25.0422 47.1129 26.8212 47.6571 28.572C48.16 30.7462 48.8671 32.8943 49.247 35.0831C49.377 35.4637 48.7413 35.4856 48.4514 35.665C48.0214 35.91 47.5357 36.1029 47.13 36.3699C47.1343 36.6108 47.11 36.9121 46.78 37.0352C46.2929 37.0456 45.8672 36.8527 45.4387 36.7119C44.8702 36.5107 44.2573 36.3845 43.6445 36.2792C43.7074 36.8329 43.8159 37.3845 43.8445 37.9403C43.1703 38.0571 42.4732 38.0707 41.7861 38.1134C40.3761 38.1739 39.0191 37.8538 37.6449 37.6848C36.9835 37.5889 36.3207 37.7036 35.6764 37.8027C35.6964 38.4273 35.7378 39.0509 35.8536 39.6703C34.6451 39.7829 33.4194 39.9268 32.2038 39.7652C30.7467 39.6213 29.4654 39.0644 28.1012 38.7057C27.3969 38.518 26.6313 38.5847 25.9056 38.6588C25.6427 38.6869 25.3442 38.7172 25.1513 38.8653C24.9242 39.1864 25.0485 39.567 25.1556 39.9007C23.8557 40.0749 22.5244 40.077 21.2101 40.0144C19.9131 39.9341 18.7274 39.5086 17.6175 39.0394C16.9747 38.8235 16.3133 38.4596 15.5662 38.5952C14.8091 38.7453 14.3406 39.2521 13.6606 39.5086C12.7478 39.9174 11.4765 40.1406 10.5494 39.64C10.4851 39.176 10.5708 38.7078 10.6379 38.2458C8.97517 38.0488 7.27099 38.0602 5.63395 37.7474C4.85542 37.6129 4.10832 37.397 3.39122 37.1384C3.14695 37.0435 2.86983 36.9465 2.74841 36.7526C2.75698 36.3657 3.04839 36.0174 3.07981 35.6316C1.99988 35.3657 0.998511 34.9621 0 34.5669C0.0414261 33.6806 0.35855 32.8161 0.552824 31.9433C0.9528 30.2008 1.43848 28.4688 1.96274 26.744C2.57699 25.0255 2.97696 23.2706 3.52407 21.5396C4.19975 19.4154 4.97256 17.3048 5.4311 15.1473C5.98392 13.3079 6.77673 11.5133 7.47669 9.70302C7.70954 9.0638 8.07666 8.4569 8.33093 7.8229L8.37949 7.76241C8.55234 7.30776 8.75376 6.85937 8.95089 6.40994C9.56371 5.30564 9.96226 4.07412 11.1308 3.19506C11.2436 2.15542 10.8593 1.00836 11.6893 0.0782081ZM31.6438 0.382698C26.4041 0.374356 21.1644 0.391041 15.9262 0.387912C14.9262 0.395212 13.9277 0.380613 12.9306 0.343073C12.6007 0.343073 12.1707 0.345158 12.0278 0.612109C11.5364 1.36708 11.8607 2.23362 11.8893 3.03239C20.4359 2.98651 28.9854 3.02926 37.5335 3.01883C37.6692 2.12935 37.892 1.18355 37.4635 0.320132C35.525 0.393126 33.5837 0.377484 31.6438 0.382698ZM11.8879 3.23469C11.4593 3.56108 11.2922 4.00321 11.0365 4.40364C10.4722 5.30981 10.2151 6.29419 9.81227 7.24103C9.23516 8.5518 8.7709 9.88655 8.21522 11.2025C7.71382 12.5321 7.01243 13.8168 6.53532 15.1515C6.13677 16.2047 5.77251 17.2642 5.38539 18.3195C4.77971 19.9983 4.38259 21.7106 3.8312 23.3978C3.15552 25.5146 2.5727 27.6471 1.93703 29.7702C1.56705 30.8369 1.39706 31.936 0.992797 32.9965C0.838521 33.4042 0.725671 33.8203 0.704243 34.2426C1.30992 34.4491 1.91274 34.6618 2.5227 34.861C2.81126 34.9663 3.14552 34.9767 3.45551 34.9215C3.59978 34.8412 3.59121 34.6837 3.65264 34.5701C4.35545 31.9767 5.0497 29.3823 5.7568 26.7899C6.04821 25.7993 6.35962 24.8107 6.56675 23.8086C6.48961 23.817 6.33676 23.8337 6.25962 23.841C6.25819 23.8305 6.25534 23.8086 6.25391 23.7982C6.70102 23.9098 6.65817 23.5135 6.74816 23.3102C7.21814 21.4801 7.87095 19.6803 8.53377 17.8836C9.07945 16.4383 9.79084 15.0295 10.3551 13.5884C10.9693 12.0409 11.7521 10.5341 12.4378 9.00436C13.0035 7.51736 13.8849 6.10962 14.5134 4.63722C14.6605 4.37757 14.7105 4.06369 15.0148 3.86974C14.9777 4.23888 14.7877 4.58508 14.6291 4.93232C14.3163 5.58927 14.0577 6.25978 13.7249 6.91151C12.8678 8.54658 12.1907 10.2265 11.4122 11.8803C10.7908 13.1817 10.3337 14.5206 9.72941 15.8251C8.57234 18.6302 7.54812 21.4676 6.78959 24.3446C6.30676 25.962 5.87536 27.5866 5.46396 29.2144C4.69829 31.642 4.35688 34.1279 3.54407 36.5482C4.12689 36.7422 4.71972 36.9236 5.33825 37.0498C7.17242 37.4502 9.11231 37.3918 10.9793 37.6629C11.1393 37.2312 10.3594 37.274 9.9994 37.1822C10.3765 37.1822 10.7436 37.249 11.1065 37.3167C11.1879 36.3949 11.3993 35.4814 11.5807 34.568C12.5278 29.9954 13.2978 25.3968 14.7005 20.8826C15.0491 19.5677 15.4062 18.2527 15.8062 16.9451C16.3562 15.0368 16.7733 13.1087 17.3275 11.2004C17.7832 9.7781 18.2503 8.3568 18.7174 6.93654C19.0389 5.95112 19.1831 4.91981 19.8045 4.00008C19.3931 5.7509 18.8374 7.48295 18.3546 9.22438C17.9418 10.6999 17.4289 12.1608 17.0975 13.6489C16.9004 14.5457 16.5433 15.4164 16.3047 16.3069C14.8248 21.1777 13.502 26.0777 12.6092 31.0257C12.3035 32.9381 11.8479 34.837 11.5793 36.7536C11.4665 37.5743 11.2265 38.3877 11.2236 39.2146C12.0678 39.42 12.9321 39.1604 13.6349 38.8235C14.2749 38.5065 14.9862 38.2771 15.7248 38.1124C15.7019 35.8068 16.0833 33.5106 16.5061 31.2301C16.7376 30.1487 17.0233 29.0726 17.159 27.9818C17.1347 28.7712 16.9218 29.546 16.8218 30.3301C16.4247 32.9121 15.8719 35.496 15.9662 38.103C17.7675 38.152 19.1631 39.1729 20.9273 39.3376C22.1201 39.4575 23.3329 39.4137 24.5314 39.37C24.5842 37.3814 24.47 35.3897 24.6771 33.4042C24.7414 32.3239 24.9028 31.2499 25.0128 30.1727C25.1399 28.401 25.2085 26.6273 25.2842 24.8545C25.347 22.0735 25.2556 19.2924 25.2756 16.5103C25.3128 12.3736 25.2313 8.23375 25.4499 4.09915C25.4556 3.99383 25.5156 3.89685 25.5627 3.79883C25.7613 5.32128 25.7242 6.8552 25.7642 8.38286C25.8642 10.2223 25.8642 12.067 25.7556 13.9064C25.7084 16.6969 25.697 19.4884 25.6813 22.2789L25.6199 22.3394C25.6199 24.1861 25.5699 26.0329 25.4385 27.8775C25.4056 29.1278 25.3456 30.3792 25.1528 31.6232C24.8999 33.8745 24.8142 36.1374 24.9071 38.396C25.8356 38.0008 26.9569 37.9466 27.9955 38.079C29.1797 38.2949 30.2425 38.7568 31.4052 39.0175C32.5852 39.3032 33.8551 39.2219 35.0707 39.1478C35.2193 38.9706 35.0936 38.7245 35.1193 38.5211C34.9207 36.8193 34.995 35.1092 34.9536 33.4032C34.8422 31.9798 34.905 30.5512 34.7908 29.1268C34.5922 25.6178 34.3536 22.11 34.1379 18.6021C33.7065 14.6677 33.498 10.703 32.4238 6.82392C32.1309 5.84892 32.0052 4.84786 31.5781 3.89581C31.8938 3.96046 31.9638 4.21072 32.0638 4.40677C33.2323 6.93028 33.5751 9.5977 33.9908 12.2286C34.1894 13.5811 34.3365 14.9377 34.4693 16.2954C34.985 20.2507 35.0093 24.2278 35.3679 28.1904C35.4707 31.1998 35.7221 34.2103 35.5293 37.2198C36.1278 37.153 36.7292 37.0988 37.3235 37.0081C37.2263 36.8569 37.0935 36.7151 37.0606 36.5482C36.8506 35.471 36.7664 34.3845 36.7178 33.2979C36.5907 31.4939 36.5235 29.6868 36.3864 27.8838C36.2678 26.3415 36.285 24.7961 36.2778 23.2528C36.4021 23.6762 36.4035 24.111 36.4421 24.5417C36.5392 26.3832 36.5849 28.2279 36.7635 30.0674C37.0049 32.3938 36.8521 34.7473 37.4277 37.0508C38.3648 37.1311 39.2591 37.3783 40.2004 37.4325C41.1775 37.493 42.1646 37.5326 43.1417 37.4471C43.1217 37.3584 43.0845 37.1812 43.0645 37.0925C42.7903 37.0863 42.516 37.1061 42.2432 37.1269C42.2375 37.103 42.226 37.056 42.2203 37.0321C42.5017 37.0133 42.7831 36.9893 43.0674 36.9924C42.5203 33.9246 42.1932 30.839 41.6318 27.7733C41.2747 25.7722 40.8561 23.7763 40.4561 21.7794C39.9962 20.0286 39.5619 18.2736 39.0448 16.5311C38.0748 13.3496 36.9549 10.1921 35.6707 7.07106C35.3136 6.14299 34.8565 5.22639 34.6665 4.27016C36.005 6.98972 37.212 9.7489 38.0977 12.5675C38.4105 13.6927 38.8405 14.798 39.1933 15.9159C39.5976 17.1526 39.9119 18.4039 40.2619 19.649C41.8489 24.9275 42.7874 30.2978 43.4759 35.6744C44.1445 35.8047 44.9316 35.8089 45.4773 36.1436C45.6601 36.129 45.8144 36.0623 45.9215 35.9517C45.9872 36.0154 46.1186 36.1405 46.1829 36.2041C46.1158 36.2416 46.0472 36.2792 45.9815 36.3188L46.4329 36.4272C46.4186 36.152 46.4215 35.8767 46.3943 35.6024C46.0801 33.5085 45.6272 31.4271 45.113 29.3552C44.7202 27.3791 44.2345 25.4155 43.8331 23.4416C43.0031 19.9087 42.376 16.3403 41.0375 12.8845C40.5918 11.6645 40.2547 10.4236 39.7662 9.21083C39.1319 7.52779 38.7791 5.76029 37.642 4.20342C38.5362 4.90625 38.8391 5.87499 39.1734 6.77386C40.359 10.3443 41.9032 13.8543 42.8146 17.4706C43.3602 20.0108 44.0173 22.5385 44.543 25.0808C45.2887 28.522 46.1015 31.9558 46.7986 35.4022C47.0357 35.2468 47.2629 35.0831 47.51 34.9371C47.3114 35.1207 47.0843 35.2854 46.86 35.4522C46.9257 35.5784 46.9915 35.7046 47.0586 35.8308C47.5214 35.5513 48.0214 35.2958 48.4242 34.9715C48.4942 34.52 48.4557 34.0591 48.3214 33.6159C47.5086 30.6649 46.78 27.7024 45.9458 24.7544C45.183 21.9859 44.8816 19.1516 43.8302 16.4268C43.1231 14.5092 42.4474 12.5852 41.7132 10.6718C41.1504 9.093 40.5533 7.51632 39.7433 5.99387C39.2919 4.98759 38.6377 4.01885 37.6549 3.23156C34.5065 3.22113 31.3581 3.22843 28.2097 3.23156C22.7686 3.24303 17.3275 3.20445 11.8879 3.23469Z" fill="black"/>
<path d="M23.3528 4.74152C23.4385 5.12005 23.2914 5.49962 23.2814 5.87919C22.9986 7.82813 22.7643 9.78229 22.4272 11.7281C22.0072 13.8606 21.7101 16.0045 21.2558 18.1328C20.8558 20.5229 20.3144 22.8994 19.6716 25.2602C19.2074 27.3416 18.4317 29.376 17.8517 31.4407C17.316 33.1509 16.8332 34.8694 16.3961 36.5941C16.2747 37.0185 16.2832 37.4617 16.1104 37.8778C16.0047 37.3032 16.2375 36.7422 16.3304 36.177C16.8404 34.0894 17.4846 32.0205 18.1217 29.9516C18.376 29.0861 18.726 28.2373 18.9488 27.3676C19.5088 25.2873 20.0173 23.2007 20.5158 21.1131C20.9958 18.331 21.4929 15.5488 21.9415 12.7636C22.3486 10.7208 22.61 8.66339 22.9114 6.61121C23.0128 5.98242 23.1257 5.35363 23.3528 4.74152Z" fill="black"/>
<path d="M28.8525 5.04595C28.9982 5.23678 29.1039 5.44429 29.1553 5.66014C29.8124 8.10128 29.841 10.5987 29.9295 13.0753C30.041 15.6249 29.9553 18.2047 29.1596 20.7001C28.2939 23.3247 28.1254 26.0328 27.9868 28.7201C27.9068 30.6648 27.8354 32.6107 27.8625 34.5575C27.8768 35.1613 27.8682 35.7661 27.8111 36.3699C27.5254 34.4512 27.6383 32.522 27.6968 30.5971C27.8297 27.6752 27.8782 24.7314 28.6196 21.8482C29.0939 20.2246 29.5796 18.5895 29.6253 16.9232C29.8253 14.7396 29.6653 12.5508 29.5696 10.3672C29.3524 8.59243 29.2953 6.80302 28.8525 5.04595Z" fill="black"/>
<path d="M7.85381 36.957C7.9738 36.8778 8.3095 36.9017 8.30235 37.0477C8.18379 37.1312 7.85524 37.0957 7.85381 36.957Z" fill="black"/>
<path d="M32.2338 38.6484C32.2767 38.5003 32.6352 38.5201 32.6752 38.6609C32.6424 38.8183 32.2481 38.8069 32.2338 38.6484Z" fill="black"/>
<path d="M33.0108 38.7067C33.1493 38.568 33.2836 38.5722 33.4122 38.7182C33.2736 38.8465 33.1408 38.8423 33.0108 38.7067Z" fill="black"/>
<path d="M21.673 38.8382C21.6873 38.6557 22.0958 38.6609 22.113 38.8392C22.0958 39.0113 21.6673 39.0227 21.673 38.8382Z" fill="black"/>
</svg>
