<svg width="48" height="48" viewBox="0 0 48 48" fill="none" xmlns="http://www.w3.org/2000/svg">
<path d="M24.8405 41.4337C24.5901 40.6744 24.1268 39.1359 24.0414 38.3281L24.0119 38.3024C23.9899 38.5046 23.8948 38.7162 23.8479 38.919L23.6853 39.6096C23.4266 40.6801 23.0626 42.1141 22.4392 43.0411C20.12 46.4898 14.9376 45.9858 11.8884 43.8894C11.3858 43.5439 10.6105 42.98 10.4881 42.3415C10.4259 42.0171 10.5477 41.6383 10.5957 41.317L12.8896 26.1449C13.0907 25.0853 12.8949 23.8595 12.7868 22.7934L12.5439 20.417L11.754 16.3914C11.6841 16.1551 11.5931 15.9033 11.5505 15.6614L11.5461 15.6355C11.4068 14.8433 12.4337 14.3791 12.7617 15.1137L12.7736 15.141C13.0951 15.8689 13.2241 16.6813 13.4071 17.4496C13.858 19.3418 14.05 21.2954 14.203 23.2327L14.3176 25.255C14.3178 25.4484 14.3372 25.4384 14.4874 25.5486L17.2152 27.5668C17.4085 27.713 17.7558 27.9239 17.8097 28.1841L17.8212 28.2607C17.9022 28.7844 17.4007 29.3317 16.873 29.0288C16.6616 28.9076 16.4529 28.7316 16.2586 28.5839L14.462 27.2587C14.3631 27.1847 14.2572 27.1282 14.1667 27.0424L11.8729 42.0943C12.131 42.3693 12.441 42.5713 12.7572 42.7732C14.8228 44.0924 18.0574 44.868 20.2385 43.3698C21.7037 42.3633 22.1234 40.3555 22.4651 38.7313L23.1831 35.1918C23.288 34.6138 23.2673 34.2816 23.2677 33.6903L23.2699 20.171C23.2711 19.6922 23.324 19.2145 23.4852 18.7593C23.0462 16.7004 22.0007 14.6969 20.6135 13.1243C20.3769 12.856 20.0802 12.6232 19.8293 12.3643C18.5967 11.0927 17.8162 9.55124 17.0149 7.9926L15.6349 5.4522C15.5178 5.25045 15.4506 5.1126 15.5153 4.87522L15.5041 4.82881C15.3021 4.96311 15.0277 5.05044 14.803 5.14775L13.1234 5.84806C12.658 6.03885 12.167 6.19864 11.7487 6.48345C10.1582 7.56636 10.0763 9.11206 9.79798 10.8637L9.2893 15.1519L8.90623 20.178L8.86667 21.621C8.85669 21.8207 8.81445 22.0165 8.80527 22.2159L8.77644 23.8949C8.76823 24.0544 8.73313 24.2112 8.72619 24.3705L8.6848 25.9963C8.675 26.6963 8.61078 27.3287 8.60675 28.0296L8.60487 35.6623C8.60623 36.0231 8.7313 36.9603 8.68812 37.1674C8.54736 37.8424 7.69789 37.916 7.39081 37.3357C7.28727 37.1401 7.32045 36.8177 7.3183 36.5981L7.30105 35.3653C7.2912 35.171 7.25413 34.9809 7.247 34.7855L7.24414 27.4586L7.41936 21.9885C7.42948 21.752 7.48062 21.5189 7.49239 21.2813L7.52441 20.1006L7.94262 14.838C8.0937 13.2568 8.25172 11.6788 8.52542 10.1137C8.90652 7.93475 9.28705 6.01161 11.6049 4.97853L17.8362 2.34221L18.6695 1.92623C18.9453 1.7966 19.3557 1.78283 19.4454 1.7305C19.597 1.64206 19.7266 1.54723 19.8995 1.50293C20.6345 1.54964 21.389 1.51829 22.1264 1.51852L27.4892 1.51698C28.0505 1.51174 28.0743 1.47266 28.592 1.70317L36.1942 4.87414C37.5601 5.49781 38.5031 6.47033 39.0005 7.92228C39.4923 9.35769 39.617 10.9669 39.8073 12.4616L40.3271 18.3777C40.3342 18.466 40.3574 18.5518 40.3635 18.6401L40.6582 24.898L40.7015 26.6669C40.7123 26.8602 40.7447 27.0509 40.7486 27.2444L40.7522 35.5991C40.7509 36.0836 40.7891 36.6077 40.7096 37.086C40.5521 38.0348 39.4564 37.787 39.3752 37.2136C39.3531 37.0583 39.3855 36.8702 39.3897 36.7124L39.3817 27.4661L39.2778 24.7415C39.2626 24.4471 39.2082 24.153 39.2006 23.8598L39.1005 20.6238C39.0831 20.1234 39.0224 19.6198 38.9957 19.1032L38.2805 11.4325C38.0395 9.67428 37.8967 7.40586 36.1689 6.41352C35.7414 6.16799 35.2617 6.00153 34.8075 5.8115L32.5712 4.87794C32.5454 5.35344 32.3025 5.62063 32.0748 6.02258L25.7432 17.146C25.3509 17.8712 24.7721 18.6607 24.7312 19.5136L24.7275 33.6559C24.7282 34.6643 24.8997 35.4178 25.0876 36.4073L26.0449 40.7113C26.5961 42.769 27.7848 43.784 29.8127 44.0871C31.8745 44.3954 34.2793 43.9702 35.8021 42.4473C36.1367 42.1128 36.1969 42.157 36.1127 41.7108L34.0652 28.5846C33.9947 28.0595 33.9534 27.5073 33.8322 26.992C33.5663 27.1114 33.3125 27.3438 33.0795 27.5181L31.8705 28.3598C31.4877 28.6271 31.0652 29.1172 30.5561 28.8886C29.828 28.5615 30.1138 27.904 30.6359 27.531L33.352 25.6528C33.5396 25.5246 33.6787 25.5595 33.6787 25.3109L33.7743 23.3519L34.1508 19.8285C34.3422 18.5525 34.5808 17.2854 34.9204 16.0391C35.021 15.6699 35.1212 14.8438 35.5683 14.7183L35.5982 14.7105C35.6959 14.6842 35.7716 14.6653 35.8722 14.6885L35.9768 14.7148C36.1526 14.7674 36.3041 14.9128 36.3861 15.0734L36.424 15.1439C36.5032 15.2879 36.4833 15.5322 36.437 15.6863C35.94 17.3419 35.6311 19.0396 35.43 20.7543L35.1232 24.1273C35.0814 25.0312 35.0128 25.475 35.1361 26.3732L37.5442 42.0004C37.6585 42.8996 36.4409 43.8005 35.801 44.2175C34.3226 45.1808 32.8662 45.5444 31.1417 45.5488C27.9367 45.5572 25.9362 44.5321 24.8405 41.4337ZM21.1171 2.98373L21.0471 3.00016C21.0121 3.10942 21.2777 4.21919 21.3184 4.3618L21.4118 4.76024C21.4497 4.89097 21.4609 5.02939 21.503 5.15853L22.3494 8.92109C22.3835 9.04367 22.3929 9.16953 22.4184 9.29338L23.4895 14.3676C23.6232 15.1718 23.7746 15.3115 24.0229 16.0317L24.0932 16.1958L24.551 13.8679L26.9457 2.99315L21.1171 2.98373ZM19.6011 3.059L19.5788 3.07424C19.0002 3.462 18.2852 3.61406 17.791 3.93791C18.0125 4.2386 18.1245 4.55708 17.8148 4.89983C17.6297 5.10481 17.3335 5.12703 17.0801 5.18066C17.3 5.68185 17.6303 6.15636 17.8872 6.64377L19.2374 9.21552C19.5253 9.71211 19.8453 10.1844 20.1816 10.649C20.54 11.0993 21.0438 11.7065 21.5677 11.9781C21.5145 11.5659 21.3951 11.152 21.3158 10.7418L19.8105 3.89585C19.7504 3.62807 19.7311 3.32929 19.6403 3.07182L19.6011 3.059ZM28.3434 3.0534L25.9491 13.8786L27.0041 12.0679C27.3269 11.4262 27.7117 10.8212 28.072 10.2008L30.1119 6.63566C30.3776 6.15491 30.7225 5.67959 30.9213 5.16908L30.8968 5.16795C30.4083 5.13941 29.9466 4.8567 30.0065 4.30851L30.0208 4.21354C30.0405 4.09823 30.1242 4.03283 30.166 3.92999L28.3434 3.0534Z" fill="black"/>
<path d="M33.738 12.2754L30.4459 12.2765C30.3299 12.2767 30.1943 12.2882 30.0815 12.2667C29.4816 12.1523 29.2481 10.893 30.4047 10.8861L31.201 10.8836C31.6866 10.8831 34.7168 10.8252 34.9205 10.9298L35.0326 10.9802C35.1786 11.0515 35.282 11.169 35.331 11.3237L35.3434 11.3676C35.5402 12.0557 35.117 12.2768 34.55 12.2756L33.738 12.2754Z" fill="black"/>
</svg>
